<?xml version="1.0" encoding="utf-8"?>
<!-- Generator: Adobe Illustrator 27.0.0, SVG Export Plug-In . SVG Version: 6.00 Build 0)  -->
<svg version="1.1" id="Livello_1" xmlns="http://www.w3.org/2000/svg" xmlns:xlink="http://www.w3.org/1999/xlink" x="0px" y="0px"
	 viewBox="0 0 1880 6131" style="enable-background:new 0 0 1880 6131;" xml:space="preserve">
<style type="text/css">
	.st0{fill:none;stroke:#007C37;stroke-width:30;stroke-miterlimit:10;}
	.st1{fill:none;stroke:#0268D9;stroke-width:30;stroke-miterlimit:10;}
	.st2{fill:#D4DCFF;}
	.st3{fill:#007C37;}
	.st4{fill:#FFCC19;}
	.st5{fill:#F35923;}
	.st6{fill:#D52D08;}
	.st7{fill:#0268D9;}
	.st8{fill:none;stroke:#F35923;stroke-width:30;stroke-miterlimit:10;}
	.st9{fill:none;stroke:#FFCC19;stroke-width:30;stroke-miterlimit:10;}
	.st10{fill:none;stroke:#D52D08;stroke-width:30;stroke-miterlimit:10;}
	.st11{fill:none;stroke:#D4DCFF;stroke-width:30;stroke-miterlimit:10;}
</style>
<path class="st0" d="M298.6,1152.2c85.8,12.4,145.2,92,132.8,177.8c-12.4,85.8-92,145.2-177.8,132.8"/>
<path class="st1" d="M253.6,1462.8c-85.8-12.4-145.2-92-132.8-177.8s92-145.2,177.8-132.8"/>
<rect x="-140.1" y="4001.2" transform="matrix(0.2694 -0.963 0.963 0.2694 -3663.3765 3214.7891)" class="st2" width="854.5" height="41.3"/>
<rect x="1556" class="st2" width="41" height="929"/>
<rect x="1628" class="st3" width="41" height="955"/>
<rect x="1695" class="st4" width="41" height="1058"/>
<rect x="1762" class="st5" width="41" height="1087"/>
<rect x="1829" class="st6" width="41" height="1154.8"/>
<rect x="317" y="888" class="st2" width="1239.4" height="41"/>
<rect x="566" y="952" class="st3" width="1103" height="41"/>
<rect x="689" y="1017" class="st4" width="1046" height="41"/>
<rect x="921" y="1082" class="st5" width="882" height="41"/>
<polyline class="st7" points="1483.4,866 1525,866 1525,0 1483,0 1483,828.7 "/>
<g>
	<path class="st6" d="M1452.2,1167.3c-0.2-0.4-0.4-0.7-0.7-1c-0.3-0.3-0.6-0.5-1.1-0.7c-0.4-0.2-0.9-0.3-1.5-0.3s-1.1,0.1-1.6,0.4
		c-0.5,0.2-0.9,0.5-1.2,0.9c-0.3,0.4-0.6,0.8-0.8,1.3c-0.2,0.5-0.3,1-0.3,1.5h7.6c0-0.3,0-0.7-0.1-1.1
		C1452.5,1168.1,1452.4,1167.7,1452.2,1167.3L1452.2,1167.3z"/>
	<path class="st6" d="M1490.1,1166.1c-0.7-0.4-1.4-0.6-2.3-0.6s-1.7,0.2-2.4,0.6c-0.7,0.4-1.2,1-1.5,1.8c-0.4,0.7-0.5,1.6-0.5,2.5
		s0.2,1.7,0.5,2.5c0.3,0.7,0.8,1.3,1.5,1.8c0.7,0.4,1.5,0.6,2.4,0.6s1.6-0.2,2.3-0.6s1.2-1,1.6-1.8s0.6-1.6,0.6-2.5
		s-0.2-1.7-0.5-2.5C1491.3,1167.1,1490.8,1166.5,1490.1,1166.1z"/>
	<path class="st6" d="M1526.5,1166.1c-0.7-0.4-1.5-0.6-2.4-0.6s-1.7,0.2-2.4,0.6c-0.7,0.4-1.2,1-1.6,1.8c-0.4,0.7-0.6,1.6-0.6,2.5
		s0.2,1.7,0.6,2.5c0.4,0.7,0.9,1.3,1.6,1.8c0.7,0.4,1.5,0.6,2.4,0.6s1.7-0.2,2.4-0.6c0.7-0.4,1.2-1,1.6-1.8c0.4-0.7,0.6-1.6,0.6-2.5
		s-0.2-1.7-0.6-2.5S1527.2,1166.6,1526.5,1166.1z"/>
	<path class="st6" d="M1274.5,1166.1c-0.7-0.4-1.4-0.6-2.3-0.6s-1.7,0.2-2.4,0.6c-0.7,0.4-1.2,1-1.5,1.8c-0.4,0.7-0.5,1.6-0.5,2.5
		s0.2,1.7,0.5,2.5c0.3,0.7,0.8,1.3,1.5,1.8c0.7,0.4,1.5,0.6,2.4,0.6s1.6-0.2,2.3-0.6s1.2-1,1.6-1.8s0.6-1.6,0.6-2.5
		s-0.2-1.7-0.5-2.5C1275.7,1167.1,1275.1,1166.5,1274.5,1166.1z"/>
	<path class="st6" d="M1403.8,1166.1c-0.7-0.4-1.4-0.6-2.3-0.6s-1.7,0.2-2.4,0.6c-0.7,0.4-1.2,1-1.5,1.8c-0.4,0.7-0.5,1.6-0.5,2.5
		s0.2,1.7,0.5,2.5c0.3,0.7,0.8,1.3,1.5,1.8c0.7,0.4,1.5,0.6,2.4,0.6s1.6-0.2,2.3-0.6s1.2-1,1.6-1.8s0.6-1.6,0.6-2.5
		s-0.2-1.7-0.5-2.5C1404.9,1167.1,1404.4,1166.5,1403.8,1166.1z"/>
	<path class="st6" d="M1298.6,1166.1c-0.7-0.4-1.4-0.6-2.2-0.6s-1.5,0.2-2.2,0.6s-1.2,1-1.6,1.7s-0.6,1.6-0.6,2.6s0.2,1.9,0.6,2.6
		s0.9,1.3,1.6,1.7c0.7,0.4,1.4,0.6,2.2,0.6s1.6-0.2,2.2-0.6c0.7-0.4,1.2-1,1.6-1.7s0.6-1.6,0.6-2.5c0-1-0.2-1.9-0.6-2.6
		C1299.8,1167,1299.3,1166.5,1298.6,1166.1L1298.6,1166.1z"/>
	<path class="st6" d="M1559.2,1167.3c-0.2-0.4-0.4-0.7-0.7-1c-0.3-0.3-0.6-0.5-1.1-0.7c-0.4-0.2-0.9-0.3-1.5-0.3s-1.1,0.1-1.6,0.4
		c-0.5,0.2-0.9,0.5-1.2,0.9c-0.3,0.4-0.6,0.8-0.8,1.3c-0.2,0.5-0.3,1-0.3,1.5h7.6c0-0.3,0-0.7-0.1-1.1
		C1559.5,1168.1,1559.4,1167.7,1559.2,1167.3L1559.2,1167.3z"/>
	<path class="st6" d="M1354.9,1166.1c-0.7-0.4-1.4-0.6-2.3-0.6s-1.7,0.2-2.4,0.6c-0.7,0.4-1.2,1-1.5,1.8c-0.4,0.7-0.5,1.6-0.5,2.5
		s0.2,1.7,0.5,2.5c0.3,0.7,0.8,1.3,1.5,1.8c0.7,0.4,1.5,0.6,2.4,0.6s1.6-0.2,2.3-0.6s1.2-1,1.6-1.8s0.6-1.6,0.6-2.5
		s-0.2-1.7-0.5-2.5C1356,1167.1,1355.5,1166.5,1354.9,1166.1z"/>
	<path class="st6" d="M1048.7,1188H1870v-41h-821.3V1188z M1245.1,1163.8c0.2,0.3,0.3,0.7,0.3,1c0,0.5-0.2,0.9-0.5,1.2
		s-0.7,0.5-1.2,0.5s-0.9-0.2-1.2-0.5c-0.3-0.3-0.5-0.8-0.5-1.2c0-0.3,0-0.6,0.1-0.9s0.2-0.6,0.3-1l1.2-4h2l-1.3,4.3
		C1244.6,1163.2,1244.9,1163.4,1245.1,1163.8L1245.1,1163.8z M1250.4,1163.8c0.2,0.3,0.3,0.7,0.3,1c0,0.5-0.2,0.9-0.5,1.2
		s-0.7,0.5-1.2,0.5s-0.9-0.2-1.2-0.5c-0.3-0.3-0.5-0.8-0.5-1.2c0-0.3,0-0.6,0.1-0.9s0.2-0.6,0.3-1l1.2-4h2l-1.3,4.3
		C1249.9,1163.2,1250.2,1163.4,1250.4,1163.8L1250.4,1163.8z M1263.3,1177h-4.9c-1,0-1.8-0.2-2.6-0.6c-0.7-0.4-1.3-1-1.7-1.7
		c-0.4-0.7-0.6-1.6-0.6-2.5v-13.3h2.5v13.7c0,0.7,0.2,1.2,0.6,1.7s1,0.7,1.7,0.7h4.9L1263.3,1177L1263.3,1177L1263.3,1177z
		 M1279,1177h-2.4v-2.7h-0.1c-0.3,0.5-0.6,1-1.1,1.4s-1,0.8-1.7,1.1c-0.7,0.3-1.4,0.4-2.3,0.4c-1.3,0-2.4-0.3-3.3-0.9
		s-1.7-1.5-2.2-2.5c-0.5-1.1-0.8-2.2-0.8-3.5s0.3-2.5,0.8-3.5c0.6-1,1.4-1.9,2.4-2.5s2.3-0.9,3.7-0.9s2.6,0.3,3.6,0.9
		s1.8,1.4,2.3,2.5s0.8,2.2,0.8,3.5v6.7H1279L1279,1177z M1302.4,1174.1c-0.6,1-1.3,1.8-2.3,2.4s-2.1,0.8-3.3,0.8
		c-0.7,0-1.3-0.1-1.9-0.3c-0.6-0.2-1.2-0.5-1.6-0.9s-0.9-0.9-1.2-1.4h-0.1v8.1h-2.4v-12.3c0-1.5,0.3-2.8,0.9-3.8s1.4-1.8,2.4-2.4
		s2.2-0.8,3.5-0.8c1,0,1.9,0.2,2.8,0.5s1.6,0.8,2.2,1.4s1.1,1.4,1.4,2.2c0.3,0.9,0.5,1.9,0.5,3
		C1303.2,1171.9,1302.9,1173.1,1302.4,1174.1L1302.4,1174.1z M1312.7,1165.8h-2.3c-0.6,0-1,0.2-1.3,0.5s-0.5,0.8-0.5,1.4v9.3h-2.4
		v-9.5c0-1.2,0.3-2.1,1-2.8c0.7-0.7,1.6-1,2.8-1h2.7L1312.7,1165.8L1312.7,1165.8L1312.7,1165.8z M1317.3,1177h-2.4v-13.3h2.4V1177z
		 M1317.3,1161.1c-0.3,0.3-0.7,0.5-1.1,0.5s-0.8-0.2-1.1-0.5c-0.3-0.3-0.5-0.7-0.5-1.1s0.2-0.8,0.5-1.1c0.3-0.3,0.7-0.5,1.1-0.5
		s0.8,0.2,1.1,0.5c0.3,0.3,0.5,0.7,0.5,1.1S1317.6,1160.8,1317.3,1161.1z M1342.6,1177h-2.4v-8c0-0.7-0.2-1.3-0.5-1.8
		s-0.7-1-1.3-1.3c-0.5-0.3-1.1-0.5-1.8-0.5s-1.3,0.2-1.8,0.5c-0.6,0.3-1,0.7-1.3,1.3c-0.3,0.5-0.5,1.1-0.5,1.8v8h-2.4v-8
		c0-0.7-0.2-1.3-0.5-1.8s-0.8-1-1.3-1.3s-1.2-0.5-1.8-0.5c-0.7,0-1.3,0.2-1.8,0.5s-0.9,0.7-1.3,1.3c-0.3,0.5-0.5,1.1-0.5,1.8v8h-2.4
		v-8c0-1,0.2-2,0.7-2.8s1.1-1.5,2-2s2-0.8,3.2-0.8c0.6,0,1.2,0.1,1.8,0.2c0.6,0.2,1.2,0.4,1.7,0.8s0.9,0.9,1.2,1.6l0,0
		c0.3-0.7,0.8-1.2,1.3-1.6s1.1-0.7,1.7-0.8c0.6-0.2,1.2-0.2,1.8-0.2c1.2,0,2.3,0.3,3.2,0.8c0.9,0.5,1.6,1.2,2,2
		c0.5,0.8,0.7,1.8,0.7,2.8v8H1342.6L1342.6,1177z M1359.4,1177h-2.4v-2.7h-0.1c-0.3,0.5-0.6,1-1.1,1.4s-1,0.8-1.7,1.1
		c-0.7,0.3-1.4,0.4-2.3,0.4c-1.3,0-2.4-0.3-3.3-0.9s-1.7-1.5-2.2-2.5c-0.5-1.1-0.8-2.2-0.8-3.5s0.3-2.5,0.8-3.5
		c0.6-1,1.4-1.9,2.4-2.5s2.3-0.9,3.7-0.9s2.6,0.3,3.6,0.9s1.8,1.4,2.3,2.5s0.8,2.2,0.8,3.5v6.7H1359.4L1359.4,1177z M1391.5,1177
		h-2.4v-8c0-0.7-0.2-1.3-0.5-1.8s-0.7-1-1.3-1.3c-0.5-0.3-1.1-0.5-1.8-0.5s-1.3,0.2-1.8,0.5c-0.6,0.3-1,0.7-1.3,1.3
		c-0.3,0.5-0.5,1.1-0.5,1.8v8h-2.4v-8c0-0.7-0.2-1.3-0.5-1.8s-0.8-1-1.3-1.3s-1.2-0.5-1.8-0.5c-0.7,0-1.3,0.2-1.8,0.5
		s-0.9,0.7-1.3,1.3c-0.3,0.5-0.5,1.1-0.5,1.8v8h-2.4v-8c0-1,0.2-2,0.7-2.8s1.1-1.5,2-2s2-0.8,3.2-0.8c0.6,0,1.2,0.1,1.8,0.2
		c0.6,0.2,1.2,0.4,1.7,0.8s0.9,0.9,1.2,1.6l0,0c0.3-0.7,0.8-1.2,1.3-1.6s1.1-0.7,1.7-0.8c0.6-0.2,1.2-0.2,1.8-0.2
		c1.2,0,2.3,0.3,3.2,0.8c0.9,0.5,1.6,1.2,2,2c0.5,0.8,0.7,1.8,0.7,2.8v8H1391.5L1391.5,1177z M1408.3,1177h-2.4v-2.7h-0.1
		c-0.3,0.5-0.6,1-1.1,1.4s-1,0.8-1.7,1.1c-0.7,0.3-1.4,0.4-2.3,0.4c-1.3,0-2.4-0.3-3.3-0.9s-1.7-1.5-2.2-2.5
		c-0.5-1.1-0.8-2.2-0.8-3.5s0.3-2.5,0.8-3.5c0.6-1,1.4-1.9,2.4-2.5s2.3-0.9,3.7-0.9s2.6,0.3,3.6,0.9s1.8,1.4,2.3,2.5
		s0.8,2.2,0.8,3.5v6.7H1408.3L1408.3,1177z M1424.5,1177h-2.4v-7.6c0-0.8-0.2-1.5-0.5-2.1s-0.8-1-1.4-1.3s-1.2-0.5-1.9-0.5
		s-1.3,0.2-1.9,0.5s-1,0.8-1.4,1.3c-0.4,0.6-0.5,1.3-0.5,2.1v7.6h-2.4v-7.7c0-1.2,0.3-2.2,0.8-3.1s1.3-1.6,2.2-2.1
		c0.9-0.5,2-0.7,3.2-0.7s2.3,0.2,3.2,0.7c0.9,0.5,1.7,1.2,2.2,2.1s0.8,1.9,0.8,3.1L1424.5,1177L1424.5,1177L1424.5,1177z
		 M1430.7,1177h-2.4v-13.3h2.4V1177z M1430.6,1161.1c-0.3,0.3-0.7,0.5-1.1,0.5s-0.8-0.2-1.1-0.5c-0.3-0.3-0.5-0.7-0.5-1.1
		s0.2-0.8,0.5-1.1c0.3-0.3,0.7-0.5,1.1-0.5s0.8,0.2,1.1,0.5c0.3,0.3,0.5,0.7,0.5,1.1S1430.9,1160.8,1430.6,1161.1z M1442.3,1160.1
		h-2.8c-0.6,0-1,0.2-1.4,0.5c-0.3,0.3-0.5,0.8-0.5,1.4v1.8h4.1v2.1h-4.1v11.2h-2.4v-11.2h-2.3v-2.1h2.3v-2c0-1.2,0.3-2.1,1-2.8
		c0.7-0.7,1.6-1,2.8-1h3.3V1160.1z M1455.1,1170.6c0,0.2,0,0.4-0.1,0.5h-9.9c0.1,0.8,0.4,1.5,0.8,2.1c0.5,0.6,1,1,1.7,1.3
		s1.5,0.4,2.3,0.4h3.5v2.1h-3.4c-1.5,0-2.7-0.3-3.9-0.8s-2-1.3-2.6-2.3s-0.9-2.2-0.9-3.5s0.3-2.5,0.8-3.5s1.3-1.9,2.2-2.5
		c1-0.6,2.1-0.9,3.3-0.9c1.4,0,2.5,0.3,3.4,0.9s1.6,1.4,2,2.4c0.5,1,0.7,2.1,0.7,3.3C1455.1,1170.2,1455.1,1170.4,1455.1,1170.6z
		 M1468.2,1174.9c-0.3,0.6-0.8,1.1-1.4,1.5s-1.3,0.6-2.1,0.6h-6.6v-2.1h6.3c0.4,0,0.8-0.1,1.1-0.3c0.3-0.2,0.5-0.4,0.7-0.7
		s0.2-0.6,0.2-0.9s-0.1-0.6-0.2-0.9s-0.4-0.5-0.6-0.7c-0.3-0.2-0.6-0.2-1-0.2h-2.7c-0.8,0-1.6-0.1-2.2-0.4s-1.1-0.7-1.5-1.3
		s-0.5-1.2-0.5-2c0-0.7,0.2-1.3,0.5-1.9s0.8-1,1.4-1.4s1.3-0.5,2-0.5h6.1v2.1h-5.9c-0.5,0-1,0.2-1.3,0.5s-0.5,0.7-0.5,1.2
		c0,0.4,0.2,0.8,0.5,1.1c0.3,0.3,0.8,0.5,1.4,0.5h2.5c1,0,1.8,0.2,2.4,0.5c0.7,0.3,1.1,0.7,1.5,1.3s0.5,1.3,0.5,2.1
		C1468.7,1173.6,1468.5,1174.3,1468.2,1174.9L1468.2,1174.9z M1479.2,1165.8h-4.5v7.3c0,0.6,0.2,1,0.5,1.4c0.3,0.3,0.8,0.5,1.3,0.5
		h2.7v2.1h-3.1c-1.2,0-2.1-0.3-2.8-1c-0.7-0.7-1-1.6-1-2.8v-7.4h-2.3v-2.1h2.3v-3.3h2.4v3.3h4.5V1165.8z M1494.6,1177h-2.4v-2.7
		h-0.1c-0.3,0.5-0.6,1-1.1,1.4s-1,0.8-1.7,1.1c-0.7,0.3-1.4,0.4-2.3,0.4c-1.3,0-2.4-0.3-3.3-0.9s-1.7-1.5-2.2-2.5
		c-0.5-1.1-0.8-2.2-0.8-3.5s0.3-2.5,0.8-3.5c0.6-1,1.4-1.9,2.4-2.5s2.3-0.9,3.7-0.9s2.6,0.3,3.6,0.9s1.8,1.4,2.3,2.5
		s0.8,2.2,0.8,3.5v6.7H1494.6L1494.6,1177z M1500.4,1174.7c0.2,0.2,0.4,0.3,0.7,0.3h7.1v2.1h-7.8c-0.6,0-1-0.1-1.5-0.4
		c-0.4-0.3-0.8-0.6-1-1.1c-0.3-0.4-0.4-0.9-0.4-1.4c0-0.6,0.1-1,0.4-1.5c0.3-0.4,0.7-0.8,1.2-1.2l6.1-3.9c0.3-0.2,0.4-0.3,0.5-0.5
		s0.1-0.3,0.1-0.5s-0.1-0.4-0.3-0.6c-0.2-0.2-0.4-0.3-0.7-0.3h-6.7v-2.1h7.5c0.5,0,1,0.1,1.4,0.4s0.8,0.6,1,1.1
		c0.3,0.4,0.4,0.9,0.4,1.4s-0.1,1-0.4,1.5c-0.3,0.4-0.7,0.8-1.2,1.2l-6.1,3.9c-0.3,0.2-0.4,0.3-0.5,0.5s-0.1,0.3-0.1,0.5
		S1500.2,1174.5,1500.4,1174.7z M1514.1,1177h-2.4v-13.3h2.4V1177z M1514.1,1161.1c-0.3,0.3-0.7,0.5-1.1,0.5s-0.8-0.2-1.1-0.5
		c-0.3-0.3-0.5-0.7-0.5-1.1s0.2-0.8,0.5-1.1c0.3-0.3,0.7-0.5,1.1-0.5s0.8,0.2,1.1,0.5c0.3,0.3,0.5,0.7,0.5,1.1
		C1514.5,1160.4,1514.4,1160.8,1514.1,1161.1z M1530.2,1173.9c-0.6,1-1.4,1.9-2.5,2.5c-1,0.6-2.2,0.9-3.6,0.9s-2.5-0.3-3.6-0.9
		c-1-0.6-1.9-1.4-2.5-2.5c-0.6-1-0.9-2.2-0.9-3.5s0.3-2.5,0.9-3.5s1.4-1.9,2.5-2.5c1-0.6,2.2-0.9,3.6-0.9s2.6,0.3,3.6,0.9
		s1.9,1.4,2.5,2.5c0.6,1,0.9,2.2,0.9,3.5S1530.8,1172.8,1530.2,1173.9z M1546.5,1177h-2.4v-7.6c0-0.8-0.2-1.5-0.5-2.1
		s-0.8-1-1.4-1.3s-1.2-0.5-1.9-0.5s-1.3,0.2-1.9,0.5s-1,0.8-1.4,1.3c-0.4,0.6-0.5,1.3-0.5,2.1v7.6h-2.4v-7.7c0-1.2,0.3-2.2,0.8-3.1
		s1.3-1.6,2.2-2.1c0.9-0.5,2-0.7,3.2-0.7s2.3,0.2,3.2,0.7c0.9,0.5,1.7,1.2,2.2,2.1s0.8,1.9,0.8,3.1L1546.5,1177L1546.5,1177
		L1546.5,1177z M1562.1,1170.6c0,0.2,0,0.4-0.1,0.5h-9.9c0.1,0.8,0.4,1.5,0.8,2.1c0.5,0.6,1,1,1.7,1.3s1.5,0.4,2.3,0.4h3.5v2.1h-3.4
		c-1.5,0-2.7-0.3-3.9-0.8s-2-1.3-2.6-2.3s-0.9-2.2-0.9-3.5s0.3-2.5,0.8-3.5s1.3-1.9,2.2-2.5c1-0.6,2.1-0.9,3.3-0.9
		c1.4,0,2.5,0.3,3.4,0.9s1.6,1.4,2,2.4c0.5,1,0.7,2.1,0.7,3.3C1562.1,1170.2,1562.1,1170.4,1562.1,1170.6z M1567.3,1161.2
		c-0.1,0.3-0.2,0.6-0.3,1l-1.2,4h-2l1.3-4.3c-0.4-0.1-0.7-0.3-0.9-0.7c-0.2-0.3-0.3-0.7-0.3-1c0-0.5,0.2-0.9,0.5-1.2
		c0.3-0.3,0.7-0.5,1.2-0.5s0.9,0.2,1.2,0.5c0.3,0.4,0.5,0.8,0.5,1.3C1567.4,1160.6,1567.4,1160.9,1567.3,1161.2L1567.3,1161.2z
		 M1572.6,1161.2c-0.1,0.3-0.2,0.6-0.3,1l-1.2,4h-2l1.3-4.3c-0.4-0.1-0.7-0.3-0.9-0.7c-0.2-0.3-0.3-0.7-0.3-1c0-0.5,0.2-0.9,0.5-1.2
		c0.3-0.3,0.7-0.5,1.2-0.5s0.9,0.2,1.2,0.5c0.3,0.4,0.5,0.8,0.5,1.3C1572.7,1160.6,1572.6,1160.9,1572.6,1161.2L1572.6,1161.2z
		 M1606.6,1171.3h-26v-2.2h26V1171.3z M1626.6,1177h-9c-0.6,0-1.2-0.1-1.7-0.4s-0.8-0.6-1.1-1.1c-0.2-0.4-0.4-0.9-0.4-1.5
		c0-0.5,0.1-1,0.4-1.5s0.6-0.9,1.1-1.2l5.9-4.2c0.6-0.4,1-0.9,1.3-1.4s0.4-1.1,0.4-1.6c0-0.6-0.1-1.1-0.4-1.5s-0.7-0.8-1.2-1.1
		s-1.2-0.4-1.9-0.4h-4.7v-2.2h5c1.2,0,2.3,0.2,3.1,0.7c0.9,0.5,1.5,1.1,2,1.9s0.7,1.7,0.7,2.6s-0.2,1.8-0.7,2.7
		c-0.4,0.8-1.1,1.6-2.1,2.2l-5.9,4.1c-0.2,0.1-0.3,0.2-0.4,0.4c-0.1,0.2-0.1,0.3-0.1,0.5c0,0.3,0.1,0.5,0.3,0.6
		c0.2,0.2,0.4,0.2,0.8,0.2h8.6L1626.6,1177L1626.6,1177L1626.6,1177z M1637.5,1166.7h-1.7v-1.7h-0.1c-0.3,0.6-0.6,1.1-1.1,1.4
		s-1,0.4-1.8,0.4s-1.5-0.2-2-0.6c-0.6-0.4-1-0.9-1.3-1.5s-0.5-1.3-0.5-2.1s0.2-1.5,0.5-2.1s0.8-1.1,1.4-1.5s1.4-0.6,2.3-0.6
		s1.7,0.2,2.3,0.5s1.1,0.9,1.4,1.5s0.5,1.3,0.5,2.1L1637.5,1166.7L1637.5,1166.7L1637.5,1166.7z M1649.6,1161h-3.5v13.8h3.5v2.2
		h-9.5v-2.2h3.5V1161h-3.5v-2.2h9.5V1161z"/>
	<path class="st6" d="M1633.3,1159.9c-0.8,0-1.4,0.3-1.8,0.8s-0.7,1.2-0.7,2s0.2,1.4,0.7,2c0.4,0.5,1.1,0.8,1.8,0.8s1.3-0.3,1.8-0.8
		s0.7-1.2,0.7-2s-0.2-1.4-0.7-2C1634.7,1160.2,1634.1,1159.9,1633.3,1159.9z"/>
</g>
<path class="st8" d="M614.9,1502.3c99.1,14.3,167.8,106.3,153.5,205.4S662.1,1875.5,563,1861.2"/>
<path class="st9" d="M563,1861.2c-99.1-14.3-167.8-106.3-153.5-205.4s106.3-167.8,205.4-153.5"/>
<rect x="1028" y="1147" class="st6" width="41" height="952"/>
<rect x="572" y="1291.3" transform="matrix(0.4707 -0.8823 0.8823 0.4707 -722.5831 1419.2242)" class="st5" width="499.1" height="41.1"/>
<rect x="360.9" y="1246.5" transform="matrix(0.3464 -0.9381 0.9381 0.3464 -784.6237 1410.0616)" class="st4" width="517.6" height="43.3"/>
<rect x="36.5" y="956.5" transform="matrix(0.1812 -0.9834 0.9834 0.1812 -767.4605 1031.6542)" class="st7" width="398.7" height="40.4"/>
<polyline class="st7" points="291.8,784.6 252,777 293.2,777 291.7,785 "/>
<rect x="330.1" y="1055.6" transform="matrix(0.6769 -0.7361 0.7361 0.6769 -637.5352 701.38)" class="st3" width="300.1" height="42.6"/>
<rect x="-233.6" y="1363.9" transform="matrix(0.1456 -0.9893 0.9893 0.1456 -1143.2594 1445.4409)" class="st2" width="997.6" height="41.5"/>
<rect x="1065" y="2058" class="st6" width="505" height="41"/>
<rect x="804.3" y="1774.1" transform="matrix(0.866 -0.5 0.5 0.866 -877.2761 677.447)" class="st5" width="42.3" height="403.2"/>
<rect x="908" y="2119.6" class="st5" width="480" height="41.4"/>
<rect x="465.5" y="1810.5" transform="matrix(0.995 -9.966708e-02 9.966708e-02 0.995 -198.5477 58.3055)" class="st4" width="37.5" height="411.6"/>
<polyline class="st7" points="251.8,778.3 252,777 292.5,780.8 "/>
<rect x="295" y="1462" class="st3" width="43.3" height="1050"/>
<image style="overflow:visible;enable-background:new    ;" width="1280" height="633" xlink:href="13A92699.png"  transform="matrix(1 0 0 1 87 144)">
</image>
<image style="overflow:visible;enable-background:new    ;" width="720" height="674" xlink:href="13A9269B.png"  transform="matrix(1 0 0 1 946 3230)">
</image>
<image style="overflow:visible;enable-background:new    ;" width="1284" height="963" xlink:href="13A9269E.png"  transform="matrix(0.7377 0 0 0.7377 389 4215)">
</image>
<image style="overflow:visible;enable-background:new    ;" width="1275" height="956" xlink:href="13A9269F.png"  transform="matrix(0.7329 0 0 0.7329 740.9999 5314.0918)">
</image>
<image style="overflow:visible;enable-background:new    ;" width="718" height="881" xlink:href="13A9269A.png"  transform="matrix(0.8419 0 0 0.8419 1159.1554 1248)">
</image>
<image style="overflow:visible;enable-background:new    ;" width="897" height="1282" xlink:href="13A92695.png"  transform="matrix(0.5488 0 0 0.5488 521 2240.2361)">
</image>
<polygon class="st7" points="251.4,780.1 252,777 293.2,777 290.9,789.3 "/>
<path class="st10" d="M1462,2424.2c102.5-32.4,211.9,24.4,244.3,126.9s-24.4,211.9-126.9,244.3"/>
<path class="st9" d="M1579.4,2795.3c-102.5,32.4-211.9-24.4-244.3-126.9s24.4-211.9,126.9-244.3"/>
<rect x="1468.8" y="2107.5" transform="matrix(0.9535 -0.3015 0.3015 0.9535 -687.5152 566.0433)" class="st5" width="41.9" height="804.9"/>
<rect x="1551.3" y="2059" transform="matrix(0.9924 -0.1227 0.1227 0.9924 -263.7855 209.9417)" class="st6" width="41.7" height="374.1"/>
<rect x="1276" y="2166.8" transform="matrix(0.866 -0.5 0.5 0.866 -994.0152 960.1934)" class="st4" width="37.4" height="336.3"/>
<rect x="1688.3" y="2735.1" transform="matrix(0.846 -0.5332 0.5332 0.846 -1271.389 1354.6598)" class="st6" width="42.2" height="286.5"/>
<rect x="1768" y="3011" class="st6" width="41" height="1120"/>
<rect x="1073.3" y="2882.7" transform="matrix(0.6711 -0.7414 0.7414 0.6711 -1736.1222 1889.5669)" class="st4" width="376.4" height="37.4"/>
<rect x="772" y="3019" class="st4" width="377" height="35"/>
<rect x="1416.2" y="3027.4" transform="matrix(0.3067 -0.9518 0.9518 0.3067 -1816.0889 3602.8)" class="st5" width="297.7" height="41.3"/>
<polygon class="st5" points="1591,2900 1631,2887.4 1630.3,2912.7 "/>
<polygon class="st5" points="1635,2900 1631,2887.4 1630.3,2912.7 "/>
<rect x="-256.8" y="1759.3" transform="matrix(0.1092 -0.994 0.994 0.1092 -1665.6742 1700.7026)" class="st7" width="745.7" height="40.8"/>
<polyline class="st7" points="95.8,2567 95.8,3207 55,3207 55,2567 95.8,2567 "/>
<rect x="55" y="2148" class="st7" width="40.8" height="286"/>
<rect x="172" y="1875" class="st2" width="41.4" height="1237"/>
<polygon class="st5" points="1586.7,2886.3 1591,2900 1589.2,2905.7 1627.7,2920.6 1635,2900 1626.6,2873.5 "/>
<path class="st11" d="M526,3659.5c-75.7,11.3-146.2-41-157.4-116.7s41-146.2,116.7-157.4"/>
<path class="st9" d="M485.2,3385.4c75.7-11.3,146.2,41,157.4,116.7c11.3,75.7-41,146.2-116.7,157.4"/>
<path class="st1" d="M537.5,3736.4c-118,17.6-227.9-63.9-245.5-181.9s63.9-227.9,181.9-245.5"/>
<polygon class="st3" points="422,2977.1 337.5,2504.4 295,2512 379.7,2985.8 "/>
<rect x="185" y="3119.2" transform="matrix(0.5807 -0.8141 0.8141 0.5807 -2591.7893 1546.319)" class="st7" width="40.6" height="340.2"/>
<rect x="289.8" y="3057.2" transform="matrix(0.79 -0.613 0.613 0.79 -1930.968 874.0488)" class="st2" width="41.5" height="397.9"/>
<rect x="618.3" y="3272" transform="matrix(0.4729 -0.8811 0.8811 0.4729 -2498.8604 2408.6245)" class="st5" width="290.7" height="41.5"/>
<rect x="677.5" y="3662.3" transform="matrix(0.9847 -0.1745 0.1745 0.9847 -657.5922 180.5472)" class="st5" width="40.8" height="334.6"/>
<rect x="-195.9" y="3996.3" transform="matrix(0.2694 -0.963 0.963 0.2694 -3715.677 3135.3855)" class="st7" width="809" height="40.6"/>
<g>
	<path class="st3" d="M941.6,4139.1c-0.7-0.4-1.5-0.6-2.4-0.6s-1.7,0.2-2.4,0.6s-1.2,1-1.6,1.8c-0.4,0.7-0.6,1.6-0.6,2.5
		s0.2,1.7,0.6,2.5c0.4,0.7,0.9,1.3,1.6,1.8c0.7,0.4,1.5,0.6,2.4,0.6s1.7-0.2,2.4-0.6s1.2-1,1.6-1.8c0.4-0.7,0.6-1.6,0.6-2.5
		s-0.2-1.7-0.6-2.5S942.3,4139.6,941.6,4139.1z"/>
	<path class="st3" d="M795.7,4133.8c-0.1-0.1-0.3-0.2-0.4-0.2c-0.2,0-0.3,0.1-0.4,0.2c-0.1,0.1-0.2,0.3-0.3,0.5l-3.3,9h8l-3.2-9
		C795.9,4134.1,795.8,4134,795.7,4133.8L795.7,4133.8z"/>
	<path class="st3" d="M837,4139.1c-0.7-0.4-1.4-0.6-2.3-0.6s-1.7,0.2-2.4,0.6s-1.2,1-1.5,1.8c-0.4,0.7-0.5,1.6-0.5,2.5
		s0.2,1.7,0.5,2.5c0.3,0.7,0.8,1.3,1.5,1.8c0.7,0.4,1.5,0.6,2.4,0.6s1.6-0.2,2.3-0.6s1.2-1,1.6-1.8c0.4-0.8,0.6-1.6,0.6-2.5
		s-0.2-1.7-0.5-2.5C838.2,4140.1,837.6,4139.5,837,4139.1L837,4139.1z"/>
	<path class="st3" d="M909.1,4139.1c-0.7-0.4-1.4-0.6-2.2-0.6s-1.5,0.2-2.2,0.6s-1.2,1-1.6,1.7c-0.4,0.7-0.6,1.6-0.6,2.6
		s0.2,1.9,0.6,2.6c0.4,0.7,0.9,1.3,1.6,1.7c0.7,0.4,1.4,0.6,2.2,0.6s1.6-0.2,2.2-0.6c0.7-0.4,1.2-1,1.6-1.7c0.4-0.7,0.6-1.6,0.6-2.5
		c0-1-0.2-1.9-0.6-2.6C910.3,4140,909.7,4139.5,909.1,4139.1L909.1,4139.1z"/>
	<path class="st3" d="M591,4118.9v43.1h836v-43.1H591z M782,4136.8c0.2,0.3,0.3,0.7,0.3,1c0,0.5-0.2,0.9-0.5,1.2s-0.7,0.5-1.2,0.5
		s-0.9-0.2-1.2-0.5s-0.5-0.8-0.5-1.2c0-0.3,0-0.6,0.1-0.9s0.2-0.6,0.3-1l1.2-4h2l-1.3,4.3C781.6,4136.2,781.8,4136.4,782,4136.8
		L782,4136.8z M784.7,4138.9c-0.3-0.3-0.5-0.8-0.5-1.2c0-0.3,0-0.6,0.1-0.9s0.2-0.6,0.3-1l1.2-4h2l-1.3,4.3c0.4,0.1,0.7,0.3,0.9,0.6
		c0.2,0.3,0.3,0.7,0.3,1c0,0.5-0.2,0.9-0.5,1.2s-0.7,0.5-1.2,0.5C785.4,4139.4,785,4139.3,784.7,4138.9z M801.5,4150l-1.6-4.4h-9.5
		l-1.6,4.4h-2.6l6.2-16.5c0.3-0.7,0.7-1.2,1.1-1.6s1-0.5,1.7-0.5c0.6,0,1.2,0.2,1.7,0.5s0.9,0.8,1.1,1.5l6.2,16.5h-2.7L801.5,4150
		L801.5,4150z M824.7,4150h-2.4v-7.6c0-0.8-0.2-1.5-0.5-2.1s-0.8-1-1.4-1.3c-0.6-0.3-1.2-0.5-1.9-0.5s-1.3,0.2-1.9,0.5
		c-0.6,0.3-1,0.8-1.4,1.3c-0.4,0.6-0.5,1.3-0.5,2.1v7.6h-2.4v-7.7c0-1.2,0.3-2.2,0.8-3.1s1.3-1.6,2.2-2.1s2-0.7,3.2-0.7
		s2.3,0.2,3.2,0.7s1.7,1.2,2.2,2.1s0.8,1.9,0.8,3.1L824.7,4150L824.7,4150L824.7,4150z M841.5,4150h-2.4v-2.7H839
		c-0.3,0.5-0.6,1-1.1,1.4s-1,0.8-1.7,1.1c-0.7,0.3-1.4,0.4-2.3,0.4c-1.3,0-2.4-0.3-3.3-0.9c-0.9-0.6-1.7-1.5-2.2-2.5
		c-0.5-1.1-0.8-2.2-0.8-3.5s0.3-2.5,0.8-3.5c0.6-1,1.4-1.9,2.4-2.5s2.3-0.9,3.7-0.9s2.6,0.3,3.6,0.9s1.8,1.4,2.3,2.5
		s0.8,2.2,0.8,3.5v6.7H841.5z M853,4138.8h-4.5v7.3c0,0.6,0.2,1,0.5,1.4c0.3,0.3,0.8,0.5,1.3,0.5h2.7v2.1h-3.1c-1.2,0-2.1-0.3-2.8-1
		s-1-1.6-1-2.8v-7.4h-2.3v-2.1h2.3v-3.3h2.4v3.3h4.5L853,4138.8L853,4138.8L853,4138.8z M868.5,4150H866v-2.7l0,0
		c-0.3,0.5-0.6,1-1.1,1.4s-1,0.8-1.7,1.1c-0.7,0.3-1.4,0.4-2.3,0.4c-1.3,0-2.4-0.3-3.3-0.9c-0.9-0.6-1.7-1.5-2.2-2.5
		c-0.5-1.1-0.8-2.2-0.8-3.5s0.3-2.5,0.8-3.5c0.6-1,1.4-1.9,2.4-2.5s2.3-0.9,3.7-0.9s2.6,0.3,3.6,0.9s1.8,1.4,2.3,2.5
		s0.8,2.2,0.8,3.5v6.7H868.5z M874.6,4150h-2.4v-19h2.4V4150z M890.2,4143.6c0,0.2,0,0.4-0.1,0.5h-9.9c0.1,0.8,0.4,1.5,0.8,2.1
		c0.5,0.6,1,1,1.7,1.3s1.5,0.4,2.3,0.4h3.5v2.1h-3.4c-1.5,0-2.7-0.3-3.9-0.8s-2-1.3-2.6-2.3s-0.9-2.2-0.9-3.5s0.3-2.5,0.8-3.5
		s1.3-1.9,2.2-2.5c1-0.6,2.1-0.9,3.3-0.9c1.4,0,2.5,0.3,3.4,0.9s1.6,1.4,2,2.4c0.5,1,0.7,2.1,0.7,3.3
		C890.2,4143.2,890.2,4143.4,890.2,4143.6L890.2,4143.6z M912.8,4147.1c-0.6,1-1.3,1.8-2.3,2.4s-2.1,0.8-3.3,0.8
		c-0.7,0-1.3-0.1-1.9-0.3c-0.6-0.2-1.2-0.5-1.6-0.9s-0.9-0.9-1.2-1.4h-0.1v8.1H900v-12.3c0-1.5,0.3-2.8,0.9-3.8
		c0.6-1,1.4-1.8,2.4-2.4s2.2-0.8,3.5-0.8c1,0,1.9,0.2,2.8,0.5s1.6,0.8,2.2,1.4c0.6,0.6,1.1,1.4,1.4,2.2c0.3,0.9,0.5,1.9,0.5,3
		C913.7,4144.9,913.4,4146.1,912.8,4147.1L912.8,4147.1z M929.2,4144.4c0,1.2-0.3,2.2-0.8,3.1s-1.3,1.6-2.2,2.1s-2,0.7-3.2,0.7
		s-2.3-0.2-3.2-0.7s-1.7-1.2-2.2-2.1s-0.8-1.9-0.8-3.1v-7.7h2.4v7.6c0,0.8,0.2,1.5,0.5,2.1s0.8,1,1.4,1.3c0.6,0.3,1.2,0.5,1.9,0.5
		s1.3-0.2,1.9-0.5c0.6-0.3,1-0.8,1.4-1.3s0.5-1.3,0.5-2.1v-7.6h2.4L929.2,4144.4L929.2,4144.4L929.2,4144.4z M945.3,4146.9
		c-0.6,1-1.4,1.9-2.5,2.5c-1,0.6-2.2,0.9-3.6,0.9s-2.5-0.3-3.6-0.9c-1-0.6-1.9-1.4-2.5-2.5c-0.6-1-0.9-2.2-0.9-3.5s0.3-2.5,0.9-3.5
		c0.6-1,1.4-1.9,2.5-2.5c1-0.6,2.2-0.9,3.6-0.9s2.6,0.3,3.6,0.9s1.9,1.4,2.5,2.5c0.6,1,0.9,2.2,0.9,3.5S945.9,4145.8,945.3,4146.9z
		 M951.7,4150h-2.4v-13.3h2.4V4150z M951.6,4134.1c-0.3,0.3-0.7,0.5-1.1,0.5s-0.8-0.2-1.1-0.5s-0.5-0.7-0.5-1.1s0.2-0.8,0.5-1.1
		c0.3-0.3,0.7-0.5,1.1-0.5s0.8,0.2,1.1,0.5s0.5,0.7,0.5,1.1S951.9,4133.8,951.6,4134.1z M957.7,4149.4c-0.1,0.3-0.4,0.5-0.6,0.6
		c-0.3,0.2-0.6,0.2-0.9,0.2c-0.5,0-0.9-0.2-1.2-0.5s-0.5-0.7-0.5-1.2s0.2-0.9,0.5-1.2s0.7-0.5,1.2-0.5s0.9,0.2,1.2,0.5
		s0.5,0.7,0.5,1.2C958,4148.8,957.9,4149.1,957.7,4149.4z M963.2,4149.4c-0.1,0.3-0.4,0.5-0.6,0.6c-0.3,0.2-0.6,0.2-0.9,0.2
		c-0.5,0-0.9-0.2-1.2-0.5s-0.5-0.7-0.5-1.2s0.2-0.9,0.5-1.2s0.7-0.5,1.2-0.5s0.9,0.2,1.2,0.5s0.5,0.7,0.5,1.2
		C963.4,4148.8,963.3,4149.1,963.2,4149.4z M968.6,4149.4c-0.1,0.3-0.4,0.5-0.6,0.6c-0.3,0.2-0.6,0.2-0.9,0.2
		c-0.5,0-0.9-0.2-1.2-0.5s-0.5-0.7-0.5-1.2s0.2-0.9,0.5-1.2s0.7-0.5,1.2-0.5s0.9,0.2,1.2,0.5s0.5,0.7,0.5,1.2
		C968.8,4148.8,968.7,4149.1,968.6,4149.4z M972,4134.2c-0.1,0.3-0.2,0.6-0.3,1l-1.2,4h-2l1.3-4.3c-0.4-0.1-0.7-0.3-0.9-0.7
		c-0.2-0.3-0.3-0.7-0.3-1c0-0.5,0.2-0.9,0.5-1.2c0.3-0.3,0.7-0.5,1.2-0.5s0.9,0.2,1.2,0.5c0.3,0.4,0.5,0.8,0.5,1.3
		C972.1,4133.6,972.1,4133.9,972,4134.2L972,4134.2z M977.3,4134.2c-0.1,0.3-0.2,0.6-0.3,1l-1.2,4h-2l1.3-4.3
		c-0.4-0.1-0.7-0.3-0.9-0.7c-0.2-0.3-0.3-0.7-0.3-1c0-0.5,0.2-0.9,0.5-1.2c0.3-0.3,0.7-0.5,1.2-0.5s0.9,0.2,1.2,0.5
		c0.3,0.4,0.5,0.8,0.5,1.3C977.4,4133.6,977.3,4133.9,977.3,4134.2L977.3,4134.2z M1011.2,4144.3h-26v-2.2h26V4144.3z
		 M1033.6,4145.9h-2.5v4.1h-2.5v-4.1h-6.1c-0.6,0-1.1-0.1-1.6-0.4s-0.9-0.7-1.1-1.1c-0.3-0.5-0.4-1-0.4-1.5c0-0.3,0-0.6,0.1-0.9
		s0.2-0.6,0.3-0.8l5.1-9.2h2.8l-5.6,10c-0.1,0.2-0.1,0.3-0.2,0.4c0,0.1-0.1,0.3-0.1,0.4c0,0.3,0.1,0.5,0.2,0.7s0.4,0.3,0.7,0.3h5.8
		v-6.6h2.5v6.6h2.5L1033.6,4145.9L1033.6,4145.9L1033.6,4145.9z M1044.5,4139.7h-1.7v-1.7h-0.1c-0.3,0.6-0.6,1.1-1.1,1.4
		s-1,0.4-1.8,0.4s-1.5-0.2-2-0.6c-0.6-0.4-1-0.9-1.3-1.5s-0.5-1.3-0.5-2.1s0.2-1.5,0.5-2.1s0.8-1.1,1.4-1.5s1.4-0.6,2.3-0.6
		s1.7,0.2,2.3,0.5s1.1,0.9,1.4,1.5s0.5,1.3,0.5,2.1L1044.5,4139.7L1044.5,4139.7L1044.5,4139.7z M1056.7,4134h-3.5v13.8h3.5v2.2
		h-9.5v-2.2h3.5V4134h-3.5v-2.2h9.5V4134z"/>
	<path class="st3" d="M1040.4,4132.9c-0.8,0-1.4,0.3-1.8,0.8s-0.7,1.2-0.7,2s0.2,1.4,0.7,2c0.4,0.5,1.1,0.8,1.8,0.8s1.3-0.3,1.8-0.8
		s0.7-1.2,0.7-2s-0.2-1.4-0.7-2C1041.7,4133.2,1041.1,4132.9,1040.4,4132.9z"/>
	<path class="st3" d="M887.3,4140.3c-0.2-0.4-0.4-0.7-0.7-1s-0.6-0.5-1.1-0.7c-0.4-0.2-0.9-0.3-1.5-0.3s-1.1,0.1-1.6,0.4
		c-0.5,0.2-0.9,0.5-1.2,0.9s-0.6,0.8-0.8,1.3s-0.3,1-0.3,1.5h7.6c0-0.3,0-0.7-0.1-1.1C887.6,4141.1,887.5,4140.7,887.3,4140.3
		L887.3,4140.3z"/>
	<path class="st3" d="M864,4139.1c-0.7-0.4-1.4-0.6-2.3-0.6s-1.7,0.2-2.4,0.6s-1.2,1-1.5,1.8c-0.4,0.7-0.5,1.6-0.5,2.5
		s0.2,1.7,0.5,2.5c0.3,0.7,0.8,1.3,1.5,1.8c0.7,0.4,1.5,0.6,2.4,0.6s1.6-0.2,2.3-0.6s1.2-1,1.6-1.8c0.4-0.8,0.6-1.6,0.6-2.5
		s-0.2-1.7-0.5-2.5C865.1,4140.1,864.6,4139.5,864,4139.1L864,4139.1z"/>
</g>
<rect x="650" y="4039.8" class="st4" width="894" height="37.2"/>
<rect x="707" y="3954" class="st5" width="962" height="44"/>
<rect x="611" y="3632" transform="matrix(0.9847 -0.1745 0.1745 0.9847 -663.028 168.9433)" class="st4" width="36.4" height="445.4"/>
<path class="st8" d="M473.9,3309c118-17.6,227.9,63.9,245.5,181.9c17.6,118-63.9,227.9-181.9,245.5"/>
<rect x="470.8" y="3199.1" transform="matrix(0.4729 -0.8811 0.8811 0.4729 -2473.2341 2300.7319)" class="st4" width="431" height="36.6"/>
<polyline class="st3" points="449.2,3129.1 632.6,4154.6 591,4162 408.4,3140.3 449.2,3129.1 "/>
<rect x="1383.8" y="4156" class="st3" width="43.2" height="855"/>
<polyline class="st4" points="1544,4801 1544,5107 1506.6,5107 1506.6,4801 "/>
<polyline class="st4" points="1506.6,4702 1506.6,4040 1544,4040 1544,4702 "/>
<rect x="1627" y="3954" class="st5" width="42" height="1237"/>
<polygon class="st6" points="1758.1,2995.3 1768,3011 1768,3021.4 1809,3020.9 1809,3011 1809,2997 1803.7,2988.5 "/>
<rect x="1768.1" y="4298.5" class="st6" width="41" height="974.5"/>
<rect x="80" y="4401" class="st7" width="40.9" height="1730"/>
<rect x="224" y="4989.2" class="st3" width="1203" height="43.2"/>
<rect x="291" y="5069.9" class="st4" width="1216" height="37.1"/>
<rect x="358" y="5148.7" class="st5" width="1311" height="42.3"/>
<g>
	<path class="st6" d="M1277.8,5252.3c-0.2-0.4-0.4-0.7-0.7-1c-0.3-0.3-0.6-0.5-1.1-0.7c-0.4-0.2-0.9-0.3-1.5-0.3s-1.1,0.1-1.6,0.4
		c-0.5,0.2-0.9,0.5-1.2,0.9c-0.3,0.4-0.6,0.8-0.8,1.3c-0.2,0.5-0.3,1-0.3,1.5h7.6c0-0.3,0-0.7-0.1-1.1
		C1278.1,5253.1,1278,5252.7,1277.8,5252.3L1277.8,5252.3z"/>
	<path class="st6" d="M1254.4,5251.1c-0.7-0.4-1.4-0.6-2.3-0.6s-1.7,0.2-2.4,0.6c-0.7,0.4-1.2,1-1.5,1.8c-0.4,0.7-0.5,1.6-0.5,2.5
		s0.2,1.7,0.5,2.5c0.3,0.7,0.8,1.3,1.5,1.8c0.7,0.4,1.5,0.6,2.4,0.6s1.6-0.2,2.3-0.6s1.2-1,1.6-1.8s0.6-1.6,0.6-2.5
		s-0.2-1.7-0.5-2.5C1255.6,5252.1,1255.1,5251.5,1254.4,5251.1z"/>
	<path class="st6" d="M1204.7,5251.1c-0.7-0.4-1.4-0.6-2.3-0.6s-1.7,0.2-2.4,0.6c-0.7,0.4-1.2,1-1.5,1.8c-0.4,0.7-0.5,1.6-0.5,2.5
		s0.2,1.7,0.5,2.5c0.3,0.7,0.8,1.3,1.5,1.8c0.7,0.4,1.5,0.6,2.4,0.6s1.6-0.2,2.3-0.6s1.2-1,1.6-1.8s0.6-1.6,0.6-2.5
		s-0.2-1.7-0.5-2.5C1205.8,5252.1,1205.3,5251.5,1204.7,5251.1z"/>
	<path class="st6" d="M1170.3,5251.1c-0.7-0.4-1.4-0.6-2.3-0.6s-1.7,0.2-2.4,0.6c-0.7,0.4-1.2,1-1.5,1.8c-0.4,0.7-0.5,1.6-0.5,2.5
		s0.2,1.7,0.5,2.5c0.3,0.7,0.8,1.3,1.5,1.8c0.7,0.4,1.5,0.6,2.4,0.6s1.6-0.2,2.3-0.6s1.2-1,1.6-1.8s0.6-1.6,0.6-2.5
		s-0.2-1.7-0.5-2.5C1171.5,5252.1,1170.9,5251.5,1170.3,5251.1z"/>
	<path class="st6" d="M1221.9,5251.1c-0.7-0.4-1.4-0.6-2.2-0.6s-1.5,0.2-2.2,0.6s-1.2,1-1.6,1.7s-0.6,1.6-0.6,2.6s0.2,1.9,0.6,2.6
		s0.9,1.3,1.6,1.7c0.7,0.4,1.4,0.6,2.2,0.6s1.6-0.2,2.2-0.6c0.7-0.4,1.2-1,1.6-1.7s0.6-1.6,0.6-2.5c0-1-0.2-1.9-0.6-2.6
		C1223.1,5252,1222.6,5251.5,1221.9,5251.1L1221.9,5251.1z"/>
	<path class="st6" d="M425,5232.2v40.8h1384v-40.8H425z M1140.9,5248.8c0.2,0.3,0.3,0.7,0.3,1c0,0.5-0.2,0.9-0.5,1.2
		s-0.7,0.5-1.2,0.5s-0.9-0.2-1.2-0.5c-0.3-0.3-0.5-0.8-0.5-1.2c0-0.3,0-0.6,0.1-0.9s0.2-0.6,0.3-1l1.2-4h2l-1.3,4.3
		C1140.4,5248.2,1140.7,5248.4,1140.9,5248.8L1140.9,5248.8z M1146.2,5248.8c0.2,0.3,0.3,0.7,0.3,1c0,0.5-0.2,0.9-0.5,1.2
		s-0.7,0.5-1.2,0.5s-0.9-0.2-1.2-0.5c-0.3-0.3-0.5-0.8-0.5-1.2c0-0.3,0-0.6,0.1-0.9s0.2-0.6,0.3-1l1.2-4h2l-1.3,4.3
		C1145.7,5248.2,1146,5248.4,1146.2,5248.8L1146.2,5248.8z M1159.1,5262h-4.9c-1,0-1.8-0.2-2.6-0.6c-0.7-0.4-1.3-1-1.7-1.7
		c-0.4-0.7-0.6-1.6-0.6-2.5v-13.3h2.5v13.7c0,0.7,0.2,1.2,0.6,1.7s1,0.7,1.7,0.7h4.9L1159.1,5262L1159.1,5262L1159.1,5262z
		 M1174.8,5262h-2.4v-2.7h-0.1c-0.3,0.5-0.6,1-1.1,1.4s-1,0.8-1.7,1.1c-0.7,0.3-1.4,0.4-2.3,0.4c-1.3,0-2.4-0.3-3.3-0.9
		s-1.7-1.5-2.2-2.5c-0.5-1.1-0.8-2.2-0.8-3.5s0.3-2.5,0.8-3.5c0.6-1,1.4-1.9,2.4-2.5s2.3-0.9,3.7-0.9s2.6,0.3,3.6,0.9
		s1.8,1.4,2.3,2.5s0.8,2.2,0.8,3.5v6.7H1174.8L1174.8,5262z M1193.5,5250.8h-1.6c-0.9,0-1.7,0.2-2.4,0.6s-1.3,1-1.7,1.7
		c-0.4,0.7-0.6,1.5-0.6,2.3s0.2,1.6,0.6,2.3c0.4,0.7,1,1.2,1.7,1.7s1.5,0.6,2.4,0.6h1.6v2.1h-1.6c-1.4,0-2.6-0.3-3.7-0.9
		s-1.9-1.4-2.5-2.4s-0.9-2.1-0.9-3.4s0.3-2.4,0.9-3.4s1.5-1.8,2.5-2.4c1.1-0.6,2.3-0.9,3.7-0.9h1.6V5250.8L1193.5,5250.8z
		 M1209.2,5262h-2.4v-2.7h-0.1c-0.3,0.5-0.6,1-1.1,1.4s-1,0.8-1.7,1.1c-0.7,0.3-1.4,0.4-2.3,0.4c-1.3,0-2.4-0.3-3.3-0.9
		s-1.7-1.5-2.2-2.5c-0.5-1.1-0.8-2.2-0.8-3.5s0.3-2.5,0.8-3.5c0.6-1,1.4-1.9,2.4-2.5s2.3-0.9,3.7-0.9s2.6,0.3,3.6,0.9
		s1.8,1.4,2.3,2.5s0.8,2.2,0.8,3.5v6.7H1209.2L1209.2,5262z M1225.7,5259.1c-0.6,1-1.3,1.8-2.3,2.4s-2.1,0.8-3.3,0.8
		c-0.7,0-1.3-0.1-1.9-0.3c-0.6-0.2-1.2-0.5-1.6-0.9s-0.9-0.9-1.2-1.4h-0.1v8.1h-2.4v-12.3c0-1.5,0.3-2.8,0.9-3.8s1.4-1.8,2.4-2.4
		s2.2-0.8,3.5-0.8c1,0,1.9,0.2,2.8,0.5s1.6,0.8,2.2,1.4s1.1,1.4,1.4,2.2c0.3,0.9,0.5,1.9,0.5,3
		C1226.5,5256.9,1226.2,5258.1,1225.7,5259.1L1225.7,5259.1z M1232,5262h-2.4v-13.3h2.4V5262z M1231.9,5246.1
		c-0.3,0.3-0.7,0.5-1.1,0.5s-0.8-0.2-1.1-0.5c-0.3-0.3-0.5-0.7-0.5-1.1s0.2-0.8,0.5-1.1c0.3-0.3,0.7-0.5,1.1-0.5s0.8,0.2,1.1,0.5
		c0.3,0.3,0.5,0.7,0.5,1.1S1232.3,5245.8,1231.9,5246.1z M1243.5,5250.8h-4.5v7.3c0,0.6,0.2,1,0.5,1.4c0.3,0.3,0.8,0.5,1.3,0.5h2.7
		v2.1h-3.1c-1.2,0-2.1-0.3-2.8-1c-0.7-0.7-1-1.6-1-2.8v-7.4h-2.3v-2.1h2.3v-3.3h2.4v3.3h4.5V5250.8z M1258.9,5262h-2.4v-2.7h-0.1
		c-0.3,0.5-0.6,1-1.1,1.4s-1,0.8-1.7,1.1c-0.7,0.3-1.4,0.4-2.3,0.4c-1.3,0-2.4-0.3-3.3-0.9s-1.7-1.5-2.2-2.5
		c-0.5-1.1-0.8-2.2-0.8-3.5s0.3-2.5,0.8-3.5c0.6-1,1.4-1.9,2.4-2.5s2.3-0.9,3.7-0.9s2.6,0.3,3.6,0.9s1.8,1.4,2.3,2.5
		s0.8,2.2,0.8,3.5v6.7H1258.9L1258.9,5262z M1265.1,5262h-2.4v-19h2.4V5262z M1280.7,5255.6c0,0.2,0,0.4-0.1,0.5h-9.9
		c0.1,0.8,0.4,1.5,0.8,2.1c0.5,0.6,1,1,1.7,1.3s1.5,0.4,2.3,0.4h3.5v2.1h-3.4c-1.5,0-2.7-0.3-3.9-0.8s-2-1.3-2.6-2.3
		s-0.9-2.2-0.9-3.5s0.3-2.5,0.8-3.5s1.3-1.9,2.2-2.5c1-0.6,2.1-0.9,3.3-0.9c1.4,0,2.5,0.3,3.4,0.9s1.6,1.4,2,2.4
		c0.5,1,0.7,2.1,0.7,3.3C1280.7,5255.2,1280.7,5255.4,1280.7,5255.6z M1285.9,5246.2c-0.1,0.3-0.2,0.6-0.3,1l-1.2,4h-2l1.3-4.3
		c-0.4-0.1-0.7-0.3-0.9-0.7c-0.2-0.3-0.3-0.7-0.3-1c0-0.5,0.2-0.9,0.5-1.2c0.3-0.3,0.7-0.5,1.2-0.5s0.9,0.2,1.2,0.5
		c0.3,0.4,0.5,0.8,0.5,1.3C1286,5245.6,1286,5245.9,1285.9,5246.2L1285.9,5246.2z M1291.2,5246.2c-0.1,0.3-0.2,0.6-0.3,1l-1.2,4h-2
		l1.3-4.3c-0.4-0.1-0.7-0.3-0.9-0.7c-0.2-0.3-0.3-0.7-0.3-1c0-0.5,0.2-0.9,0.5-1.2c0.3-0.3,0.7-0.5,1.2-0.5s0.9,0.2,1.2,0.5
		c0.3,0.4,0.5,0.8,0.5,1.3C1291.3,5245.6,1291.2,5245.9,1291.2,5246.2L1291.2,5246.2z M1325.1,5256.3h-26v-2.2h26V5256.3z
		 M1347.5,5257.9h-2.5v4.1h-2.5v-4.1h-6.1c-0.6,0-1.1-0.1-1.6-0.4s-0.9-0.7-1.1-1.1c-0.3-0.5-0.4-1-0.4-1.5c0-0.3,0-0.6,0.1-0.9
		s0.2-0.6,0.3-0.8l5.1-9.2h2.8l-5.6,10c-0.1,0.2-0.1,0.3-0.2,0.4c0,0.1-0.1,0.3-0.1,0.4c0,0.3,0.1,0.5,0.2,0.7s0.4,0.3,0.7,0.3h5.8
		v-6.6h2.5v6.6h2.5L1347.5,5257.9L1347.5,5257.9L1347.5,5257.9z M1358.4,5251.7h-1.7v-1.7h-0.1c-0.3,0.6-0.6,1.1-1.1,1.4
		s-1,0.4-1.8,0.4s-1.5-0.2-2-0.6c-0.6-0.4-1-0.9-1.3-1.5s-0.5-1.3-0.5-2.1s0.2-1.5,0.5-2.1s0.8-1.1,1.4-1.5s1.4-0.6,2.3-0.6
		s1.7,0.2,2.3,0.5s1.1,0.9,1.4,1.5s0.5,1.3,0.5,2.1L1358.4,5251.7L1358.4,5251.7L1358.4,5251.7z M1370.6,5246h-3.5v13.8h3.5v2.2
		h-9.5v-2.2h3.5V5246h-3.5v-2.2h9.5V5246z"/>
	<path class="st6" d="M1354.3,5244.9c-0.8,0-1.4,0.3-1.8,0.8s-0.7,1.2-0.7,2s0.2,1.4,0.7,2c0.4,0.5,1.1,0.8,1.8,0.8s1.3-0.3,1.8-0.8
		s0.7-1.2,0.7-2s-0.2-1.4-0.7-2C1355.6,5245.2,1355,5244.9,1354.3,5244.9z"/>
</g>
<rect x="152" y="4428" class="st2" width="41" height="1703"/>
<rect x="224" y="5011" class="st3" width="41" height="1120"/>
<rect x="291" y="5080" class="st4" width="41" height="1051"/>
<rect x="358" y="5170" class="st5" width="41" height="961"/>
<rect x="425" y="5262" class="st6" width="41" height="869"/>
<g>
	<path class="st7" d="M741.2,844.1c-0.7-0.4-1.5-0.6-2.4-0.6s-1.7,0.2-2.4,0.6c-0.7,0.4-1.2,1-1.6,1.8c-0.4,0.7-0.6,1.6-0.6,2.5
		s0.2,1.7,0.6,2.5c0.4,0.7,0.9,1.3,1.6,1.8c0.7,0.4,1.5,0.6,2.4,0.6s1.7-0.2,2.4-0.6c0.7-0.4,1.2-1,1.6-1.8c0.4-0.7,0.6-1.6,0.6-2.5
		s-0.2-1.7-0.6-2.5S741.9,844.6,741.2,844.1z"/>
	<path class="st7" d="M935.3,844.1c-0.7-0.4-1.4-0.6-2.2-0.6s-1.5,0.2-2.2,0.6c-0.7,0.4-1.2,1-1.6,1.7c-0.4,0.7-0.6,1.6-0.6,2.6
		s0.2,1.9,0.6,2.6c0.4,0.7,0.9,1.3,1.6,1.7c0.7,0.4,1.4,0.6,2.2,0.6s1.6-0.2,2.2-0.6c0.7-0.4,1.2-1,1.6-1.7c0.4-0.7,0.6-1.6,0.6-2.5
		c0-1-0.2-1.9-0.6-2.6C936.5,845,936,844.5,935.3,844.1z"/>
	<path class="st7" d="M910.1,844.1c-0.7-0.4-1.5-0.6-2.4-0.6s-1.7,0.2-2.4,0.6c-0.7,0.4-1.2,1-1.6,1.8c-0.4,0.7-0.6,1.6-0.6,2.5
		s0.2,1.7,0.6,2.5c0.4,0.7,0.9,1.3,1.6,1.8c0.7,0.4,1.5,0.6,2.4,0.6s1.7-0.2,2.4-0.6c0.7-0.4,1.2-1,1.6-1.8c0.4-0.7,0.6-1.6,0.6-2.5
		s-0.2-1.7-0.6-2.5S910.8,844.6,910.1,844.1z"/>
	<path class="st7" d="M960.5,845.3c-0.2-0.4-0.4-0.7-0.7-1s-0.6-0.5-1.1-0.7c-0.4-0.2-0.9-0.3-1.5-0.3s-1.1,0.1-1.6,0.4
		c-0.5,0.2-0.9,0.5-1.2,0.9s-0.6,0.8-0.8,1.3s-0.3,1-0.3,1.5h7.6c0-0.3,0-0.7-0.1-1.1C960.8,846.1,960.7,845.7,960.5,845.3
		L960.5,845.3z"/>
	<path class="st7" d="M775.1,844.1c-0.7-0.4-1.5-0.6-2.4-0.6s-1.7,0.2-2.4,0.6c-0.7,0.4-1.2,1-1.6,1.8c-0.4,0.7-0.6,1.6-0.6,2.5
		s0.2,1.7,0.6,2.5c0.4,0.7,0.9,1.3,1.6,1.8c0.7,0.4,1.5,0.6,2.4,0.6s1.7-0.2,2.4-0.6c0.7-0.4,1.2-1,1.6-1.8c0.4-0.7,0.6-1.6,0.6-2.5
		s-0.2-1.7-0.6-2.5S775.7,844.6,775.1,844.1z"/>
	<path class="st7" d="M816.9,844.1c-0.7-0.4-1.4-0.6-2.2-0.6s-1.5,0.2-2.2,0.6c-0.7,0.4-1.2,1-1.6,1.7c-0.4,0.7-0.6,1.6-0.6,2.6
		s0.2,1.9,0.6,2.6c0.4,0.7,0.9,1.3,1.6,1.7c0.7,0.4,1.4,0.6,2.2,0.6s1.6-0.2,2.2-0.6c0.7-0.4,1.2-1,1.6-1.7c0.4-0.7,0.6-1.6,0.6-2.5
		c0-1-0.2-1.9-0.6-2.6C818.1,845,817.5,844.5,816.9,844.1z"/>
	<path class="st7" d="M988.6,844.1c-0.7-0.4-1.4-0.6-2.3-0.6s-1.7,0.2-2.4,0.6c-0.7,0.4-1.2,1-1.5,1.8c-0.4,0.7-0.5,1.6-0.5,2.5
		s0.2,1.7,0.5,2.5c0.3,0.7,0.8,1.3,1.5,1.8c0.7,0.4,1.5,0.6,2.4,0.6s1.6-0.2,2.3-0.6s1.2-1,1.6-1.8c0.4-0.8,0.6-1.6,0.6-2.5
		s-0.2-1.7-0.5-2.5C989.8,845.1,989.3,844.5,988.6,844.1L988.6,844.1z"/>
	<path class="st7" d="M872.6,844.1c-0.7-0.4-1.4-0.6-2.3-0.6s-1.7,0.2-2.4,0.6c-0.7,0.4-1.2,1-1.5,1.8c-0.4,0.7-0.5,1.6-0.5,2.5
		s0.2,1.7,0.5,2.5c0.3,0.7,0.8,1.3,1.5,1.8c0.7,0.4,1.5,0.6,2.4,0.6s1.6-0.2,2.3-0.6s1.2-1,1.6-1.8c0.4-0.8,0.6-1.6,0.6-2.5
		s-0.2-1.7-0.5-2.5C873.7,845.1,873.2,844.5,872.6,844.1L872.6,844.1z"/>
	<path class="st7" d="M849.5,844.1c-0.7-0.4-1.5-0.6-2.4-0.6s-1.7,0.2-2.4,0.6c-0.7,0.4-1.2,1-1.6,1.8c-0.4,0.7-0.6,1.6-0.6,2.5
		s0.2,1.7,0.6,2.5c0.4,0.7,0.9,1.3,1.6,1.8c0.7,0.4,1.5,0.6,2.4,0.6s1.7-0.2,2.4-0.6c0.7-0.4,1.2-1,1.6-1.8c0.4-0.7,0.6-1.6,0.6-2.5
		s-0.2-1.7-0.6-2.5C850.8,845.1,850.2,844.6,849.5,844.1z"/>
	<path class="st7" d="M1062.1,837.9c-0.8,0-1.4,0.3-1.8,0.8s-0.7,1.2-0.7,2s0.2,1.4,0.7,2c0.4,0.5,1.1,0.8,1.8,0.8s1.3-0.3,1.8-0.8
		s0.7-1.2,0.7-2s-0.2-1.4-0.7-2C1063.5,838.2,1062.9,837.9,1062.1,837.9z"/>
	<path class="st7" d="M684.8,844.1c-0.7-0.4-1.4-0.6-2.2-0.6s-1.5,0.2-2.2,0.6c-0.7,0.4-1.2,1-1.6,1.7c-0.4,0.7-0.6,1.6-0.6,2.6
		s0.2,1.9,0.6,2.6c0.4,0.7,0.9,1.3,1.6,1.7c0.7,0.4,1.4,0.6,2.2,0.6s1.6-0.2,2.2-0.6c0.7-0.4,1.2-1,1.6-1.7c0.4-0.7,0.6-1.6,0.6-2.5
		c0-1-0.2-1.9-0.6-2.6C686,845,685.5,844.5,684.8,844.1z"/>
	<path class="st7" d="M505,825v41h982v-41H505z M642,841.8c0.2,0.3,0.3,0.7,0.3,1c0,0.5-0.2,0.9-0.5,1.2s-0.7,0.5-1.2,0.5
		s-0.9-0.2-1.2-0.5s-0.5-0.8-0.5-1.2c0-0.3,0-0.6,0.1-0.9c0.1-0.3,0.2-0.6,0.3-1l1.2-4h2l-1.3,4.3
		C641.5,841.2,641.8,841.4,642,841.8L642,841.8z M647.3,841.8c0.2,0.3,0.3,0.7,0.3,1c0,0.5-0.2,0.9-0.5,1.2s-0.7,0.5-1.2,0.5
		s-0.9-0.2-1.2-0.5s-0.5-0.8-0.5-1.2c0-0.3,0-0.6,0.1-0.9s0.2-0.6,0.3-1l1.2-4h2l-1.3,4.3C646.8,841.2,647.1,841.4,647.3,841.8
		L647.3,841.8z M659.5,839H656v13.8h3.5v2.2H650v-2.2h3.5V839H650v-2.2h9.5V839z M665.2,855h-2.4v-19h2.4V855z M688.6,852.1
		c-0.6,1-1.3,1.8-2.3,2.4c-1,0.6-2.1,0.8-3.3,0.8c-0.7,0-1.3-0.1-1.9-0.3c-0.6-0.2-1.2-0.5-1.6-0.9s-0.9-0.9-1.2-1.4h-0.1v8.1h-2.4
		v-12.3c0-1.5,0.3-2.8,0.9-3.8c0.6-1,1.4-1.8,2.4-2.4c1-0.6,2.2-0.8,3.5-0.8c1,0,1.9,0.2,2.8,0.5s1.6,0.8,2.2,1.4s1.1,1.4,1.4,2.2
		c0.3,0.9,0.5,1.9,0.5,3C689.4,849.9,689.1,851.1,688.6,852.1L688.6,852.1z M698.9,843.8h-2.3c-0.6,0-1,0.2-1.3,0.5
		s-0.5,0.8-0.5,1.4v9.3h-2.4v-9.5c0-1.2,0.3-2.1,1-2.8s1.6-1,2.8-1h2.7V843.8z M703.5,855h-2.4v-13.3h2.4V855z M703.5,839.1
		c-0.3,0.3-0.7,0.5-1.1,0.5s-0.8-0.2-1.1-0.5s-0.5-0.7-0.5-1.1s0.2-0.8,0.5-1.1s0.7-0.5,1.1-0.5s0.8,0.2,1.1,0.5s0.5,0.7,0.5,1.1
		S703.8,838.8,703.5,839.1z M728.8,855h-2.4v-8c0-0.7-0.2-1.3-0.5-1.8s-0.7-1-1.3-1.3c-0.5-0.3-1.1-0.5-1.8-0.5s-1.3,0.2-1.8,0.5
		c-0.6,0.3-1,0.7-1.3,1.3c-0.3,0.5-0.5,1.1-0.5,1.8v8h-2.4v-8c0-0.7-0.2-1.3-0.5-1.8s-0.8-1-1.3-1.3s-1.2-0.5-1.8-0.5
		c-0.7,0-1.3,0.2-1.8,0.5s-0.9,0.7-1.3,1.3c-0.3,0.5-0.5,1.1-0.5,1.8v8h-2.4v-8c0-1,0.2-2,0.7-2.8s1.1-1.5,2-2s2-0.8,3.2-0.8
		c0.6,0,1.2,0.1,1.8,0.2c0.6,0.2,1.2,0.4,1.7,0.8c0.5,0.4,0.9,0.9,1.2,1.6l0,0c0.3-0.7,0.8-1.2,1.3-1.6c0.5-0.4,1.1-0.7,1.7-0.8
		c0.6-0.2,1.2-0.2,1.8-0.2c1.2,0,2.3,0.3,3.2,0.8s1.6,1.2,2,2c0.5,0.8,0.7,1.8,0.7,2.8v8H728.8L728.8,855z M744.9,851.9
		c-0.6,1-1.4,1.9-2.5,2.5c-1,0.6-2.2,0.9-3.6,0.9s-2.5-0.3-3.6-0.9c-1-0.6-1.9-1.4-2.5-2.5c-0.6-1-0.9-2.2-0.9-3.5s0.3-2.5,0.9-3.5
		c0.6-1,1.4-1.9,2.5-2.5c1-0.6,2.2-0.9,3.6-0.9s2.6,0.3,3.6,0.9c1,0.6,1.9,1.4,2.5,2.5c0.6,1,0.9,2.2,0.9,3.5
		S745.5,850.8,744.9,851.9z M763.7,843.8h-1.6c-0.9,0-1.7,0.2-2.4,0.6s-1.3,1-1.7,1.7s-0.6,1.5-0.6,2.3s0.2,1.6,0.6,2.3
		c0.4,0.7,1,1.2,1.7,1.7s1.5,0.6,2.4,0.6h1.6v2.1h-1.6c-1.4,0-2.6-0.3-3.7-0.9c-1.1-0.6-1.9-1.4-2.5-2.4s-0.9-2.1-0.9-3.4
		s0.3-2.4,0.9-3.4c0.6-1,1.5-1.8,2.5-2.4c1.1-0.6,2.3-0.9,3.7-0.9h1.6V843.8L763.7,843.8z M778.7,851.9c-0.6,1-1.4,1.9-2.5,2.5
		c-1,0.6-2.2,0.9-3.6,0.9s-2.5-0.3-3.6-0.9c-1-0.6-1.9-1.4-2.5-2.5c-0.6-1-0.9-2.2-0.9-3.5s0.3-2.5,0.9-3.5c0.6-1,1.4-1.9,2.5-2.5
		c1-0.6,2.2-0.9,3.6-0.9s2.6,0.3,3.6,0.9c1,0.6,1.9,1.4,2.5,2.5c0.6,1,0.9,2.2,0.9,3.5S779.3,850.8,778.7,851.9z M804.2,855h-2.4v-8
		c0-0.7-0.2-1.3-0.5-1.8s-0.7-1-1.3-1.3c-0.5-0.3-1.1-0.5-1.8-0.5s-1.3,0.2-1.8,0.5c-0.6,0.3-1,0.7-1.3,1.3
		c-0.3,0.5-0.5,1.1-0.5,1.8v8h-2.4v-8c0-0.7-0.2-1.3-0.5-1.8s-0.8-1-1.3-1.3s-1.2-0.5-1.8-0.5c-0.7,0-1.3,0.2-1.8,0.5
		s-0.9,0.7-1.3,1.3c-0.3,0.5-0.5,1.1-0.5,1.8v8h-2.4v-8c0-1,0.2-2,0.7-2.8s1.1-1.5,2-2s2-0.8,3.2-0.8c0.6,0,1.2,0.1,1.8,0.2
		c0.6,0.2,1.2,0.4,1.7,0.8c0.5,0.4,0.9,0.9,1.2,1.6l0,0c0.3-0.7,0.8-1.2,1.3-1.6c0.5-0.4,1.1-0.7,1.7-0.8c0.6-0.2,1.2-0.2,1.8-0.2
		c1.2,0,2.3,0.3,3.2,0.8s1.6,1.2,2,2c0.5,0.8,0.7,1.8,0.7,2.8v8H804.2L804.2,855z M820.6,852.1c-0.6,1-1.3,1.8-2.3,2.4
		c-1,0.6-2.1,0.8-3.3,0.8c-0.7,0-1.3-0.1-1.9-0.3c-0.6-0.2-1.2-0.5-1.6-0.9s-0.9-0.9-1.2-1.4h-0.1v8.1h-2.4v-12.3
		c0-1.5,0.3-2.8,0.9-3.8c0.6-1,1.4-1.8,2.4-2.4c1-0.6,2.2-0.8,3.5-0.8c1,0,1.9,0.2,2.8,0.5s1.6,0.8,2.2,1.4s1.1,1.4,1.4,2.2
		c0.3,0.9,0.5,1.9,0.5,3C821.5,849.9,821.2,851.1,820.6,852.1L820.6,852.1z M827,855h-2.4v-13.3h2.4V855z M826.9,839.1
		c-0.3,0.3-0.7,0.5-1.1,0.5s-0.8-0.2-1.1-0.5s-0.5-0.7-0.5-1.1s0.2-0.8,0.5-1.1s0.7-0.5,1.1-0.5s0.8,0.2,1.1,0.5s0.5,0.7,0.5,1.1
		S827.2,838.8,826.9,839.1z M838.4,843.8h-4.5v7.3c0,0.6,0.2,1,0.5,1.4c0.3,0.3,0.8,0.5,1.3,0.5h2.7v2.1h-3.1c-1.2,0-2.1-0.3-2.8-1
		s-1-1.6-1-2.8v-7.4h-2.3v-2.1h2.3v-3.3h2.4v3.3h4.5L838.4,843.8L838.4,843.8L838.4,843.8z M853.2,851.9c-0.6,1-1.4,1.9-2.5,2.5
		c-1,0.6-2.2,0.9-3.6,0.9s-2.5-0.3-3.6-0.9c-1-0.6-1.9-1.4-2.5-2.5c-0.6-1-0.9-2.2-0.9-3.5s0.3-2.5,0.9-3.5c0.6-1,1.4-1.9,2.5-2.5
		c1-0.6,2.2-0.9,3.6-0.9s2.6,0.3,3.6,0.9c1,0.6,1.9,1.4,2.5,2.5c0.6,1,0.9,2.2,0.9,3.5S853.8,850.8,853.2,851.9z M877.1,855h-2.4
		v-2.7h-0.1c-0.3,0.5-0.6,1-1.1,1.4s-1,0.8-1.7,1.1s-1.4,0.4-2.3,0.4c-1.3,0-2.4-0.3-3.3-0.9c-0.9-0.6-1.7-1.5-2.2-2.5
		c-0.5-1.1-0.8-2.2-0.8-3.5s0.3-2.5,0.8-3.5c0.6-1,1.4-1.9,2.4-2.5s2.3-0.9,3.7-0.9s2.6,0.3,3.6,0.9c1,0.6,1.8,1.4,2.3,2.5
		s0.8,2.2,0.8,3.5v6.7H877.1z M897.8,852.9c-0.3,0.6-0.8,1.1-1.4,1.5c-0.6,0.4-1.3,0.6-2.1,0.6h-6.6v-2.1h6.3c0.4,0,0.8-0.1,1.1-0.3
		s0.5-0.4,0.7-0.7s0.2-0.6,0.2-0.9s-0.1-0.6-0.2-0.9s-0.4-0.5-0.6-0.7c-0.3-0.2-0.6-0.2-1-0.2h-2.7c-0.8,0-1.6-0.1-2.2-0.4
		s-1.1-0.7-1.5-1.3s-0.5-1.2-0.5-2c0-0.7,0.2-1.3,0.5-1.9s0.8-1,1.4-1.4c0.6-0.4,1.3-0.5,2-0.5h6.1v2.1h-5.9c-0.5,0-1,0.2-1.3,0.5
		s-0.5,0.7-0.5,1.2c0,0.4,0.2,0.8,0.5,1.1s0.8,0.5,1.4,0.5h2.5c1,0,1.8,0.2,2.4,0.5c0.7,0.3,1.1,0.7,1.5,1.3s0.5,1.3,0.5,2.1
		C898.3,851.6,898.1,852.3,897.8,852.9L897.8,852.9z M913.8,851.9c-0.6,1-1.4,1.9-2.5,2.5c-1,0.6-2.2,0.9-3.6,0.9s-2.5-0.3-3.6-0.9
		c-1-0.6-1.9-1.4-2.5-2.5c-0.6-1-0.9-2.2-0.9-3.5s0.3-2.5,0.9-3.5c0.6-1,1.4-1.9,2.5-2.5c1-0.6,2.2-0.9,3.6-0.9s2.6,0.3,3.6,0.9
		c1,0.6,1.9,1.4,2.5,2.5c0.6,1,0.9,2.2,0.9,3.5S914.4,850.8,913.8,851.9z M924.2,843.8h-2.3c-0.6,0-1,0.2-1.3,0.5s-0.5,0.8-0.5,1.4
		v9.3h-2.4v-9.5c0-1.2,0.3-2.1,1-2.8s1.6-1,2.8-1h2.7V843.8z M939.1,852.1c-0.6,1-1.3,1.8-2.3,2.4c-1,0.6-2.1,0.8-3.3,0.8
		c-0.7,0-1.3-0.1-1.9-0.3c-0.6-0.2-1.2-0.5-1.6-0.9s-0.9-0.9-1.2-1.4h-0.1v8.1h-2.4v-12.3c0-1.5,0.3-2.8,0.9-3.8
		c0.6-1,1.4-1.8,2.4-2.4c1-0.6,2.2-0.8,3.5-0.8c1,0,1.9,0.2,2.8,0.5s1.6,0.8,2.2,1.4s1.1,1.4,1.4,2.2c0.3,0.9,0.5,1.9,0.5,3
		C939.9,849.9,939.6,851.1,939.1,852.1L939.1,852.1z M949.4,843.8h-2.3c-0.6,0-1,0.2-1.3,0.5s-0.5,0.8-0.5,1.4v9.3h-2.4v-9.5
		c0-1.2,0.3-2.1,1-2.8s1.6-1,2.8-1h2.7V843.8z M963.4,848.6c0,0.2,0,0.4-0.1,0.5h-9.9c0.1,0.8,0.4,1.5,0.8,2.1c0.5,0.6,1,1,1.7,1.3
		s1.5,0.4,2.3,0.4h3.5v2.1h-3.4c-1.5,0-2.7-0.3-3.9-0.8s-2-1.3-2.6-2.3s-0.9-2.2-0.9-3.5s0.3-2.5,0.8-3.5s1.3-1.9,2.2-2.5
		c1-0.6,2.1-0.9,3.3-0.9c1.4,0,2.5,0.3,3.4,0.9c0.9,0.6,1.6,1.4,2,2.4c0.5,1,0.7,2.1,0.7,3.3C963.4,848.2,963.4,848.4,963.4,848.6
		L963.4,848.6z M976.5,852.9c-0.3,0.6-0.8,1.1-1.4,1.5c-0.6,0.4-1.3,0.6-2.1,0.6h-6.6v-2.1h6.3c0.4,0,0.8-0.1,1.1-0.3
		s0.5-0.4,0.7-0.7s0.2-0.6,0.2-0.9s-0.1-0.6-0.2-0.9s-0.4-0.5-0.6-0.7c-0.3-0.2-0.6-0.2-1-0.2h-2.7c-0.8,0-1.6-0.1-2.2-0.4
		s-1.1-0.7-1.5-1.3s-0.5-1.2-0.5-2c0-0.7,0.2-1.3,0.5-1.9s0.8-1,1.4-1.4c0.6-0.4,1.3-0.5,2-0.5h6.1v2.1h-6c-0.5,0-1,0.2-1.3,0.5
		s-0.5,0.7-0.5,1.2c0,0.4,0.2,0.8,0.5,1.1s0.8,0.5,1.4,0.5h2.5c1,0,1.8,0.2,2.4,0.5c0.7,0.3,1.1,0.7,1.5,1.3s0.5,1.3,0.5,2.1
		C977,851.6,976.8,852.3,976.5,852.9L976.5,852.9z M993.1,855h-2.4v-2.7h-0.1c-0.3,0.5-0.6,1-1.1,1.4s-1,0.8-1.7,1.1
		s-1.4,0.4-2.3,0.4c-1.3,0-2.4-0.3-3.3-0.9c-0.9-0.6-1.7-1.5-2.2-2.5c-0.5-1.1-0.8-2.2-0.8-3.5s0.3-2.5,0.8-3.5
		c0.6-1,1.4-1.9,2.4-2.5s2.3-0.9,3.7-0.9s2.6,0.3,3.6,0.9c1,0.6,1.8,1.4,2.3,2.5s0.8,2.2,0.8,3.5v6.7H993.1z M998.6,839.2
		c-0.1,0.3-0.2,0.6-0.3,1l-1.2,4h-2l1.3-4.3c-0.4-0.1-0.7-0.3-0.9-0.7c-0.2-0.3-0.3-0.7-0.3-1c0-0.5,0.2-0.9,0.5-1.2
		s0.7-0.5,1.2-0.5s0.9,0.2,1.2,0.5c0.3,0.4,0.5,0.8,0.5,1.3C998.7,838.6,998.6,838.9,998.6,839.2z M1003.8,839.2
		c-0.1,0.3-0.2,0.6-0.3,1l-1.2,4h-2l1.3-4.3c-0.4-0.1-0.7-0.3-0.9-0.7c-0.2-0.3-0.3-0.7-0.3-1c0-0.5,0.2-0.9,0.5-1.2
		s0.7-0.5,1.2-0.5s0.9,0.2,1.2,0.5c0.3,0.4,0.5,0.8,0.5,1.3C1003.9,838.6,1003.9,838.9,1003.8,839.2z M1037.8,849.3h-26v-2.2h26
		V849.3z M1055.6,855h-9.5v-2.2h3.7V839h-3.5v-2.2h6v16h3.3V855z M1066.3,844.7h-1.7V843h-0.1c-0.3,0.6-0.6,1.1-1.1,1.4
		c-0.5,0.3-1,0.4-1.8,0.4s-1.5-0.2-2-0.6c-0.6-0.4-1-0.9-1.3-1.5s-0.5-1.3-0.5-2.1s0.2-1.5,0.5-2.1s0.8-1.1,1.4-1.5s1.4-0.6,2.3-0.6
		s1.7,0.2,2.3,0.5s1.1,0.9,1.4,1.5s0.5,1.3,0.5,2.1L1066.3,844.7L1066.3,844.7L1066.3,844.7z M1078.4,839h-3.5v13.8h3.5v2.2h-9.5
		v-2.2h3.5V839h-3.5v-2.2h9.5V839z"/>
</g>
<rect x="505" y="777" class="st7" width="41" height="71"/>
<circle class="st0" cx="415.5" cy="3057.5" r="69.5"/>
<circle class="st1" cx="75" cy="2501" r="60"/>
<circle class="st10" cx="1788.3" cy="4215" r="76.7"/>
<circle class="st9" cx="1525.6" cy="4754.6" r="52.4"/>
<g>
	<path class="st4" d="M695.1,2200.1c-0.7-0.4-1.4-0.6-2.3-0.6c-0.9,0-1.7,0.2-2.4,0.6c-0.7,0.4-1.2,1-1.5,1.8
		c-0.4,0.7-0.5,1.6-0.5,2.5c0,0.9,0.2,1.7,0.5,2.5c0.3,0.7,0.8,1.3,1.5,1.8c0.7,0.4,1.5,0.6,2.4,0.6c0.9,0,1.6-0.2,2.3-0.6
		c0.7-0.4,1.2-1,1.6-1.8c0.4-0.8,0.6-1.6,0.6-2.5c0-0.9-0.2-1.7-0.5-2.5C696.2,2201.1,695.7,2200.5,695.1,2200.1z"/>
	<path class="st4" d="M727.6,2200.1c-0.7-0.4-1.4-0.6-2.3-0.6c-0.9,0-1.7,0.2-2.4,0.6c-0.7,0.4-1.2,1-1.5,1.8
		c-0.4,0.7-0.5,1.6-0.5,2.5c0,0.9,0.2,1.7,0.5,2.5c0.3,0.7,0.8,1.3,1.5,1.8c0.7,0.4,1.5,0.6,2.4,0.6c0.9,0,1.6-0.2,2.3-0.6
		c0.7-0.4,1.2-1,1.6-1.8c0.4-0.8,0.6-1.6,0.6-2.5c0-0.9-0.2-1.7-0.5-2.5C728.8,2201.1,728.3,2200.5,727.6,2200.1z"/>
	<path class="st4" d="M793.3,2200.1c-0.7-0.4-1.5-0.6-2.4-0.6c-0.9,0-1.7,0.2-2.4,0.6c-0.7,0.4-1.2,1-1.6,1.8
		c-0.4,0.7-0.6,1.6-0.6,2.5c0,0.9,0.2,1.7,0.6,2.5c0.4,0.7,0.9,1.3,1.6,1.8c0.7,0.4,1.5,0.6,2.4,0.6c0.9,0,1.7-0.2,2.4-0.6
		c0.7-0.4,1.2-1,1.6-1.8c0.4-0.7,0.6-1.6,0.6-2.5c0-0.9-0.2-1.7-0.6-2.5C794.5,2201.1,793.9,2200.5,793.3,2200.1z"/>
	<path class="st4" d="M753.4,2201.3c-0.2-0.4-0.4-0.7-0.7-1s-0.6-0.5-1.1-0.7c-0.4-0.2-0.9-0.3-1.5-0.3c-0.6,0-1.1,0.1-1.6,0.4
		c-0.5,0.2-0.9,0.5-1.2,0.9c-0.3,0.4-0.6,0.8-0.8,1.3c-0.2,0.5-0.3,1-0.3,1.5h7.6c0-0.3,0-0.7-0.1-1.1
		C753.7,2202,753.6,2201.7,753.4,2201.3z"/>
	<path class="st4" d="M667.5,2201.3c-0.2-0.4-0.4-0.7-0.7-1s-0.6-0.5-1.1-0.7c-0.4-0.2-0.9-0.3-1.5-0.3c-0.6,0-1.1,0.1-1.6,0.4
		c-0.5,0.2-0.9,0.5-1.2,0.9c-0.3,0.4-0.6,0.8-0.8,1.3c-0.2,0.5-0.3,1-0.3,1.5h7.6c0-0.3,0-0.7-0.1-1.1
		C667.8,2202,667.7,2201.7,667.5,2201.3z"/>
	<path class="st4" d="M486.1,2180v43h740.7v-43H486.1z M636.7,2197.7c0.2,0.3,0.3,0.7,0.3,1c0,0.5-0.2,0.9-0.5,1.2s-0.7,0.5-1.2,0.5
		c-0.5,0-0.9-0.2-1.2-0.5c-0.3-0.3-0.5-0.8-0.5-1.2c0-0.3,0-0.6,0.1-0.9c0.1-0.3,0.2-0.6,0.3-1l1.2-4h2l-1.3,4.3
		C636.2,2197.2,636.5,2197.4,636.7,2197.7z M642,2197.7c0.2,0.3,0.3,0.7,0.3,1c0,0.5-0.2,0.9-0.5,1.2c-0.3,0.3-0.7,0.5-1.2,0.5
		c-0.5,0-0.9-0.2-1.2-0.5c-0.3-0.3-0.5-0.8-0.5-1.2c0-0.3,0-0.6,0.1-0.9s0.2-0.6,0.3-1l1.2-4h2l-1.3,4.3
		C641.5,2197.2,641.8,2197.4,642,2197.7z M655.8,2195h-2.3c-1,0-1.9,0.2-2.7,0.5c-0.8,0.3-1.6,0.8-2.2,1.5c-0.6,0.6-1.1,1.4-1.4,2.2
		s-0.5,1.7-0.5,2.7c0,1,0.2,1.9,0.5,2.7s0.8,1.6,1.4,2.2c0.6,0.6,1.3,1.1,2.2,1.5s1.7,0.5,2.7,0.5h2.3v2.2h-2.3
		c-1.4,0-2.7-0.2-3.8-0.7s-2.1-1.1-3-2c-0.8-0.8-1.5-1.8-1.9-2.9c-0.4-1.1-0.7-2.3-0.7-3.5s0.2-2.4,0.7-3.5c0.4-1.1,1.1-2.1,1.9-2.9
		s1.8-1.5,3-2s2.4-0.7,3.8-0.7h2.3V2195z M670.4,2204.6c0,0.2,0,0.4-0.1,0.5h-9.9c0.1,0.8,0.4,1.5,0.8,2.1c0.5,0.6,1,1,1.7,1.3
		s1.5,0.4,2.3,0.4h3.5v2.1h-3.4c-1.5,0-2.7-0.3-3.9-0.8c-1.1-0.5-2-1.3-2.6-2.3c-0.6-1-0.9-2.2-0.9-3.5c0-1.3,0.3-2.5,0.8-3.5
		c0.5-1,1.3-1.9,2.2-2.5c1-0.6,2.1-0.9,3.3-0.9c1.4,0,2.5,0.3,3.4,0.9c0.9,0.6,1.6,1.4,2,2.4c0.5,1,0.7,2.1,0.7,3.3
		C670.4,2204.2,670.4,2204.4,670.4,2204.6z M682.8,2211h-2.4v-19h2.4V2211z M699.5,2211h-2.4v-2.7h-0.1c-0.3,0.5-0.6,1-1.1,1.4
		c-0.4,0.5-1,0.8-1.7,1.1c-0.7,0.3-1.4,0.4-2.3,0.4c-1.3,0-2.4-0.3-3.3-0.9c-0.9-0.6-1.7-1.5-2.2-2.5c-0.5-1.1-0.8-2.2-0.8-3.5
		c0-1.3,0.3-2.5,0.8-3.5s1.4-1.9,2.4-2.5s2.3-0.9,3.7-0.9c1.4,0,2.6,0.3,3.6,0.9c1,0.6,1.8,1.4,2.3,2.5s0.8,2.2,0.8,3.5V2211z
		 M718.1,2194h-2.8c-0.6,0-1,0.2-1.4,0.5c-0.3,0.3-0.5,0.8-0.5,1.4v1.8h4.1v2.1h-4.1v11.2H711v-11.2h-2.3v-2.1h2.3v-2
		c0-1.2,0.3-2.1,1-2.8c0.7-0.7,1.6-1,2.8-1h3.3V2194z M732.1,2211h-2.4v-2.7h-0.1c-0.3,0.5-0.6,1-1.1,1.4c-0.4,0.5-1,0.8-1.7,1.1
		c-0.7,0.3-1.4,0.4-2.3,0.4c-1.3,0-2.4-0.3-3.3-0.9c-0.9-0.6-1.7-1.5-2.2-2.5c-0.5-1.1-0.8-2.2-0.8-3.5c0-1.3,0.3-2.5,0.8-3.5
		s1.4-1.9,2.4-2.5s2.3-0.9,3.7-0.9c1.4,0,2.6,0.3,3.6,0.9c1,0.6,1.8,1.4,2.3,2.5s0.8,2.2,0.8,3.5V2211z M742.3,2199.7h-2.3
		c-0.6,0-1,0.2-1.3,0.5c-0.3,0.3-0.5,0.8-0.5,1.4v9.3h-2.4v-9.5c0-1.2,0.3-2.1,1-2.8s1.6-1,2.8-1h2.7V2199.7z M756.3,2204.6
		c0,0.2,0,0.4-0.1,0.5h-9.9c0.1,0.8,0.4,1.5,0.8,2.1c0.5,0.6,1,1,1.7,1.3s1.5,0.4,2.3,0.4h3.5v2.1h-3.4c-1.5,0-2.7-0.3-3.9-0.8
		c-1.1-0.5-2-1.3-2.6-2.3c-0.6-1-0.9-2.2-0.9-3.5c0-1.3,0.3-2.5,0.8-3.5c0.5-1,1.3-1.9,2.2-2.5c1-0.6,2.1-0.9,3.3-0.9
		c1.4,0,2.5,0.3,3.4,0.9c0.9,0.6,1.6,1.4,2,2.4c0.5,1,0.7,2.1,0.7,3.3C756.3,2204.2,756.3,2204.4,756.3,2204.6z M780.8,2211h-2.4v-8
		c0-0.7-0.2-1.3-0.5-1.8s-0.7-1-1.3-1.3c-0.5-0.3-1.1-0.5-1.8-0.5c-0.7,0-1.3,0.2-1.8,0.5c-0.6,0.3-1,0.7-1.3,1.3
		c-0.3,0.5-0.5,1.1-0.5,1.8v8h-2.4v-8c0-0.7-0.2-1.3-0.5-1.8c-0.3-0.5-0.8-1-1.3-1.3c-0.5-0.3-1.2-0.5-1.8-0.5
		c-0.7,0-1.3,0.2-1.8,0.5c-0.5,0.3-0.9,0.7-1.3,1.3s-0.5,1.1-0.5,1.8v8h-2.4v-8c0-1,0.2-2,0.7-2.8c0.5-0.8,1.1-1.5,2-2
		c0.9-0.5,2-0.8,3.2-0.8c0.6,0,1.2,0.1,1.8,0.2c0.6,0.2,1.2,0.4,1.7,0.8c0.5,0.4,0.9,0.9,1.2,1.6h0c0.3-0.7,0.8-1.2,1.3-1.6
		c0.5-0.4,1.1-0.7,1.7-0.8c0.6-0.2,1.2-0.2,1.8-0.2c1.2,0,2.3,0.3,3.2,0.8c0.9,0.5,1.6,1.2,2,2c0.5,0.8,0.7,1.8,0.7,2.8V2211z
		 M796.9,2207.8c-0.6,1-1.4,1.9-2.5,2.5c-1,0.6-2.2,0.9-3.6,0.9s-2.5-0.3-3.6-0.9c-1-0.6-1.9-1.4-2.5-2.5c-0.6-1-0.9-2.2-0.9-3.5
		c0-1.3,0.3-2.5,0.9-3.5c0.6-1,1.4-1.9,2.5-2.5s2.2-0.9,3.6-0.9s2.6,0.3,3.6,0.9s1.9,1.4,2.5,2.5s0.9,2.2,0.9,3.5
		C797.8,2205.6,797.5,2206.8,796.9,2207.8z M802.3,2195.2c-0.1,0.3-0.2,0.6-0.3,1l-1.2,4h-2l1.3-4.3c-0.4-0.1-0.7-0.3-0.9-0.7
		c-0.2-0.3-0.3-0.7-0.3-1c0-0.5,0.2-0.9,0.5-1.2c0.3-0.3,0.7-0.5,1.2-0.5c0.5,0,0.9,0.2,1.2,0.5c0.3,0.4,0.5,0.8,0.5,1.3
		C802.4,2194.6,802.3,2194.9,802.3,2195.2z M807.5,2195.2c-0.1,0.3-0.2,0.6-0.3,1l-1.2,4h-2l1.3-4.3c-0.4-0.1-0.7-0.3-0.9-0.7
		s-0.3-0.7-0.3-1c0-0.5,0.2-0.9,0.5-1.2c0.3-0.3,0.7-0.5,1.2-0.5c0.5,0,0.9,0.2,1.2,0.5c0.3,0.4,0.5,0.8,0.5,1.3
		C807.6,2194.6,807.6,2194.9,807.5,2195.2z M841.5,2205.3h-26v-2.2h26V2205.3z M861.6,2211h-9c-0.6,0-1.2-0.1-1.7-0.4
		c-0.5-0.3-0.8-0.6-1.1-1.1c-0.2-0.4-0.4-0.9-0.4-1.5c0-0.5,0.1-1,0.4-1.5c0.3-0.5,0.6-0.9,1.1-1.2l5.9-4.2c0.6-0.4,1-0.9,1.3-1.4
		c0.3-0.5,0.4-1.1,0.4-1.6c0-0.6-0.1-1.1-0.4-1.5s-0.7-0.8-1.2-1.1c-0.5-0.3-1.2-0.4-1.9-0.4h-4.7v-2.2h5c1.2,0,2.3,0.2,3.1,0.7
		c0.9,0.5,1.5,1.1,2,1.9c0.5,0.8,0.7,1.7,0.7,2.6c0,1-0.2,1.8-0.7,2.7c-0.4,0.8-1.1,1.6-2.1,2.2l-5.9,4.1c-0.2,0.1-0.3,0.2-0.4,0.4
		c-0.1,0.2-0.1,0.3-0.1,0.5c0,0.3,0.1,0.5,0.3,0.6c0.2,0.2,0.4,0.2,0.8,0.2h8.6V2211z M872.4,2200.7h-1.7v-1.7h-0.1
		c-0.3,0.6-0.6,1.1-1.1,1.4c-0.5,0.3-1,0.4-1.8,0.4c-0.8,0-1.5-0.2-2-0.6c-0.6-0.4-1-0.9-1.3-1.5c-0.3-0.6-0.5-1.3-0.5-2.1
		c0-0.8,0.2-1.5,0.5-2.1s0.8-1.1,1.4-1.5c0.6-0.4,1.4-0.6,2.3-0.6c0.9,0,1.7,0.2,2.3,0.5c0.6,0.4,1.1,0.9,1.4,1.5
		c0.3,0.6,0.5,1.3,0.5,2.1V2200.7z M884.6,2195h-3.5v13.8h3.5v2.2h-9.5v-2.2h3.5V2195h-3.5v-2.2h9.5V2195z"/>
	<path class="st4" d="M868.3,2193.9c-0.8,0-1.4,0.3-1.8,0.8c-0.4,0.5-0.7,1.2-0.7,1.9c0,0.8,0.2,1.4,0.7,2c0.4,0.5,1.1,0.8,1.8,0.8
		c0.7,0,1.3-0.3,1.8-0.8c0.5-0.5,0.7-1.2,0.7-2c0-0.8-0.2-1.4-0.6-1.9C869.6,2194.1,869,2193.9,868.3,2193.9z"/>
</g>
<g>
	<path class="st5" d="M1341.3,3167.9c-0.8,0-1.4,0.3-1.8,0.8s-0.7,1.2-0.7,2c0,0.8,0.2,1.4,0.7,2c0.4,0.5,1.1,0.8,1.8,0.8
		c0.7,0,1.3-0.2,1.8-0.8c0.5-0.5,0.7-1.2,0.7-2c0-0.8-0.2-1.4-0.7-2S1342,3167.9,1341.3,3167.9z"/>
	<path class="st5" d="M1083.6,3174.1c-0.7-0.4-1.5-0.6-2.4-0.6c-0.9,0-1.7,0.2-2.4,0.6c-0.7,0.4-1.2,1-1.6,1.8
		c-0.4,0.7-0.6,1.6-0.6,2.5c0,0.9,0.2,1.7,0.6,2.5c0.4,0.7,0.9,1.3,1.6,1.8s1.5,0.7,2.4,0.7c0.9,0,1.7-0.2,2.4-0.7s1.2-1,1.6-1.8
		c0.4-0.7,0.6-1.6,0.6-2.5c0-0.9-0.2-1.7-0.6-2.5C1084.8,3175.1,1084.3,3174.5,1083.6,3174.1z"/>
	<path class="st5" d="M1376.2,3174.1c-0.7-0.4-1.4-0.6-2.4-0.6c-0.9,0-1.7,0.2-2.3,0.6c-0.6,0.4-1.2,1-1.5,1.7s-0.5,1.6-0.5,2.5
		c0,0.9,0.2,1.7,0.5,2.4c0.4,0.7,0.9,1.3,1.5,1.7c0.7,0.4,1.4,0.6,2.3,0.6c0.9,0,1.7-0.2,2.3-0.6s1.2-1,1.6-1.7
		c0.4-0.7,0.6-1.5,0.6-2.4c0-0.9-0.2-1.7-0.5-2.5C1377.3,3175.1,1376.8,3174.5,1376.2,3174.1z"/>
	<path class="st5" d="M1212.5,3174.1c-0.7-0.4-1.4-0.6-2.4-0.6c-0.9,0-1.7,0.2-2.3,0.6c-0.6,0.4-1.2,1-1.5,1.7s-0.5,1.6-0.5,2.5
		c0,0.9,0.2,1.7,0.5,2.4c0.4,0.7,0.9,1.3,1.5,1.7c0.7,0.4,1.4,0.6,2.3,0.6c0.9,0,1.7-0.2,2.3-0.6s1.2-1,1.6-1.7
		c0.4-0.7,0.6-1.5,0.6-2.4c0-0.9-0.2-1.7-0.5-2.5C1213.7,3175.1,1213.2,3174.5,1212.5,3174.1z"/>
	<path class="st5" d="M1195.8,3174.1c-0.7-0.4-1.4-0.6-2.3-0.6c-0.9,0-1.7,0.2-2.4,0.6c-0.7,0.4-1.2,1-1.5,1.8
		c-0.4,0.7-0.5,1.6-0.5,2.5c0,0.9,0.2,1.7,0.5,2.5c0.3,0.7,0.8,1.3,1.5,1.8c0.7,0.4,1.5,0.7,2.4,0.7c0.9,0,1.6-0.2,2.3-0.6
		c0.7-0.4,1.2-1,1.6-1.8c0.4-0.8,0.6-1.6,0.6-2.5c0-0.9-0.2-1.7-0.5-2.5S1196.5,3174.5,1195.8,3174.1z"/>
	<path class="st5" d="M1124.7,3174.1c-0.7-0.4-1.5-0.6-2.4-0.6c-0.9,0-1.7,0.2-2.4,0.6c-0.7,0.4-1.2,1-1.6,1.8
		c-0.4,0.7-0.6,1.6-0.6,2.5c0,0.9,0.2,1.7,0.6,2.5c0.4,0.7,0.9,1.3,1.6,1.8s1.5,0.7,2.4,0.7c0.9,0,1.7-0.2,2.4-0.7s1.2-1,1.6-1.8
		c0.4-0.7,0.6-1.6,0.6-2.5c0-0.9-0.2-1.7-0.6-2.5C1125.9,3175.1,1125.4,3174.5,1124.7,3174.1z"/>
	<path class="st5" d="M1418.2,3174c-0.7-0.4-1.4-0.6-2.2-0.6c-0.8,0-1.5,0.2-2.2,0.6c-0.7,0.4-1.2,1-1.6,1.7
		c-0.4,0.7-0.6,1.6-0.6,2.6c0,1,0.2,1.9,0.6,2.6c0.4,0.7,0.9,1.3,1.6,1.7c0.7,0.4,1.4,0.6,2.2,0.6c0.8,0,1.6-0.2,2.2-0.6
		c0.7-0.4,1.2-1,1.6-1.7c0.4-0.7,0.6-1.6,0.6-2.5c0-1-0.2-1.9-0.6-2.6S1418.8,3174.4,1418.2,3174z"/>
	<path class="st5" d="M1147.7,3174.1c-0.7-0.4-1.4-0.6-2.3-0.6c-0.9,0-1.7,0.2-2.4,0.6c-0.7,0.4-1.2,1-1.5,1.8
		c-0.4,0.7-0.5,1.6-0.5,2.5c0,0.9,0.2,1.7,0.5,2.5c0.3,0.7,0.8,1.3,1.5,1.8c0.7,0.4,1.5,0.7,2.4,0.7c0.9,0,1.6-0.2,2.3-0.6
		c0.7-0.4,1.2-1,1.6-1.8c0.4-0.8,0.6-1.6,0.6-2.5c0-0.9-0.2-1.7-0.5-2.5S1148.4,3174.5,1147.7,3174.1z"/>
	<path class="st5" d="M1241.8,3174.1c-0.7-0.4-1.5-0.6-2.4-0.6c-0.9,0-1.7,0.2-2.4,0.6c-0.7,0.4-1.2,1-1.6,1.8
		c-0.4,0.7-0.6,1.6-0.6,2.5c0,0.9,0.2,1.7,0.6,2.5c0.4,0.7,0.9,1.3,1.6,1.8s1.5,0.7,2.4,0.7c0.9,0,1.7-0.2,2.4-0.7s1.2-1,1.6-1.8
		c0.4-0.7,0.6-1.6,0.6-2.5c0-0.9-0.2-1.7-0.6-2.5C1243,3175.1,1242.4,3174.5,1241.8,3174.1z"/>
	<path class="st5" d="M814.1,3154.9v41.1H1539v-41.1H814.1z M1016.1,3171.7c0.2,0.3,0.3,0.7,0.3,1c0,0.5-0.2,0.9-0.5,1.2
		c-0.3,0.3-0.7,0.5-1.2,0.5c-0.5,0-0.9-0.2-1.2-0.5c-0.3-0.3-0.5-0.8-0.5-1.2c0-0.3,0-0.6,0.1-0.9c0.1-0.3,0.2-0.6,0.3-1l1.2-4h2
		l-1.3,4.3C1015.6,3171.2,1015.9,3171.4,1016.1,3171.7z M1021.4,3171.7c0.2,0.3,0.3,0.7,0.3,1c0,0.5-0.2,0.9-0.5,1.2
		c-0.3,0.3-0.7,0.5-1.2,0.5c-0.5,0-0.9-0.2-1.2-0.5s-0.5-0.8-0.5-1.2c0-0.3,0-0.6,0.1-0.9c0.1-0.3,0.2-0.6,0.3-1l1.2-4h2l-1.3,4.3
		C1020.9,3171.2,1021.2,3171.4,1021.4,3171.7z M1033.7,3169h-3.5v13.8h3.5v2.2h-9.5v-2.2h3.5V3169h-3.5v-2.2h9.5V3169z M1039.3,3185
		h-2.4v-19h2.4V3185z M1056.4,3173.7h-2.3c-0.6,0-1,0.2-1.3,0.5c-0.3,0.3-0.5,0.8-0.5,1.4v9.3h-2.4v-9.5c0-1.2,0.3-2.1,1-2.8
		c0.7-0.7,1.6-1,2.8-1h2.7V3173.7z M1061,3185h-2.4v-13.3h2.4V3185z M1061,3169.1c-0.3,0.3-0.7,0.5-1.1,0.5s-0.8-0.2-1.1-0.5
		c-0.3-0.3-0.5-0.7-0.5-1.1s0.2-0.8,0.5-1.1c0.3-0.3,0.7-0.5,1.1-0.5s0.8,0.2,1.1,0.5s0.5,0.7,0.5,1.1S1061.3,3168.8,1061,3169.1z
		 M1072.5,3173.7h-4.5v7.3c0,0.6,0.2,1,0.5,1.4c0.3,0.3,0.8,0.5,1.3,0.5h2.7v2.1h-3.1c-1.2,0-2.1-0.3-2.8-1c-0.7-0.7-1-1.6-1-2.8
		v-7.4h-2.3v-2.1h2.3v-3.3h2.4v3.3h4.5V3173.7z M1087.3,3181.8c-0.6,1-1.4,1.9-2.5,2.5s-2.2,0.9-3.6,0.9c-1.4,0-2.5-0.3-3.6-0.9
		s-1.9-1.4-2.5-2.5s-0.9-2.2-0.9-3.5c0-1.3,0.3-2.5,0.9-3.5s1.4-1.9,2.5-2.5s2.2-0.9,3.6-0.9c1.4,0,2.6,0.3,3.6,0.9s1.9,1.4,2.5,2.5
		c0.6,1,0.9,2.2,0.9,3.5C1088.2,3179.6,1087.9,3180.8,1087.3,3181.8z M1097.7,3173.7h-2.3c-0.6,0-1,0.2-1.3,0.5
		c-0.3,0.3-0.5,0.8-0.5,1.4v9.3h-2.4v-9.5c0-1.2,0.3-2.1,1-2.8c0.7-0.7,1.6-1,2.8-1h2.7V3173.7z M1112.3,3185h-2.4v-7.6
		c0-0.8-0.2-1.5-0.5-2.1c-0.4-0.6-0.8-1-1.4-1.3c-0.6-0.3-1.2-0.5-1.9-0.5c-0.7,0-1.3,0.2-1.9,0.5c-0.6,0.3-1,0.8-1.4,1.3
		c-0.4,0.6-0.5,1.3-0.5,2.1v7.6h-2.4v-7.7c0-1.2,0.3-2.2,0.8-3.1c0.5-0.9,1.3-1.6,2.2-2.1c0.9-0.5,2-0.7,3.2-0.7
		c1.2,0,2.3,0.2,3.2,0.7c0.9,0.5,1.7,1.2,2.2,2.1c0.5,0.9,0.8,1.9,0.8,3.1V3185z M1128.4,3181.8c-0.6,1-1.4,1.9-2.5,2.5
		s-2.2,0.9-3.6,0.9c-1.4,0-2.5-0.3-3.6-0.9s-1.9-1.4-2.5-2.5s-0.9-2.2-0.9-3.5c0-1.3,0.3-2.5,0.9-3.5s1.4-1.9,2.5-2.5
		s2.2-0.9,3.6-0.9c1.4,0,2.6,0.3,3.6,0.9s1.9,1.4,2.5,2.5c0.6,1,0.9,2.2,0.9,3.5C1129.3,3179.6,1129,3180.8,1128.4,3181.8z
		 M1152.2,3185h-2.4v-2.7h-0.1c-0.3,0.5-0.6,1-1.1,1.4c-0.4,0.5-1,0.8-1.7,1.1c-0.7,0.3-1.4,0.4-2.3,0.4c-1.3,0-2.4-0.3-3.3-0.9
		c-0.9-0.6-1.7-1.5-2.2-2.5c-0.5-1.1-0.8-2.2-0.8-3.5c0-1.3,0.3-2.5,0.8-3.5s1.4-1.9,2.4-2.5s2.3-0.9,3.7-0.9c1.4,0,2.6,0.3,3.6,0.9
		c1,0.6,1.8,1.4,2.3,2.5s0.8,2.2,0.8,3.5V3185z M1172.9,3182.9c-0.3,0.6-0.8,1.1-1.4,1.5s-1.3,0.6-2.1,0.6h-6.6v-2.1h6.3
		c0.4,0,0.8-0.1,1.1-0.3c0.3-0.2,0.5-0.4,0.7-0.7c0.2-0.3,0.2-0.6,0.2-0.9c0-0.3-0.1-0.6-0.2-0.9c-0.1-0.3-0.4-0.5-0.6-0.7
		c-0.3-0.2-0.6-0.2-1-0.2h-2.7c-0.8,0-1.6-0.1-2.2-0.4c-0.6-0.3-1.1-0.7-1.5-1.3c-0.4-0.6-0.5-1.2-0.5-2c0-0.7,0.2-1.3,0.5-1.9
		c0.3-0.6,0.8-1,1.4-1.4c0.6-0.4,1.3-0.5,2-0.5h6.1v2.1h-5.9c-0.5,0-1,0.2-1.3,0.5c-0.3,0.3-0.5,0.7-0.5,1.2c0,0.4,0.2,0.8,0.5,1.1
		c0.3,0.3,0.8,0.5,1.4,0.5h2.5c1,0,1.8,0.2,2.4,0.5c0.7,0.3,1.1,0.7,1.5,1.3s0.5,1.3,0.5,2.1
		C1173.5,3181.6,1173.3,3182.3,1172.9,3182.9z M1184.6,3173.7h-1.6c-0.9,0-1.7,0.2-2.4,0.6c-0.7,0.4-1.3,1-1.7,1.7s-0.6,1.5-0.6,2.3
		c0,0.8,0.2,1.6,0.6,2.3s1,1.2,1.7,1.7c0.7,0.4,1.5,0.6,2.4,0.6h1.6v2.1h-1.6c-1.4,0-2.6-0.3-3.7-0.9c-1.1-0.6-1.9-1.4-2.5-2.4
		c-0.6-1-0.9-2.1-0.9-3.4s0.3-2.4,0.9-3.4c0.6-1,1.5-1.8,2.5-2.4c1.1-0.6,2.3-0.9,3.7-0.9h1.6V3173.7z M1200.3,3185h-2.4v-2.7h-0.1
		c-0.3,0.5-0.6,1-1.1,1.4c-0.4,0.5-1,0.8-1.7,1.1c-0.7,0.3-1.4,0.4-2.3,0.4c-1.3,0-2.4-0.3-3.3-0.9c-0.9-0.6-1.7-1.5-2.2-2.5
		c-0.5-1.1-0.8-2.2-0.8-3.5c0-1.3,0.3-2.5,0.8-3.5s1.4-1.9,2.4-2.5s2.3-0.9,3.7-0.9c1.4,0,2.6,0.3,3.6,0.9c1,0.6,1.8,1.4,2.3,2.5
		s0.8,2.2,0.8,3.5V3185z M1217,3186.3c0,1.2-0.4,2.2-1.1,2.9c-0.7,0.7-1.7,1.1-2.9,1.1h-6.9v-2.1h6.5c0.6,0,1.1-0.2,1.5-0.6
		c0.4-0.4,0.5-0.9,0.5-1.5v-3.6h-0.1c-0.3,0.5-0.7,1-1.2,1.4c-0.5,0.4-1,0.7-1.6,0.9c-0.6,0.2-1.3,0.4-2.1,0.4
		c-1.2,0-2.3-0.3-3.3-0.9c-1-0.6-1.7-1.4-2.2-2.4c-0.5-1-0.8-2.2-0.8-3.5c0-1.3,0.3-2.5,0.8-3.5c0.5-1,1.3-1.9,2.3-2.5
		c1-0.6,2.2-0.9,3.7-0.9c1.4,0,2.6,0.3,3.6,0.9c1,0.6,1.8,1.4,2.4,2.5c0.6,1,0.8,2.3,0.8,3.7V3186.3z M1223.1,3185h-2.4v-19h2.4
		V3185z M1229.4,3185h-2.4v-13.3h2.4V3185z M1229.3,3169.1c-0.3,0.3-0.7,0.5-1.1,0.5s-0.8-0.2-1.1-0.5c-0.3-0.3-0.5-0.7-0.5-1.1
		s0.2-0.8,0.5-1.1c0.3-0.3,0.7-0.5,1.1-0.5s0.8,0.2,1.1,0.5s0.5,0.7,0.5,1.1S1229.6,3168.8,1229.3,3169.1z M1245.4,3181.8
		c-0.6,1-1.4,1.9-2.5,2.5s-2.2,0.9-3.6,0.9c-1.4,0-2.5-0.3-3.6-0.9s-1.9-1.4-2.5-2.5s-0.9-2.2-0.9-3.5c0-1.3,0.3-2.5,0.9-3.5
		s1.4-1.9,2.5-2.5s2.2-0.9,3.6-0.9c1.4,0,2.6,0.3,3.6,0.9s1.9,1.4,2.5,2.5c0.6,1,0.9,2.2,0.9,3.5
		C1246.3,3179.6,1246,3180.8,1245.4,3181.8z M1261.8,3185h-2.4v-7.6c0-0.8-0.2-1.5-0.5-2.1c-0.4-0.6-0.8-1-1.4-1.3
		c-0.6-0.3-1.2-0.5-1.9-0.5c-0.7,0-1.3,0.2-1.9,0.5c-0.6,0.3-1,0.8-1.4,1.3c-0.4,0.6-0.5,1.3-0.5,2.1v7.6h-2.4v-7.7
		c0-1.2,0.3-2.2,0.8-3.1c0.5-0.9,1.3-1.6,2.2-2.1c0.9-0.5,2-0.7,3.2-0.7c1.2,0,2.3,0.2,3.2,0.7c0.9,0.5,1.7,1.2,2.2,2.1
		c0.5,0.9,0.8,1.9,0.8,3.1V3185z M1268,3185h-2.4v-13.3h2.4V3185z M1267.9,3169.1c-0.3,0.3-0.7,0.5-1.1,0.5s-0.8-0.2-1.1-0.5
		c-0.3-0.3-0.5-0.7-0.5-1.1s0.2-0.8,0.5-1.1c0.3-0.3,0.7-0.5,1.1-0.5s0.8,0.2,1.1,0.5s0.5,0.7,0.5,1.1S1268.2,3168.8,1267.9,3169.1z
		 M1275.2,3169.2c-0.1,0.3-0.2,0.6-0.3,1l-1.2,4h-2l1.3-4.3c-0.4-0.1-0.7-0.3-0.9-0.7c-0.2-0.3-0.3-0.7-0.3-1c0-0.5,0.2-0.9,0.5-1.2
		c0.3-0.3,0.7-0.5,1.2-0.5c0.5,0,0.9,0.2,1.2,0.5c0.3,0.4,0.5,0.8,0.5,1.3C1275.3,3168.6,1275.3,3168.9,1275.2,3169.2z
		 M1280.5,3169.2c-0.1,0.3-0.2,0.6-0.3,1l-1.2,4h-2l1.3-4.3c-0.4-0.1-0.7-0.3-0.9-0.7c-0.2-0.3-0.3-0.7-0.3-1c0-0.5,0.2-0.9,0.5-1.2
		c0.3-0.3,0.7-0.5,1.2-0.5c0.5,0,0.9,0.2,1.2,0.5c0.3,0.4,0.5,0.8,0.5,1.3C1280.6,3168.6,1280.5,3168.9,1280.5,3169.2z
		 M1314.5,3179.3h-26v-2.2h26V3179.3z M1333.2,3176.7c0.4,0.4,0.6,0.9,0.8,1.4c0.2,0.5,0.3,1.1,0.3,1.6c0,0.9-0.2,1.8-0.7,2.6
		c-0.4,0.8-1,1.4-1.8,1.9s-1.6,0.7-2.7,0.7h-6.4v-2.2h6.1c0.6,0,1.1-0.1,1.6-0.4c0.4-0.3,0.8-0.6,1-1.1c0.2-0.5,0.4-0.9,0.4-1.5
		c0-0.5-0.1-1-0.4-1.5c-0.2-0.5-0.6-0.8-1.1-1.1c-0.5-0.3-1-0.4-1.7-0.4h-5v-2.2h5.2c0.6,0,1.1-0.1,1.6-0.4s0.8-0.6,1-1
		c0.2-0.4,0.4-0.9,0.4-1.4c0-0.5-0.1-0.9-0.4-1.4c-0.2-0.4-0.6-0.8-1-1c-0.4-0.3-1-0.4-1.6-0.4h-6.1v-2.2h6.5c1,0,1.9,0.2,2.6,0.7
		s1.4,1.1,1.8,1.8c0.4,0.8,0.7,1.6,0.7,2.5c0,0.9-0.2,1.7-0.7,2.4c-0.4,0.7-1,1.2-1.8,1.7C1332.4,3176,1332.8,3176.3,1333.2,3176.7z
		 M1345.4,3174.7h-1.7v-1.7h-0.1c-0.3,0.6-0.6,1.1-1.1,1.4c-0.5,0.3-1,0.4-1.8,0.4c-0.8,0-1.5-0.2-2-0.6s-1-0.9-1.3-1.5
		c-0.3-0.6-0.5-1.3-0.5-2.1c0-0.8,0.2-1.5,0.5-2.1s0.8-1.1,1.4-1.5s1.4-0.6,2.3-0.6c0.9,0,1.7,0.2,2.3,0.5c0.6,0.4,1.1,0.9,1.4,1.5
		c0.3,0.6,0.5,1.3,0.5,2.1V3174.7z M1357.6,3169h-3.5v13.8h3.5v2.2h-9.5v-2.2h3.5V3169h-3.5v-2.2h9.5V3169z M1380.7,3186.3
		c0,1.2-0.4,2.2-1.1,2.9c-0.7,0.7-1.7,1.1-2.9,1.1h-6.9v-2.1h6.5c0.6,0,1.1-0.2,1.5-0.6c0.4-0.4,0.5-0.9,0.5-1.5v-3.6h-0.1
		c-0.3,0.5-0.7,1-1.2,1.4c-0.5,0.4-1,0.7-1.6,0.9c-0.6,0.2-1.3,0.4-2.1,0.4c-1.2,0-2.3-0.3-3.3-0.9c-1-0.6-1.7-1.4-2.2-2.4
		c-0.5-1-0.8-2.2-0.8-3.5c0-1.3,0.3-2.5,0.8-3.5c0.5-1,1.3-1.9,2.3-2.5c1-0.6,2.2-0.9,3.7-0.9c1.4,0,2.6,0.3,3.6,0.9
		c1,0.6,1.8,1.4,2.4,2.5c0.6,1,0.8,2.3,0.8,3.7V3186.3z M1390.8,3173.7h-2.3c-0.6,0-1,0.2-1.3,0.5c-0.3,0.3-0.5,0.8-0.5,1.4v9.3
		h-2.4v-9.5c0-1.2,0.3-2.1,1-2.8c0.7-0.7,1.6-1,2.8-1h2.7V3173.7z M1405.5,3179.4c0,1.2-0.3,2.2-0.8,3.1c-0.5,0.9-1.3,1.6-2.2,2.1
		c-0.9,0.5-2,0.7-3.2,0.7c-1.2,0-2.3-0.2-3.2-0.7c-0.9-0.5-1.7-1.2-2.2-2.1c-0.5-0.9-0.8-1.9-0.8-3.1v-7.7h2.4v7.6
		c0,0.8,0.2,1.5,0.5,2.1c0.3,0.6,0.8,1,1.4,1.3c0.6,0.3,1.2,0.5,1.9,0.5c0.7,0,1.3-0.2,1.9-0.5c0.6-0.3,1-0.8,1.4-1.3
		c0.4-0.6,0.5-1.3,0.5-2.1v-7.6h2.4V3179.4z M1421.9,3182.1c-0.6,1-1.3,1.8-2.3,2.4s-2.1,0.8-3.3,0.8c-0.7,0-1.3-0.1-1.9-0.3
		s-1.2-0.5-1.6-0.9c-0.5-0.4-0.9-0.9-1.2-1.4h-0.1v8.1h-2.4v-12.3c0-1.5,0.3-2.8,0.9-3.8s1.4-1.8,2.4-2.4s2.2-0.8,3.5-0.8
		c1,0,1.9,0.2,2.8,0.5c0.8,0.3,1.6,0.8,2.2,1.4c0.6,0.6,1.1,1.4,1.4,2.2c0.3,0.9,0.5,1.9,0.5,3
		C1422.8,3179.8,1422.5,3181,1421.9,3182.1z M1438.6,3182.1c-0.6,1-1.3,1.8-2.3,2.4s-2.1,0.8-3.3,0.8c-0.7,0-1.3-0.1-1.9-0.3
		s-1.2-0.5-1.6-0.9s-0.9-0.9-1.2-1.4h-0.1v8.1h-2.4v-12.3c0-1.5,0.3-2.8,0.9-3.8c0.6-1,1.4-1.8,2.4-2.4c1-0.6,2.2-0.8,3.5-0.8
		c1,0,1.9,0.2,2.8,0.5c0.8,0.3,1.6,0.8,2.2,1.4c0.6,0.6,1.1,1.4,1.4,2.2c0.3,0.9,0.5,1.9,0.5,3
		C1439.4,3179.8,1439.1,3181,1438.6,3182.1z M1454.8,3181.8c-0.6,1-1.4,1.9-2.5,2.5c-1,0.6-2.2,0.9-3.6,0.9c-1.4,0-2.5-0.3-3.6-0.9
		s-1.9-1.4-2.5-2.5c-0.6-1-0.9-2.2-0.9-3.5c0-1.3,0.3-2.5,0.9-3.5c0.6-1,1.4-1.9,2.5-2.5s2.2-0.9,3.6-0.9c1.4,0,2.6,0.3,3.6,0.9
		c1,0.6,1.9,1.4,2.5,2.5s0.9,2.2,0.9,3.5C1455.7,3179.6,1455.4,3180.8,1454.8,3181.8z M1478.4,3185l-1.6-4.4h-9.5l-1.6,4.4h-2.6
		l6.2-16.5c0.3-0.7,0.7-1.2,1.1-1.6s1-0.5,1.7-0.5c0.6,0,1.2,0.2,1.7,0.5s0.9,0.8,1.1,1.5l6.2,16.5H1478.4z"/>
	<path class="st5" d="M1451.1,3174.1c-0.7-0.4-1.5-0.6-2.4-0.6c-0.9,0-1.7,0.2-2.4,0.6c-0.7,0.4-1.2,1-1.6,1.8
		c-0.4,0.7-0.6,1.6-0.6,2.5c0,0.9,0.2,1.7,0.6,2.5c0.4,0.7,0.9,1.3,1.6,1.8s1.5,0.7,2.4,0.7c0.9,0,1.7-0.2,2.4-0.7
		c0.7-0.4,1.2-1,1.6-1.8c0.4-0.7,0.6-1.6,0.6-2.5c0-0.9-0.2-1.7-0.6-2.5C1452.3,3175.1,1451.8,3174.5,1451.1,3174.1z"/>
	<path class="st5" d="M1434.8,3174c-0.7-0.4-1.4-0.6-2.2-0.6c-0.8,0-1.5,0.2-2.2,0.6c-0.7,0.4-1.2,1-1.6,1.7
		c-0.4,0.7-0.6,1.6-0.6,2.6c0,1,0.2,1.9,0.6,2.6c0.4,0.7,0.9,1.3,1.6,1.7c0.7,0.4,1.4,0.6,2.2,0.6c0.8,0,1.6-0.2,2.2-0.6
		c0.7-0.4,1.2-1,1.6-1.7c0.4-0.7,0.6-1.6,0.6-2.5c0-1-0.2-1.9-0.6-2.6S1435.5,3174.4,1434.8,3174z"/>
	<path class="st5" d="M1472.5,3168.8c-0.1-0.1-0.3-0.2-0.4-0.2c-0.2,0-0.3,0.1-0.4,0.2c-0.1,0.1-0.2,0.3-0.3,0.5l-3.3,9h8l-3.2-9
		C1472.7,3169.1,1472.6,3168.9,1472.5,3168.8z"/>
</g>
</svg>
