<?xml version="1.0" standalone="no"?>
<!DOCTYPE svg PUBLIC "-//W3C//DTD SVG 20010904//EN"
 "http://www.w3.org/TR/2001/REC-SVG-20010904/DTD/svg10.dtd">
<svg version="1.0" xmlns="http://www.w3.org/2000/svg"
 width="700.000000pt" height="700.000000pt" viewBox="0 0 700.000000 700.000000"
 preserveAspectRatio="xMidYMid meet">
<metadata>
Created by potrace 1.14, written by Peter Selinger 2001-2017
</metadata>
<g transform="translate(0.000000,700.000000) scale(0.100000,-0.100000)"
fill="#000000" stroke="none">
<path d="M3922 6298 c-7 -7 -12 -22 -12 -35 0 -17 -6 -23 -22 -23 -13 0 -40
-5 -62 -11 -93 -26 -116 -107 -49 -176 24 -25 36 -46 34 -61 -4 -34 17 -78 44
-96 13 -9 56 -19 94 -22 39 -4 71 -11 71 -16 0 -9 39 -45 68 -62 82 -48 105
-56 151 -56 45 0 51 -3 57 -25 3 -13 21 -35 39 -49 19 -15 35 -37 39 -56 7
-37 66 -100 92 -100 15 0 13 -4 -9 -28 -15 -15 -27 -33 -27 -39 0 -6 -25 -33
-56 -59 l-55 -48 -90 44 c-49 24 -89 49 -89 55 0 5 6 44 14 85 8 41 13 78 10
81 -7 13 -224 81 -238 76 -7 -3 -30 -35 -50 -71 -20 -36 -40 -68 -45 -70 -9
-6 -200 20 -207 27 -2 2 -11 41 -20 85 l-17 82 -128 0 -127 0 -6 -27 c-29
-152 -25 -142 -59 -147 -148 -24 -179 -28 -181 -25 -2 2 -20 35 -41 72 -21 38
-44 71 -51 74 -8 3 -65 -12 -126 -33 l-113 -39 3 -60 c1 -33 5 -73 7 -90 5
-29 2 -31 -92 -78 l-97 -48 -56 56 c-30 30 -60 55 -66 55 -6 0 -24 -10 -39
-21 l-27 -22 27 52 c14 29 34 54 43 57 90 28 423 188 554 266 124 74 200 159
229 255 15 54 4 70 -56 79 l-43 6 19 32 c10 17 20 47 21 66 4 50 -24 62 -137
57 -276 -14 -600 -220 -823 -522 -54 -73 -59 -79 -39 -39 42 83 97 238 97 274
0 34 -4 42 -26 50 -64 25 -232 -112 -350 -285 -62 -90 -164 -282 -208 -390
l-23 -57 -5 80 c-3 44 -11 89 -17 101 -17 31 -59 27 -104 -10 -77 -64 -281
-407 -335 -564 -56 -163 -102 -433 -102 -595 0 -226 85 -516 180 -615 32 -34
45 -62 84 -182 25 -78 46 -156 46 -173 0 -19 10 -44 24 -60 13 -16 36 -66 51
-112 15 -46 39 -108 53 -139 25 -51 26 -59 16 -110 l-10 -54 -14 40 c-47 143
-217 580 -255 657 -115 228 -200 302 -266 232 -23 -25 -24 -29 -23 -187 2
-241 41 -401 153 -632 68 -139 131 -230 290 -418 149 -176 230 -236 320 -237
20 0 34 -12 59 -50 52 -76 157 -212 190 -246 16 -16 48 -36 71 -42 22 -7 45
-21 51 -32 16 -30 68 -53 105 -47 28 5 38 0 66 -30 19 -19 55 -50 80 -70 l46
-35 -25 -78 c-30 -90 -22 -86 -197 -96 l-100 -5 -161 112 -161 111 -7 112 c-6
89 -4 121 8 157 32 92 21 123 -58 160 -72 34 -106 37 -106 11 0 -13 12 -22 40
-31 22 -6 51 -22 65 -34 l26 -22 -18 -40 c-11 -27 -19 -77 -23 -153 l-5 -112
-38 25 c-20 14 -88 52 -149 85 -110 57 -112 59 -84 70 19 7 26 15 22 25 -4 13
8 15 79 15 l85 0 30 47 c33 54 36 68 16 76 -9 4 -22 -6 -34 -27 l-20 -33 -171
-5 c-169 -4 -172 -5 -198 -30 -24 -24 -26 -33 -27 -116 -1 -89 -2 -92 -60
-206 -43 -86 -56 -123 -52 -141 8 -33 122 -146 225 -223 113 -85 426 -270 606
-359 174 -85 113 -82 499 -27 132 19 242 32 245 29 19 -20 -139 -115 -191
-115 -45 0 -63 -26 -54 -74 9 -42 112 -138 193 -178 55 -27 70 -30 115 -25 51
6 108 44 108 73 0 6 45 54 99 107 84 80 108 98 153 111 58 17 93 46 103 87 6
24 110 109 133 109 5 0 35 -11 66 -25 76 -33 128 -32 190 4 39 23 54 27 73 20
81 -31 327 -225 348 -275 12 -28 27 -41 77 -64 50 -22 67 -36 81 -64 10 -21
28 -41 44 -47 35 -13 121 5 166 36 19 12 52 29 72 36 40 15 75 51 75 79 0 23
-21 39 -85 65 -56 23 -230 134 -222 142 3 2 94 -7 203 -21 318 -40 575 -59
621 -47 47 13 34 5 417 280 306 219 329 240 391 354 l26 47 -27 33 c-57 68
-108 223 -98 299 5 38 3 49 -19 74 l-25 29 -156 5 c-85 3 -160 10 -165 15 -5
6 -11 35 -13 65 l-3 55 -35 -3 c-41 -4 -128 -41 -153 -66 -21 -22 -22 -69 -1
-87 41 -34 44 -59 29 -201 l-15 -133 -43 -38 c-23 -21 -88 -69 -143 -106 -118
-80 -163 -90 -305 -71 -66 9 -88 16 -101 33 -25 31 -48 82 -48 104 0 25 134
111 200 128 55 15 90 39 90 63 0 8 12 29 28 47 15 18 68 83 117 143 50 60 108
122 130 136 40 27 49 30 189 61 85 19 214 79 260 122 24 22 27 32 23 64 -5 36
-2 41 82 126 96 97 127 154 119 220 -4 32 0 44 28 76 18 21 48 72 68 112 32
65 36 83 36 150 l0 77 50 47 c47 44 50 50 50 97 0 28 -5 55 -11 61 -9 9 -8 21
5 48 26 54 29 95 12 145 -9 26 -16 78 -16 122 0 67 -3 81 -24 105 -21 24 -32
28 -74 28 -34 0 -56 -6 -70 -18 -10 -9 -26 -15 -35 -11 -8 3 -36 -3 -60 -14
l-45 -20 -4 23 c-4 17 3 26 29 40 47 26 72 71 82 151 10 75 37 145 83 212 63
92 58 152 -13 152 l-40 0 33 41 c29 36 33 49 33 98 0 47 -6 67 -30 107 -17 27
-39 50 -50 52 -17 2 -20 9 -17 51 3 35 -5 74 -27 138 -17 50 -31 100 -31 112
0 40 -27 89 -51 93 -18 2 -25 13 -34 48 -18 69 -54 146 -80 170 -13 12 -37 23
-54 24 -22 1 -43 15 -80 54 -50 52 -101 82 -140 82 -14 0 -21 10 -26 38 -3 20
-13 47 -20 58 -8 12 -24 50 -35 85 -24 71 -55 119 -76 119 -8 0 -23 -9 -34
-20 -19 -19 -19 -19 -31 23 -28 105 -63 139 -146 142 -57 2 -88 14 -144 55
-46 33 -92 39 -125 15 -26 -17 -34 -11 -34 26 0 15 -11 40 -24 56 -23 26 -26
27 -64 17 -41 -11 -41 -11 -89 38 -26 27 -84 74 -128 104 -82 56 -123 66 -166
44 -15 -8 -25 -6 -47 10 -53 39 -185 63 -210 38z m120 -90 c85 -40 89 -41 108
-23 13 11 27 15 44 11 41 -10 169 -102 225 -161 48 -51 56 -55 85 -50 37 7 50
-4 59 -52 l6 -31 -30 15 c-30 15 -82 14 -122 -2 -32 -13 -113 93 -154 200 -6
16 -8 12 -11 -18 -2 -25 5 -56 22 -92 l25 -55 -34 15 c-62 25 -124 75 -182
145 -50 59 -83 85 -83 65 0 -13 34 -72 54 -94 20 -23 20 -24 1 -16 -88 35
-148 54 -189 60 -68 11 -52 -8 26 -30 75 -21 163 -58 172 -73 9 -16 -65 -33
-140 -34 -79 0 -92 -13 -21 -21 48 -6 168 7 189 19 5 3 47 -11 93 -32 l83 -37
-59 -28 c-32 -16 -59 -33 -59 -39 0 -15 15 -12 52 9 55 32 116 44 149 30 25
-10 29 -17 29 -51 0 -21 7 -55 15 -75 19 -45 19 -43 -7 -43 -39 0 -68 12 -68
26 0 8 -4 14 -10 14 -5 0 -10 9 -10 19 0 18 -6 19 -77 14 -72 -5 -81 -3 -116
21 -21 14 -42 26 -47 26 -6 0 -10 11 -10 25 0 60 -10 67 -85 59 -54 -6 -68 -3
-104 17 -46 25 -47 28 -26 69 14 27 14 29 -5 35 -37 12 -80 56 -80 81 0 32 35
46 116 47 l62 1 -6 38 c-6 50 8 50 120 -4z m-938 6 c23 -9 20 -19 -16 -69 -27
-36 -43 -47 -87 -60 -30 -9 -82 -30 -115 -47 -86 -43 -269 -166 -346 -232 -56
-48 -71 -56 -105 -55 l-40 0 35 30 c120 103 282 213 467 318 43 24 73 46 67
48 -27 9 -203 -81 -350 -179 -173 -115 -201 -136 -296 -218 l-63 -55 45 55
c68 85 197 211 275 269 73 55 234 138 321 166 28 9 82 20 120 24 38 5 70 9 71
10 1 0 8 -2 17 -5z m70 -160 c23 -9 20 -44 -9 -86 -47 -69 -188 -163 -428
-284 -126 -63 -233 -114 -238 -112 -20 7 326 249 486 340 78 43 95 68 48 68
-33 0 -143 -63 -363 -210 -211 -140 -204 -136 -199 -121 2 6 40 43 84 81 177
156 469 329 557 330 25 0 53 -3 62 -6z m-944 -107 c0 -7 -34 -99 -74 -206 -99
-255 -199 -431 -392 -686 -86 -115 -201 -241 -210 -232 -3 3 7 25 24 49 49 72
156 265 267 483 58 115 130 242 160 284 47 65 68 111 50 111 -17 0 -188 -245
-250 -359 -54 -98 -35 -42 30 90 95 194 260 415 343 459 44 23 52 24 52 7z
m2429 -42 c-30 -16 -49 -60 -49 -113 l0 -36 -28 27 c-15 15 -43 30 -62 34
l-35 6 53 -58 c28 -33 52 -64 52 -71 0 -14 -69 -42 -113 -46 -45 -5 -32 -23
20 -28 46 -5 48 -6 54 -42 6 -41 27 -76 64 -111 37 -34 25 -57 -30 -57 -24 0
-56 5 -71 10 l-27 11 28 29 c32 34 31 41 -15 72 -35 24 -80 81 -80 103 0 7 14
18 30 25 41 17 50 54 21 84 -12 13 -26 40 -32 61 -9 31 -8 40 7 56 21 23 51
24 103 3 l40 -16 32 36 c17 20 38 36 48 36 10 -1 7 -6 -10 -15z m180 -77 c31
-17 35 -18 51 -3 15 13 23 14 40 5 26 -14 65 -95 82 -168 9 -42 17 -56 35 -63
34 -13 37 -12 48 13 16 36 34 33 51 -9 8 -21 28 -65 44 -97 36 -71 37 -107 7
-176 l-24 -53 -11 46 c-7 25 -12 78 -12 116 0 41 -4 71 -10 71 -10 0 -16 -57
-12 -114 2 -26 -5 -22 -84 59 -92 93 -103 116 -104 205 0 25 -4 52 -10 60 -15
24 -23 -12 -18 -85 5 -78 5 -78 -95 53 -45 60 -73 89 -75 79 -4 -20 68 -132
137 -211 28 -33 49 -61 48 -62 -2 -3 -48 7 -204 43 -13 3 -23 1 -23 -6 0 -18
55 -40 135 -56 99 -19 151 -43 202 -96 37 -39 80 -115 70 -125 -2 -2 -26 5
-53 15 -28 11 -78 24 -112 31 -35 6 -83 20 -108 31 -52 22 -54 22 -54 10 0
-15 80 -49 155 -66 38 -9 101 -31 140 -50 l71 -34 -1 -59 c0 -45 -4 -63 -17
-71 -13 -8 -18 -4 -29 20 -14 34 -88 94 -164 133 -45 22 -51 23 -67 9 -26 -23
-66 -8 -114 42 -71 74 -66 125 13 125 51 0 45 33 -11 60 -24 11 -65 43 -90 70
-40 43 -45 53 -36 70 6 11 21 20 34 20 45 0 53 25 28 93 -29 80 -28 93 8 128
26 26 34 29 67 23 21 -3 53 -15 72 -26z m-1279 -212 c7 -40 15 -79 19 -85 6
-9 217 -51 260 -51 11 0 33 27 59 73 l42 73 90 -30 89 -31 -4 -35 c-2 -19 -7
-58 -10 -86 l-5 -51 122 -61 122 -61 63 56 64 56 70 -48 c38 -26 71 -51 74
-55 3 -4 -11 -42 -30 -83 l-34 -76 96 -96 c89 -89 98 -96 120 -86 13 6 28 11
33 11 18 0 10 -26 -15 -48 -34 -29 -33 -76 3 -132 l27 -44 -23 -23 c-19 -19
-23 -31 -18 -56 10 -47 29 -71 84 -99 85 -44 135 -89 186 -166 27 -40 63 -80
79 -89 l30 -15 -32 -21 c-29 -18 -32 -24 -26 -51 17 -81 34 -184 35 -211 0
-31 1 -31 83 -45 l82 -15 3 -92 c3 -104 14 -91 -93 -112 -58 -11 -61 -10 -70
26 -3 16 -14 36 -22 46 -17 18 -68 23 -78 8 -3 -6 -17 -4 -33 5 -35 18 -62 18
-90 -2 -27 -18 -59 -79 -70 -131 -4 -20 -6 38 -4 133 2 97 -1 175 -7 183 -7
12 -72 -8 -362 -113 -193 -69 -353 -125 -355 -123 -2 2 143 115 321 252 l324
250 -147 7 c-81 4 -257 11 -391 15 l-245 8 350 94 c192 52 353 96 357 98 25
14 -153 252 -272 365 -181 173 -421 299 -670 353 l-33 7 6 -298 c4 -165 9
-342 11 -394 l5 -95 -95 265 c-52 146 -117 327 -143 402 -26 76 -49 138 -52
138 -3 0 -59 -158 -125 -351 -95 -276 -121 -343 -123 -315 -2 20 4 174 13 342
8 169 13 309 11 312 -8 8 -219 -56 -305 -92 -240 -101 -462 -286 -616 -515
-38 -55 -67 -103 -64 -105 2 -2 164 -50 359 -107 l355 -104 -245 -8 c-135 -4
-319 -10 -409 -15 l-163 -7 321 -244 c177 -134 321 -244 321 -246 0 -1 -156
55 -347 126 -192 71 -351 129 -354 129 -4 0 -10 -46 -14 -102 l-8 -103 -13 39
c-8 22 -16 42 -19 44 -2 3 -19 -7 -38 -21 -41 -31 -90 -121 -113 -209 -11 -42
-30 -81 -50 -105 l-32 -38 -7 70 c-9 94 -13 104 -38 110 -12 2 -48 9 -79 15
l-58 11 0 98 0 97 80 13 c69 12 81 16 84 35 31 168 42 253 35 261 -5 7 18 40
57 85 141 162 306 442 348 591 9 31 18 85 21 121 4 59 11 78 75 189 38 67 70
117 70 111 0 -7 17 -1 40 14 l39 26 64 -56 64 -56 109 55 c60 30 113 56 117
58 5 1 5 43 0 93 l-9 91 81 27 c45 14 86 26 91 26 6 0 28 -32 50 -71 37 -66
41 -70 69 -66 272 39 247 28 264 125 l14 82 93 0 93 0 11 -74z m-1156 19 c10
-49 -37 -181 -121 -339 l-68 -129 -67 -22 c-36 -12 -81 -33 -98 -45 l-33 -23
38 59 c21 32 59 93 85 134 26 41 91 142 144 224 53 82 96 155 96 162 0 28 18
13 24 -21z m-56 8 c-104 -120 -154 -192 -446 -648 -189 -295 -210 -317 -72
-75 21 36 79 143 129 239 101 192 196 319 322 435 72 65 97 84 67 49z m-750
-357 c4 -126 -15 -229 -78 -441 -28 -93 -64 -228 -81 -300 -17 -71 -42 -164
-55 -205 -13 -41 -37 -126 -53 -189 -17 -62 -33 -116 -37 -120 -14 -13 8 272
36 466 35 242 85 449 145 596 4 9 3 17 -2 17 -14 0 -68 -107 -106 -210 -109
-295 -160 -823 -101 -1055 4 -16 3 -17 -4 -5 -6 8 -29 92 -52 185 l-43 170 6
145 c10 255 62 498 143 678 63 138 238 379 268 369 7 -2 12 -40 14 -101z
m3765 45 c22 -20 52 -55 68 -79 26 -36 33 -41 50 -32 28 16 51 -1 83 -61 21
-38 30 -71 34 -121 4 -59 7 -68 21 -62 46 20 56 12 62 -51 4 -33 17 -82 29
-109 28 -62 29 -128 2 -186 -38 -81 -26 -100 34 -54 42 32 59 27 75 -25 15
-49 8 -78 -30 -120 -38 -42 -58 -98 -42 -114 8 -8 22 -8 51 0 22 6 43 7 46 2
3 -5 -22 -62 -56 -126 -36 -71 -61 -132 -61 -153 -1 -19 -6 6 -11 55 -5 50
-17 130 -27 179 l-19 90 23 35 c24 36 52 127 42 137 -3 3 -18 -20 -33 -52 -16
-31 -33 -57 -39 -56 -5 0 -24 52 -42 116 l-31 115 23 68 c28 79 43 183 28 183
-6 0 -13 -20 -16 -45 -8 -55 -47 -149 -58 -138 -4 4 -21 48 -39 98 -23 66 -31
106 -30 150 3 105 0 145 -9 145 -4 0 -12 -28 -17 -62 l-9 -63 -48 121 c-26 66
-54 129 -62 140 -14 19 -14 19 -15 -2 0 -12 7 -41 15 -64 8 -23 15 -44 15 -47
0 -2 -18 11 -40 28 -63 51 -59 26 8 -46 33 -37 67 -85 75 -108 8 -23 22 -59
32 -80 l16 -39 -33 25 c-27 21 -119 67 -134 67 -2 0 -4 -6 -3 -12 0 -7 30 -35
66 -63 122 -94 157 -145 211 -315 3 -8 -27 16 -67 55 -39 38 -71 65 -71 60 0
-11 49 -74 121 -157 33 -38 51 -70 63 -113 10 -33 20 -69 23 -80 4 -16 -1 -14
-28 11 -44 41 -140 104 -157 104 -8 0 32 -43 88 -97 55 -53 107 -108 115 -122
7 -15 18 -62 24 -105 23 -163 8 -248 -48 -269 -26 -9 -30 -17 -36 -65 -9 -76
-13 -82 -49 -82 -26 0 -38 10 -78 64 -50 68 -129 196 -196 317 -28 50 -42 89
-42 113 0 20 2 36 4 36 2 0 11 3 19 6 11 4 14 -4 13 -36 -1 -47 12 -60 63 -60
l34 0 -7 -47 c-3 -27 -9 -64 -12 -85 -5 -30 -3 -38 16 -48 17 -9 29 -9 51 1
18 7 34 8 39 3 4 -5 10 -43 12 -84 2 -59 8 -82 26 -108 26 -36 69 -52 83 -31
13 20 11 23 -13 34 -21 9 -23 18 -28 111 -5 99 -6 102 -41 141 -28 31 -46 69
-78 164 -22 68 -41 127 -41 132 0 4 11 7 25 7 22 0 27 -8 51 -87 33 -110 66
-175 97 -196 20 -13 26 -28 32 -75 9 -81 16 -89 49 -60 30 26 50 95 41 139 -4
16 -30 48 -66 79 -64 56 -74 84 -34 102 14 6 25 14 25 18 0 11 -61 65 -141
124 -91 67 -111 97 -84 126 16 18 20 18 46 5 32 -17 55 -19 63 -6 12 18 -8 43
-45 58 l-39 15 0 109 c0 97 -2 111 -21 130 -20 20 -31 21 -89 4 -12 -4 -15 5
-16 38 -1 28 -15 69 -43 122 -50 97 -52 123 -11 138 23 9 29 16 24 31 -11 35
-5 91 15 136 11 25 23 49 27 53 13 13 48 -4 87 -42z m-740 19 c3 -11 3 -20 0
-20 -3 0 -16 9 -30 20 l-26 20 25 0 c17 0 27 -7 31 -20z m169 -181 l44 -21
-22 -66 c-16 -48 -29 -69 -49 -79 -25 -14 -28 -12 -101 61 l-74 75 31 70 32
71 48 -45 c26 -24 67 -54 91 -66z m-1642 -51 c1 -55 -32 -775 -36 -795 -2 -13
-10 -23 -17 -23 -6 0 -188 53 -404 117 -373 112 -391 119 -381 138 25 49 127
173 200 245 139 137 308 240 501 305 122 41 137 43 137 13z m732 -9 c228 -76
452 -226 592 -397 76 -93 128 -174 119 -183 -10 -9 -772 -229 -794 -229 -17 0
-15 -40 -36 633 -5 185 -4 207 10 207 9 0 58 -14 109 -31z m1064 -2 c73 -41
86 -65 72 -130 -16 -75 1 -82 61 -23 l48 47 31 -26 c30 -25 32 -31 32 -96 0
-56 -6 -85 -30 -141 -17 -39 -29 -73 -27 -75 2 -1 31 24 65 58 45 45 66 60 84
57 22 -3 23 -7 24 -93 1 -85 -1 -93 -30 -137 -17 -27 -34 -48 -38 -48 -4 0
-10 10 -14 23 -4 12 -11 25 -17 28 -6 4 7 38 32 84 23 43 40 83 38 89 -4 13
-61 -63 -92 -125 -22 -41 -41 -59 -64 -59 -5 0 -22 30 -39 68 -37 79 -34 104
24 235 37 85 38 87 26 87 -8 0 -40 -59 -76 -140 l-24 -55 -10 35 c-8 30 -6 38
11 57 l20 23 -39 55 c-21 31 -43 64 -49 73 -5 10 -24 33 -41 51 -27 29 -34 32
-53 22 -11 -7 -21 -8 -21 -4 0 7 33 93 36 93 1 0 28 -15 60 -33z m-1362 -450
c69 -219 133 -406 141 -414 11 -11 23 -13 43 -6 28 9 817 -8 827 -18 3 -3
-150 -124 -340 -269 -204 -155 -345 -269 -345 -279 0 -9 56 -200 125 -426 68
-225 123 -410 122 -411 -8 -8 -630 435 -662 470 l-40 45 -360 -250 c-198 -138
-368 -255 -377 -260 -16 -8 -16 -6 -3 33 8 24 62 200 120 392 64 215 115 365
130 388 l25 38 -27 11 c-16 6 -35 14 -44 17 -8 4 -160 117 -337 252 l-322 245
37 6 c30 5 719 25 798 24 11 -1 32 -4 46 -8 25 -6 27 -5 31 41 6 57 270 805
279 789 4 -7 64 -191 133 -410z m-1418 387 c14 -55 -54 -238 -143 -387 -55
-91 -163 -239 -224 -307 -35 -39 -35 -39 64 121 74 121 194 333 202 360 4 11
2 19 -5 19 -17 0 -301 -439 -385 -595 -26 -49 -79 -143 -117 -207 -38 -64 -81
-148 -94 -187 -25 -73 -63 -145 -71 -137 -3 2 6 24 20 48 14 24 35 77 47 118
51 174 233 600 318 745 73 124 220 342 248 367 26 22 106 68 121 68 7 0 16
-12 19 -26z m2770 -113 c3 -14 11 -49 18 -78 11 -44 10 -54 -2 -67 -13 -13
-19 -13 -53 5 -43 21 -49 23 -49 11 0 -5 16 -17 35 -28 31 -17 33 -20 19 -35
-14 -15 -12 -23 15 -78 l31 -60 -41 14 c-23 8 -46 15 -52 15 -20 0 7 -17 56
-35 41 -16 52 -26 71 -64 19 -41 25 -46 55 -47 32 0 35 -3 57 -65 13 -35 24
-68 24 -73 0 -16 -31 17 -65 68 -39 58 -103 110 -191 154 -66 33 -80 52 -63
84 8 15 18 19 40 16 26 -4 28 -2 23 16 -4 12 -22 44 -40 72 -47 71 -42 114 13
114 27 0 28 7 8 34 -25 33 -18 61 18 78 30 16 33 15 50 -4 9 -11 20 -32 23
-47z m41 -233 c19 -22 76 -138 70 -144 -8 -8 -27 18 -65 89 -41 77 -43 97 -5
55z m-3468 -138 c-21 -56 -36 -81 -26 -45 3 11 10 42 17 68 7 26 17 44 21 40
5 -5 -1 -33 -12 -63z m161 1 c0 -6 -4 -12 -9 -15 -4 -3 -23 -42 -41 -86 -19
-44 -35 -78 -38 -76 -7 7 50 170 62 178 15 11 26 10 26 -1z m3560 -223 c0 -29
-20 -30 -31 -1 -23 62 -32 110 -24 139 7 27 9 24 31 -46 13 -41 24 -83 24 -92z
m69 85 c-1 -16 -4 -39 -8 -53 -7 -25 -7 -25 -19 9 -18 50 -15 71 8 71 15 0 20
-6 19 -27z m-3759 -176 c0 -1 -16 -47 -34 -102 -36 -103 -47 -106 -22 -6 8 31
17 68 20 84 4 15 13 27 21 27 8 0 15 -1 15 -3z m3655 -74 c10 -26 33 -78 52
-115 37 -75 37 -76 -42 -59 -29 6 -30 7 -46 111 -11 73 -13 107 -6 112 16 10
22 3 42 -49z m-3435 44 c0 -27 -32 -202 -37 -208 -9 -7 -143 -32 -149 -27 -1
2 21 46 50 98 34 60 65 103 86 118 30 20 50 28 50 19z m-393 -219 c-3 -8 -6
-5 -6 6 -1 11 2 17 5 13 3 -3 4 -12 1 -19z m-13 -87 c-4 -28 -9 -50 -11 -47
-3 3 -2 28 2 56 4 28 9 49 12 47 2 -3 1 -28 -3 -56z m1164 -102 c210 -79 382
-147 382 -152 0 -6 -452 -670 -469 -690 -13 -13 -130 162 -189 282 -61 125
-60 119 -47 297 7 103 6 113 -12 131 -14 14 -18 29 -15 56 4 36 3 37 -27 37
l-31 0 0 96 c0 73 3 95 13 92 6 -3 184 -70 395 -149z m2278 105 c9 -35 -4
-252 -17 -276 -5 -10 -16 -18 -24 -18 -22 0 -30 -48 -17 -97 14 -51 -2 -109
-69 -252 -59 -126 -197 -328 -213 -310 -2 2 -107 160 -235 352 -196 295 -229
349 -214 355 57 23 760 270 770 271 7 1 16 -11 19 -25z m-3228 -208 c9 -2 47
-10 85 -16 75 -14 69 -4 86 -129 6 -46 6 -81 1 -92 -6 -9 -39 -34 -75 -54 -36
-20 -65 -39 -65 -43 0 -4 7 -28 17 -54 16 -44 16 -50 -2 -108 -10 -33 -22 -63
-25 -65 -16 -10 -33 88 -27 157 6 65 4 77 -23 133 -16 34 -39 101 -51 149 -21
79 -21 94 -10 149 7 33 25 90 39 126 l27 66 3 -107 c2 -91 5 -108 20 -112z
m3861 69 c30 -50 30 -50 21 -147 -4 -53 -16 -133 -25 -177 l-18 -81 -33 6
c-36 7 -74 -21 -74 -55 0 -11 -4 -23 -10 -26 -6 -4 -9 12 -7 41 l2 47 -65 38
c-47 28 -64 44 -62 56 2 10 6 59 9 109 l5 91 72 13 c39 7 77 15 84 17 8 4 12
33 12 97 l1 91 29 -35 c16 -19 42 -57 59 -85z m-3385 -12 c21 -98 46 -334 46
-434 0 -198 -36 -404 -90 -513 l-30 -61 6 315 c5 305 18 590 30 678 7 47 -11
60 -20 15 -27 -127 -48 -397 -53 -680 -3 -172 -9 -313 -13 -313 -32 0 -50 102
-57 311 -7 201 7 346 48 510 40 158 80 249 109 249 4 0 15 -35 24 -77z m-696
-24 c9 -1 20 -1 25 0 4 0 7 -11 7 -25 l0 -25 -31 18 c-17 10 -42 36 -55 59
-33 57 -30 65 6 16 17 -23 38 -43 48 -43z m3648 36 c29 -30 33 -30 49 -8 30
40 65 -36 65 -140 0 -40 -8 -100 -17 -132 -16 -57 -20 -175 -7 -217 7 -24 37
-23 59 2 43 47 73 6 48 -65 -15 -45 -17 -47 -46 -41 -16 3 -40 6 -52 6 -18 0
-25 7 -30 30 -8 38 -25 39 -25 1 0 -24 -3 -28 -20 -24 -13 4 -19 11 -16 22 29
95 34 133 26 227 -8 109 -28 212 -43 232 -13 17 -52 8 -90 -19 l-28 -20 7 28
c17 73 56 143 80 143 8 0 26 -11 40 -25z m915 -17 c9 -36 9 -51 -5 -89 -20
-59 -20 -57 7 -61 26 -4 34 -37 17 -78 l-11 -28 -24 24 c-31 31 -72 31 -119
-1 -48 -33 -47 -17 9 92 50 98 49 93 35 93 -6 0 -33 -34 -59 -76 -27 -41 -51
-72 -54 -67 -2 4 -8 23 -12 41 -11 51 -28 39 -22 -15 3 -27 8 -57 12 -68 5
-15 -3 -31 -30 -58 -64 -66 -64 -65 -19 143 29 132 49 160 112 160 20 0 46 7
56 15 11 8 37 15 58 15 35 0 38 -2 49 -42z m-4792 -58 c82 -82 272 -531 371
-876 67 -234 189 -414 280 -414 37 0 32 26 -26 125 -54 91 -59 97 -84 91 -64
-12 -75 52 -36 206 23 90 113 325 155 405 l20 38 1 -47 c0 -35 -16 -85 -68
-210 -85 -202 -101 -250 -104 -313 -3 -45 -1 -50 17 -47 27 5 27 5 15 38 -9
27 -9 28 5 10 8 -11 15 -23 15 -28 0 -4 14 -5 32 -1 28 6 31 4 26 -15 -5 -16
11 -47 59 -115 36 -50 67 -94 70 -97 2 -2 12 1 22 7 28 17 33 4 11 -25 -30
-38 -25 -63 36 -164 65 -108 79 -125 117 -145 24 -12 32 -12 58 1 39 20 52 13
89 -42 l30 -45 0 41 c0 37 -5 45 -56 88 -39 33 -66 68 -89 115 -19 37 -54 95
-78 130 -25 35 -75 118 -112 184 -37 66 -87 148 -111 183 -24 35 -44 65 -44
67 0 30 121 -117 230 -277 42 -62 84 -114 93 -116 11 -2 22 8 31 30 l14 33 1
-31 c1 -17 -4 -57 -10 -89 -10 -53 -9 -60 10 -84 11 -14 29 -44 39 -66 28 -60
205 -227 344 -324 73 -51 124 -95 127 -106 4 -24 19 -35 49 -35 19 0 22 5 22
36 0 28 3 35 17 32 10 -2 27 -17 38 -35 11 -17 45 -48 76 -69 32 -22 55 -42
53 -45 -2 -4 -28 -10 -57 -13 l-54 -7 -134 82 c-197 120 -280 177 -317 216
-27 29 -39 34 -63 31 -22 -3 -34 1 -44 15 -11 15 -17 17 -33 8 -27 -14 -55
-14 -87 1 -36 16 -130 136 -187 237 -50 90 -80 116 -112 99 -10 -5 -32 -7 -50
-4 -93 19 -157 108 -338 471 -139 277 -202 419 -243 542 -30 93 -51 121 -40
53 18 -105 153 -446 266 -670 84 -167 87 -173 48 -130 -57 64 -180 250 -228
347 -103 205 -151 395 -151 596 0 165 11 185 69 127z m1031 0 c-15 -28 -29
-33 -37 -14 -4 11 0 22 12 30 23 17 38 8 25 -16z m3415 -17 c-15 -87 -56 -282
-68 -321 -9 -31 -15 -39 -26 -33 -11 7 -10 26 7 117 12 60 24 132 27 159 13
113 14 115 41 115 23 0 24 -2 19 -37z m-3390 -172 l-8 -76 -17 65 c-16 63 -16
66 4 93 27 37 31 21 21 -82z m2788 42 c18 -39 22 -69 24 -163 3 -162 -19 -308
-49 -326 -5 -4 -23 6 -39 22 -41 39 -47 23 -9 -24 31 -39 31 -41 15 -66 -10
-14 -21 -26 -25 -26 -16 0 -40 50 -40 82 0 18 -9 48 -20 66 -48 78 -7 130 64
83 36 -24 46 -19 46 23 0 52 -24 120 -74 204 -25 43 -46 91 -46 105 0 29 9 34
27 16 9 -9 21 -4 48 20 20 17 40 31 46 31 6 0 20 -21 32 -47z m-3125 -108 c-8
-52 -27 -103 -75 -198 -75 -150 -98 -205 -129 -307 -25 -81 -30 -65 -14 40 22
139 107 367 163 437 12 15 31 45 41 66 11 20 21 36 22 34 2 -2 -2 -34 -8 -72z
m1012 18 c-30 -90 -220 -747 -217 -750 4 -3 125 79 450 305 120 84 220 152
223 152 2 0 -102 -133 -232 -295 -130 -163 -235 -297 -233 -299 13 -11 200
-80 261 -95 252 -65 529 -49 831 46 76 24 117 41 115 49 -2 8 -97 136 -213
285 -115 150 -214 279 -219 287 -5 8 47 -24 115 -71 68 -46 216 -148 329 -226
113 -77 206 -137 208 -131 2 5 -49 174 -113 376 -63 202 -114 369 -112 371 3
2 94 -132 203 -297 109 -165 202 -300 206 -300 10 0 115 128 162 200 54 82
106 185 136 270 13 36 26 68 30 73 6 7 90 -132 90 -150 0 -4 -18 -7 -39 -5
-72 7 -102 -58 -66 -145 8 -19 15 -48 15 -63 0 -32 21 -62 106 -150 88 -90 92
-105 47 -169 -20 -28 -39 -51 -43 -51 -5 0 -38 14 -75 30 -37 17 -71 30 -76
30 -5 0 -51 -42 -102 -94 l-93 -93 33 -73 c18 -40 33 -76 33 -79 0 -4 -34 -31
-74 -59 l-75 -52 -64 59 -63 60 -30 -20 c-16 -11 -69 -40 -117 -65 l-88 -45 6
-52 c3 -28 8 -68 10 -88 l5 -36 -76 -27 c-41 -15 -81 -29 -89 -32 -9 -4 -28
20 -56 68 -23 40 -43 75 -45 77 -2 2 -39 -3 -81 -12 -43 -9 -104 -19 -135 -23
l-57 -6 -10 -47 c-5 -25 -13 -63 -16 -83 l-7 -38 -93 0 -92 0 -13 74 c-7 41
-15 78 -19 83 -3 6 -51 18 -106 27 -184 32 -167 34 -193 -16 -12 -24 -31 -57
-42 -75 l-19 -32 -88 30 -89 29 8 87 c5 47 7 87 5 89 -2 2 -57 31 -123 64
l-119 59 -61 -60 -60 -60 -71 50 c-39 28 -74 54 -76 58 -3 5 11 43 31 86 l35
78 -94 95 -95 95 -79 -36 c-77 -35 -79 -35 -97 -17 -19 18 -18 20 17 90 44 88
73 199 82 311 4 62 13 96 29 125 13 23 24 49 24 59 0 33 15 16 45 -50 37 -84
131 -226 193 -294 l49 -53 208 307 c115 169 210 307 211 307 2 0 -1 -12 -6
-27z m2900 -51 c5 -20 10 -60 10 -88 0 -57 27 -104 61 -104 13 0 19 -7 19 -23
0 -48 -32 -144 -62 -187 -101 -143 -99 -140 -93 -194 4 -29 2 -63 -4 -80 -6
-16 -51 -68 -100 -117 -70 -68 -88 -92 -84 -108 3 -12 -1 -31 -10 -44 -15 -23
-110 -79 -157 -92 -23 -6 -22 -4 8 20 41 33 110 131 151 212 30 61 37 67 136
128 42 26 13 31 -36 6 -49 -26 -52 -26 -40 -2 6 10 22 58 36 106 21 72 33 97
69 135 56 60 121 158 111 168 -4 4 -21 -11 -39 -32 -17 -22 -46 -56 -64 -75
-31 -33 -33 -34 -27 -11 3 14 17 72 30 130 35 151 32 213 -6 103 l-15 -46 -23
39 c-31 51 -36 33 -11 -40 19 -55 19 -62 4 -120 -8 -33 -20 -76 -26 -95 l-11
-34 -17 45 c-18 48 -101 181 -120 193 -25 15 -20 -6 21 -86 23 -46 52 -112 65
-146 26 -68 24 -79 -28 -225 -21 -59 -31 -70 -41 -44 -6 16 -66 51 -73 43 -3
-3 13 -26 35 -51 l41 -47 -21 -42 c-25 -48 -94 -140 -132 -175 l-25 -24 13 39
c8 21 14 71 15 110 0 68 2 74 28 90 40 26 41 30 20 85 -10 27 -16 54 -12 59 3
5 22 8 42 7 31 -3 37 0 40 18 2 12 -10 41 -26 65 -33 50 -62 120 -62 149 0 23
28 40 64 40 23 0 26 4 26 33 0 20 -13 53 -31 82 -17 28 -34 67 -37 87 -4 36
-3 38 22 38 14 0 43 -11 64 -24 56 -35 76 -39 101 -19 15 13 22 31 24 63 l3
45 42 3 c34 3 46 10 72 43 18 21 36 37 41 34 4 -3 13 -22 19 -43z m-562 -34
c54 -37 55 -55 3 -50 -21 2 -42 -1 -45 -7 -16 -25 -26 -8 -26 45 0 61 -4 60
68 12z m720 19 c18 -12 15 -25 -13 -52 -42 -43 -64 -34 -85 35 -7 24 -6 25 39
25 25 0 52 -4 59 -8z m-3766 -73 c-2 -55 -12 -54 -12 1 0 27 3 45 7 42 3 -4 6
-23 5 -43z m1572 -397 c135 -174 246 -321 246 -326 0 -9 -142 -54 -245 -77
-38 -8 -138 -18 -221 -21 -180 -7 -299 10 -467 64 -100 33 -107 37 -95 54 7
10 126 160 263 333 189 237 253 311 261 303 7 -7 123 -155 258 -330z m1576
250 l0 -72 -84 -87 c-107 -112 -121 -106 -64 27 23 55 37 75 51 75 17 0 24 12
68 118 16 40 29 13 29 -61z m-236 -64 c3 -16 8 -59 12 -97 l7 -70 -44 34 c-24
19 -46 35 -48 37 -7 5 51 123 60 123 4 0 10 -12 13 -27z m76 -24 c-12 -23 -23
-39 -24 -37 -2 1 -6 20 -10 41 -7 36 -6 37 24 37 l30 0 -20 -41z m-3311 -174
l1 -39 -22 21 c-20 21 -21 25 -8 65 12 40 14 41 21 18 4 -14 7 -43 8 -65z
m3438 -4 c-95 -102 -291 -394 -375 -557 -60 -118 -102 -170 -179 -223 -36 -24
-41 -38 -18 -47 25 -10 136 79 221 177 153 179 154 180 154 237 0 28 3 58 7
68 5 14 9 11 18 -17 23 -69 40 -52 124 123 76 157 79 162 83 123 2 -28 -3 -49
-17 -70 -14 -21 -21 -49 -22 -94 l-1 -65 -57 -49 c-63 -56 -85 -91 -85 -140 0
-27 -7 -39 -36 -59 -56 -40 -138 -123 -205 -207 -88 -110 -154 -144 -205 -106
-28 21 -34 18 -34 -19 0 -32 -5 -36 -97 -92 -104 -62 -166 -94 -182 -94 -5 0
-7 19 -4 43 6 48 11 53 141 139 81 52 100 70 139 132 25 39 63 90 85 114 58
64 82 123 75 189 -5 52 -5 54 16 47 21 -7 57 -8 62 -2 1 2 28 45 60 96 76 123
138 205 254 331 90 97 96 102 99 76 2 -18 -4 -36 -21 -54z m-231 12 c59 -62
58 -61 43 -83 -8 -12 -20 -4 -69 49 -52 57 -67 91 -38 91 5 0 34 -26 64 -57z
m-2793 -307 l73 -73 -33 -73 c-18 -40 -33 -76 -33 -81 0 -5 46 -43 102 -85
l102 -77 52 59 53 59 91 -45 92 -45 -6 -91 -6 -91 110 -36 c61 -21 120 -37
130 -37 13 0 32 23 61 73 23 39 42 73 43 73 1 1 48 -6 106 -15 l105 -16 15
-85 15 -85 135 0 135 0 14 83 c8 45 19 82 25 82 6 0 54 7 106 14 52 8 95 14
96 13 1 -1 20 -35 43 -74 23 -40 48 -73 55 -73 28 0 237 72 241 83 3 7 1 48
-3 91 l-7 79 95 48 95 48 61 -60 61 -61 104 78 c57 42 103 82 101 88 -2 6 -16
43 -33 81 l-30 70 72 73 c40 39 76 72 79 72 4 0 35 -13 69 -28 49 -22 60 -31
49 -40 -9 -7 -19 -8 -28 -2 -30 19 -75 11 -105 -19 -26 -28 -28 -34 -26 -114
1 -46 -3 -96 -9 -113 -6 -16 -37 -56 -69 -89 -32 -33 -77 -92 -100 -132 -23
-39 -55 -82 -72 -94 l-31 -21 -34 33 -34 33 -87 -38 c-132 -57 -332 -164 -381
-203 -24 -20 -60 -60 -79 -89 -36 -54 -36 -54 -87 -54 -47 0 -56 4 -87 36 -57
59 -93 77 -142 70 -23 -3 -76 -10 -117 -14 -41 -5 -97 -19 -125 -31 -27 -12
-59 -20 -70 -17 -11 3 -51 41 -90 85 -76 87 -62 80 -340 186 -199 77 -245 79
-284 15 l-17 -29 -55 43 c-71 56 -194 201 -220 261 -19 43 -21 59 -14 146 l7
98 -34 21 c-43 26 -75 26 -83 0 -6 -20 -7 -20 -26 4 -10 13 -19 28 -19 33 0 8
121 69 142 72 4 1 40 -32 81 -73z m-413 -7 c15 -28 5 -23 -15 7 -9 15 -12 23
-6 20 6 -4 16 -16 21 -27z m209 -323 c57 -88 74 -125 51 -111 -26 16 -141 177
-136 190 10 28 24 15 85 -79z m3291 -111 c0 -22 -3 -24 -19 -15 -26 13 -51 13
-51 -1 0 -6 15 -26 34 -45 34 -34 35 -34 123 -34 86 0 90 -1 89 -22 -1 -17 6
-24 29 -28 29 -6 29 -7 -32 -38 -35 -18 -106 -62 -159 -98 l-97 -65 6 48 c20
156 20 198 -1 240 -18 39 -18 43 -3 56 19 17 39 25 64 26 12 1 17 -7 17 -24z
m267 -101 c-3 -3 -12 -4 -19 -1 -8 3 -5 6 6 6 11 1 17 -2 13 -5z m-4294 -24
c-8 -29 11 -47 88 -86 111 -55 231 -128 476 -290 l232 -153 133 10 c73 6 194
21 268 34 419 73 495 85 600 94 63 6 161 12 216 15 l101 5 31 -67 c61 -135 77
-223 42 -242 -51 -27 -485 -164 -608 -192 -221 -49 -256 -56 -477 -87 -351
-49 -296 -53 -475 36 -311 156 -599 348 -697 465 -29 34 -53 68 -53 75 0 7 13
37 30 66 55 98 83 186 77 248 -3 30 -1 63 5 72 12 23 17 21 11 -3z m4388 -93
c9 -102 28 -165 74 -241 l35 -59 -30 -47 c-16 -25 -40 -56 -52 -67 -24 -22
-326 -231 -555 -384 l-132 -89 -133 0 c-257 0 -560 41 -843 115 -93 24 -180
47 -192 52 l-23 8 23 27 c21 25 25 26 72 18 28 -4 58 -11 68 -15 21 -9 23 13
2 29 -12 10 -12 23 1 108 17 115 28 148 49 148 36 0 10 20 -41 30 -62 13 -75
9 -51 -18 10 -10 17 -26 17 -35 0 -28 -49 -198 -61 -213 -18 -22 -31 -16 -18
8 28 53 -16 207 -81 281 l-40 45 27 5 c39 7 235 -19 380 -52 71 -16 176 -37
233 -45 58 -9 152 -25 210 -37 58 -12 142 -22 187 -22 l82 -1 113 76 c62 42
148 106 191 142 92 78 247 181 375 251 50 28 92 56 92 64 0 8 3 11 7 7 4 -4
11 -44 14 -89z m-3074 57 c-3 -3 -12 -4 -19 -1 -8 3 -5 6 6 6 11 1 17 -2 13
-5z m1767 -33 c16 -18 16 -20 -16 -39 -18 -10 -55 -22 -83 -25 -27 -3 -70 -14
-94 -24 -36 -15 -48 -28 -70 -73 -23 -47 -36 -59 -92 -89 -54 -29 -70 -33
-102 -27 -34 6 -36 9 -26 29 35 67 64 90 183 148 67 32 157 72 201 88 44 17
80 30 81 31 0 0 9 -8 18 -19z m-1489 -90 c114 -41 123 -46 178 -104 l58 -62
-38 -7 c-84 -15 -111 -10 -177 35 -35 23 -87 71 -116 107 -29 36 -60 73 -69
84 -15 18 -15 18 14 4 17 -8 84 -34 150 -57z m1410 -60 c-7 -31 -46 -70 -96
-96 -28 -15 -28 -15 -34 19 -12 63 16 100 88 116 41 9 51 0 42 -39z m-155
-110 c14 -27 1 -32 -51 -22 l-44 8 35 16 c46 20 48 20 60 -2z m-600 -20 c33
-15 49 -17 69 -9 24 9 31 4 86 -54 71 -75 125 -172 128 -228 1 -33 -5 -46 -33
-75 -40 -42 -46 -43 -54 -10 -9 36 -20 31 -58 -22 -36 -51 -138 -123 -174
-123 -19 0 -84 24 -104 38 -5 4 21 22 33 22 4 0 7 -7 7 -16 0 -23 11 -16 80
50 l63 60 -6 66 c-5 66 -55 216 -93 281 -11 18 -31 37 -44 41 -17 5 -12 6 16
3 23 -3 61 -13 84 -24z m-998 -22 c27 -17 47 -33 45 -35 -2 -2 -35 -10 -74
-17 l-70 -13 15 48 c9 26 20 48 26 48 5 0 31 -14 58 -31z m1963 -36 c8 -20 14
-38 12 -40 -4 -3 -152 24 -177 34 -21 7 58 35 80 28 10 -3 28 -1 41 4 13 5 25
10 26 10 2 1 10 -15 18 -36z m-1461 -509 c9 -3 16 -12 16 -20 0 -7 -6 -11 -14
-8 -9 3 -53 -24 -106 -65 -54 -41 -138 -93 -200 -124 -60 -28 -107 -56 -106
-62 1 -5 24 -15 50 -20 71 -15 100 -65 51 -87 -31 -14 -75 5 -179 78 -68 47
-78 71 -17 40 31 -17 72 -21 70 -8 0 4 -4 16 -8 27 -7 16 2 26 58 60 61 37 66
44 71 80 l5 40 55 6 c30 3 78 16 105 28 28 12 68 26 90 31 22 4 41 8 42 9 1 1
8 -2 17 -5z m994 -34 c39 -9 72 -30 168 -108 l121 -98 -59 -17 -59 -18 -96 88
c-200 182 -182 162 -151 163 15 0 49 -5 76 -10z m-1241 -215 c-15 -14 -33 -25
-40 -25 -6 0 4 11 23 25 45 31 53 31 17 0z m1668 -26 c-3 -4 -20 -11 -37 -14
-18 -4 -49 -19 -70 -33 -23 -15 -58 -27 -88 -30 -45 -4 -50 -3 -50 16 0 24 16
38 66 56 41 14 187 19 179 5z"/>
<path d="M1360 1895 c0 -8 5 -15 10 -15 20 0 9 -24 -56 -117 -42 -60 -72 -93
-82 -92 -35 3 -35 -2 3 -41 21 -22 48 -40 60 -39 18 0 18 1 3 12 -15 10 -15
13 2 47 10 20 26 42 34 49 14 12 16 5 16 -73 0 -47 4 -86 9 -86 5 0 45 -24 88
-54 143 -97 126 -92 157 -46 28 42 21 51 -19 24 -23 -15 -27 -15 -51 0 -37 25
-39 40 -9 91 23 38 30 43 42 34 9 -8 12 -22 9 -35 -11 -41 12 -35 43 11 17 25
31 50 31 56 0 15 -17 11 -24 -6 -7 -18 -56 -20 -56 -2 1 6 11 32 24 55 l22 44
32 -27 c26 -22 30 -31 25 -56 -3 -16 -1 -29 4 -29 8 0 43 51 43 64 0 9 -133
96 -147 96 -16 0 -17 -17 -2 -22 13 -4 -87 -172 -118 -201 -16 -14 -22 -15
-37 -4 -14 10 -20 32 -24 85 -4 65 -3 71 14 70 43 -3 75 13 89 45 23 54 10 82
-62 132 -72 50 -73 51 -73 30z m78 -67 c18 -18 14 -52 -8 -76 -24 -25 -30 -27
-53 -9 -16 11 -15 15 9 55 27 45 33 49 52 30z"/>
<path d="M3241 1598 c-6 -29 -16 -91 -21 -137 -5 -47 -14 -89 -19 -94 -15 -15
-31 2 -31 33 0 41 -16 46 -24 8 -8 -39 -42 -78 -69 -78 -73 0 -122 179 -67
245 28 33 104 5 122 -46 3 -8 8 -12 11 -9 3 3 0 26 -7 50 l-13 44 -47 0 c-51
-1 -85 -20 -120 -68 -28 -37 -27 -137 2 -175 41 -56 109 -72 187 -43 17 7 51
14 78 17 26 4 47 10 47 16 0 5 -7 9 -15 9 -11 0 -15 12 -15 44 0 42 1 44 36
51 20 3 40 3 44 -2 13 -15 19 -80 7 -92 -18 -18 -5 -20 56 -9 37 7 57 15 57
24 0 8 -9 14 -19 14 -11 0 -21 6 -23 13 -9 34 -124 237 -134 237 -7 0 -17 -24
-23 -52z m51 -109 c-15 -3 -28 -5 -29 -4 -1 0 1 20 4 43 l6 43 23 -38 23 -38
-27 -6z"/>
<path d="M1750 1631 c0 -5 5 -11 12 -13 7 -3 -2 -27 -27 -69 -76 -127 -95
-150 -116 -144 -12 4 -19 2 -19 -7 1 -13 82 -68 101 -68 12 0 12 17 -1 25 -16
10 -12 35 10 71 l21 33 44 -16 c54 -18 92 -4 114 41 20 43 4 75 -59 118 -55
37 -80 46 -80 29z m86 -87 c8 -32 -20 -74 -50 -74 -36 0 -37 10 -9 60 29 51
49 55 59 14z"/>
<path d="M2850 1583 c-61 -7 -68 -12 -42 -32 26 -19 52 -126 52 -213 0 -56
-17 -65 -22 -11 -4 45 -24 54 -33 14 -8 -36 -22 -49 -63 -57 -38 -8 -46 7 -62
113 -14 97 -13 121 5 125 8 2 11 8 7 14 -5 9 -23 9 -64 2 -56 -10 -75 -23 -42
-30 11 -2 22 -25 34 -68 9 -36 23 -87 31 -113 13 -45 12 -50 -5 -63 -24 -17
-15 -29 11 -16 20 10 155 31 193 29 60 -2 110 4 110 14 0 6 -9 18 -20 27 -17
14 -24 40 -36 127 -11 76 -12 111 -5 113 15 5 14 32 -1 30 -7 0 -29 -3 -48 -5z"/>
<path d="M1915 1521 c4 -17 -6 -77 -25 -156 -16 -70 -30 -131 -30 -136 0 -25
36 0 133 91 59 55 114 100 122 100 25 0 17 18 -15 35 -38 20 -41 19 -35 -7 5
-18 -6 -35 -51 -81 -31 -31 -64 -62 -74 -67 -17 -9 -17 -6 -3 58 22 96 39 133
57 126 34 -13 14 16 -28 40 -56 33 -59 32 -51 -3z"/>
<path d="M2425 1497 c-79 -15 -80 -15 -56 -35 26 -21 72 -223 52 -230 -6 -2
-11 -10 -11 -18 0 -10 6 -11 23 -5 12 4 44 11 71 15 55 9 96 42 96 78 0 25
-43 78 -62 78 -9 0 -9 3 0 12 18 18 15 63 -5 86 -24 27 -48 31 -108 19z m53
-29 c23 -30 23 -57 1 -79 l-23 -23 -12 49 c-7 27 -11 52 -8 57 8 12 30 10 42
-4z m50 -160 c10 -21 10 -33 2 -48 -21 -40 -53 -15 -75 58 -6 22 -4 23 27 20
24 -2 36 -10 46 -30z"/>
<path d="M2188 1458 c-44 -9 -67 -28 -34 -28 17 0 19 -5 42 -134 18 -96 18
-99 -1 -112 -31 -23 -11 -26 70 -11 91 18 119 39 118 91 -1 43 -8 55 -39 67
-21 7 -23 12 -14 28 16 31 12 69 -10 91 -22 22 -55 24 -132 8z m78 -33 c20
-30 12 -71 -15 -78 -21 -5 -31 16 -31 71 0 39 22 43 46 7z m42 -128 c21 -25
24 -63 7 -81 -34 -33 -56 -15 -69 57 -7 36 -6 37 22 37 16 0 34 -6 40 -13z"/>
<path d="M5466 1831 c-3 -5 12 -67 34 -137 29 -94 38 -138 34 -162 -6 -31 -5
-33 12 -23 56 32 67 61 24 61 -11 0 -22 11 -28 29 -10 28 -8 31 29 55 37 25
41 26 69 11 25 -13 29 -19 20 -35 -17 -32 5 -31 49 2 43 34 54 53 23 43 -13
-4 -49 16 -113 61 -52 37 -106 75 -121 85 -15 11 -29 15 -32 10z m89 -115 l20
-15 -20 -15 c-23 -17 -28 -13 -43 32 -10 29 -9 31 6 23 9 -5 26 -16 37 -25z"/>
<path d="M5303 1731 c-36 -30 -42 -45 -15 -37 9 3 23 2 30 -2 15 -10 103 -134
98 -139 -2 -2 -54 14 -116 36 -110 39 -114 40 -142 23 -34 -20 -32 -36 5 -37
21 0 41 -17 93 -80 58 -71 64 -84 59 -112 -6 -35 5 -43 25 -18 7 8 18 15 25
15 7 0 16 7 19 16 8 22 9 22 -16 17 -19 -3 -33 10 -76 68 -29 39 -51 73 -49
76 2 2 61 -16 131 -41 69 -24 126 -40 126 -36 0 8 -94 141 -142 199 -21 27
-25 38 -16 48 23 28 -7 31 -39 4z"/>
<path d="M4085 1529 c-9 -38 10 -62 19 -25 5 21 13 26 36 26 27 0 30 -3 30
-32 -1 -40 -18 -175 -25 -199 -3 -10 -15 -19 -26 -21 -35 -5 -25 -23 16 -29
22 -3 50 -9 63 -13 26 -9 28 0 6 25 -14 15 -14 27 2 131 9 62 19 116 23 120 3
3 19 4 34 1 21 -4 29 -13 34 -35 7 -34 20 -26 25 16 l3 30 -95 17 c-133 25
-137 25 -145 -12z"/>
<path d="M5010 1517 c0 -2 14 -63 31 -137 23 -103 28 -139 20 -157 -14 -31 -1
-36 37 -13 32 20 45 47 17 36 -17 -6 -35 22 -35 56 0 18 10 29 37 42 36 17 36
17 62 -9 21 -20 23 -27 12 -34 -7 -5 -10 -14 -7 -20 5 -7 23 -3 57 14 52 27
63 45 28 45 -12 0 -66 39 -126 90 -57 50 -111 90 -119 90 -8 0 -14 -1 -14 -3z
m86 -144 c-25 -14 -32 -8 -41 37 l-8 34 35 -29 c33 -29 34 -30 14 -42z"/>
<path d="M4351 1384 c-41 -82 -70 -128 -82 -131 -10 -3 -19 -9 -19 -13 0 -8
49 -20 78 -20 15 0 15 1 0 16 -14 14 -14 20 -1 54 10 25 20 37 32 34 73 -14
71 -12 71 -53 0 -25 -5 -41 -15 -45 -30 -11 -14 -23 45 -33 63 -10 73 -4 46
26 -8 9 -21 54 -30 101 -10 47 -22 109 -27 138 -6 28 -16 52 -22 52 -7 0 -41
-57 -76 -126z m68 -22 c1 -20 -3 -22 -21 -16 -31 9 -31 7 -11 49 17 35 18 36
24 14 4 -13 7 -34 8 -47z"/>
<path d="M4590 1485 c0 -3 6 -12 13 -20 10 -10 11 -32 4 -101 -12 -121 -19
-147 -47 -161 -18 -9 -21 -13 -10 -17 33 -12 205 -35 211 -28 4 4 9 22 12 40
8 38 -13 45 -28 10 -8 -18 -20 -24 -51 -26 -64 -5 -69 8 -50 133 17 114 20
125 41 125 14 0 28 27 17 34 -13 8 -112 18 -112 11z"/>
<path d="M4878 1463 c-49 -4 -67 -26 -30 -35 15 -4 20 -19 25 -68 10 -96 8
-175 -5 -188 -18 -18 -7 -21 54 -15 53 5 56 7 39 22 -14 12 -21 43 -31 128
-12 115 -10 133 16 133 8 0 14 7 14 15 0 8 -8 14 -17 13 -10 -1 -39 -3 -65 -5z"/>
</g>
</svg>
