<?xml version="1.0" standalone="no"?>
<!DOCTYPE svg PUBLIC "-//W3C//DTD SVG 20010904//EN"
 "http://www.w3.org/TR/2001/REC-SVG-20010904/DTD/svg10.dtd">
<svg version="1.0" xmlns="http://www.w3.org/2000/svg"
 width="700.000000pt" height="700.000000pt" viewBox="0 0 700.000000 700.000000"
 preserveAspectRatio="xMidYMid meet">
<metadata>
Created by potrace 1.14, written by Peter Selinger 2001-2017
</metadata>
<g transform="translate(0.000000,700.000000) scale(0.100000,-0.100000)"
fill="#000000" stroke="none">
<path d="M3278 6995 c-1 -1 -43 -6 -91 -10 -48 -3 -96 -8 -105 -10 -9 -1 -39
-6 -67 -9 -27 -4 -72 -11 -100 -16 -27 -5 -63 -12 -80 -15 -16 -3 -43 -8 -60
-11 -68 -11 -298 -76 -410 -114 -115 -40 -134 -47 -217 -84 -20 -9 -39 -16
-43 -16 -13 0 -309 -152 -384 -198 -79 -47 -242 -153 -251 -162 -3 -3 -41 -32
-85 -65 -44 -32 -88 -66 -97 -75 -9 -8 -41 -35 -72 -60 -65 -53 -324 -313
-383 -385 -23 -28 -55 -68 -73 -90 -17 -22 -36 -47 -43 -55 -64 -79 -211 -303
-269 -410 -20 -36 -47 -86 -61 -112 -81 -148 -194 -435 -253 -643 -42 -146
-84 -348 -99 -471 -4 -33 -9 -68 -11 -79 -18 -99 -26 -557 -12 -700 4 -38 10
-97 13 -130 10 -98 44 -282 76 -415 123 -502 360 -976 692 -1382 142 -175 379
-408 541 -533 22 -16 51 -39 65 -51 53 -43 220 -153 331 -219 204 -120 434
-225 680 -308 138 -47 413 -114 540 -131 19 -2 73 -11 120 -18 92 -14 705 -19
815 -6 116 13 151 19 255 38 139 26 133 25 225 49 543 139 1052 409 1464 775
149 132 363 366 479 521 28 39 55 75 59 80 18 23 143 215 143 219 0 2 17 33
38 67 49 81 161 310 202 414 110 274 201 617 226 850 3 28 9 77 14 110 9 63 7
725 -3 761 -3 12 -8 45 -12 75 -20 165 -82 439 -136 603 -30 89 -69 197 -84
231 -7 17 -24 57 -38 90 -104 249 -290 556 -486 800 -90 113 -315 347 -426
445 -157 137 -391 302 -585 413 -167 95 -511 245 -650 282 -8 3 -62 18 -119
34 -118 34 -317 77 -451 97 -8 1 -46 5 -85 9 -38 4 -81 9 -95 12 -28 5 -536
13 -542 8z"/>
</g>
</svg>
