<?xml version="1.0" encoding="utf-8"?>
<!-- Generator: Adobe Illustrator 27.0.0, SVG Export Plug-In . SVG Version: 6.00 Build 0)  -->
<svg version="1.1" id="Livello_1" xmlns="http://www.w3.org/2000/svg" xmlns:xlink="http://www.w3.org/1999/xlink" x="0px" y="0px"
	 viewBox="0 0 383.2 500.7" style="enable-background:new 0 0 383.2 500.7;" xml:space="preserve">
<style type="text/css">
	.st0{fill:#F35923;}
	.st1{fill:#EDE8DD;}
</style>
<g>
	<path class="st0" d="M312.5,0.3c15.1-0.1,30.1-0.2,45.2-0.3c11.2,0.4,19.3,0.6,21.9,0.6c0.5,0,1.8-0.1,2.7,0.8
		c0.6,0.6,0.7,1.5,0.7,2.7c0,45,0,89.9,0,134.9c0,118.8,0.1,237.6,0.2,356.5c0,3.9-1.4,5.2-5.3,5.2c-58.7-0.1-117.4-0.1-176,0
		c-1.2,0-1.6-0.3-1.5-1.5c1.9-18.5-7.2-31.7-21-42.4c-8.7-6.7-18-12.5-23-22.9c-5.8-12.1-3.2-18.2,9.2-22.9c10.7-4,21.8-3.7,32.8-4
		c13.5-0.4,27.1,0.7,40.6-1.6c8.8-1.5,14.7-8.1,15.9-16.2c1.4-9.2-3.1-17.9-11.8-22.8c-4.8-2.7-10-4.6-14.4-7.8
		c-6.8-5-5.5-11.4,3.2-19.1c3.5-3.1,7.2-5.9,10.9-8.8c1.6-1.3,3.3-1.5,5-0.6c3.1,1.6,3.8,4.7,3.8,7.8c0.1,11.2,3.3,16.7,11.3,18.6
		c7.5,1.7,11.9-3.1,16-8.1c1.7-2,3.5-3.8,5.3-5.7c2.5,2.3,2.3,5.5,2.7,8.5c1.1,8.3-1.8,14.9-7.9,20.6c-5.5,5.2-2.2,11,0.1,16.6
		c5.5,13.3,0.8,21.1-13.6,23.4c-17.1,2.7-34.7,3.2-50.3,12c-9.4,5.2-17.8,10.8-18.9,23.1c-0.7,7.9,5.8,15.2,14.7,16.5
		c11.5,1.8,17.9-5.2,24.8-12c2-2,3.9-4,6.2-5.6c6.6-4.9,10.4-3.3,12,5c1,5.2,2.6,10,8.7,11.2c6.9,1.4,12.2-1.5,16.4-6.8
		c1.3-1.6,2.9-3,4.3-4.5c0.1-0.1,0.5-0.2,0.5-0.2c0.7,1.5,1.7,3,1.9,4.5c1.1,14.2,11.2,21.2,24.8,16.5c4.1-1.4,5.1-5.5,6.1-9.3
		c0.4-1.8,1.2-3.5,1.8-5.2c1.5,1.3,3.3,2.3,4.5,3.8c5.8,7.4,19.2,10.8,25.4,5.9c5.7-4.5,2.8-10.5,2.1-16c-0.3-2.3-1-4.9,1.2-6.2
		c1.7-1,3.7,0.2,5.4,1.3c8.9,5.2,18.2-0.5,18.4-11.1c0.2-14.2-8.9-23.5-26-28c-7-1.8-14-4.8-18.4-11.1c-2.4-3.5-0.2-7.5,0.3-11.2
		c1.2-8.9-5.2-15.5-6.4-23.7c-3.2-22.1-1.6-42.2,15.1-60.1c18.1-19.3,31.1-42,30-69.9c-0.8-20.7-10.2-37.9-23.6-53.1
		c-16.2-18.4-38-24.8-60.9-29.4c-15.7-3.1-28.1-12.6-40.6-22.2c-16.4-12.7-49.9-12.1-64.9,3.5c-10.3,10.6-23.5,15.9-38.1,17.9
		c-18.5,2.6-33,11.6-44,27.1c-5.3,7.4-13.1,4.6-20.3,1.8c-21.3-8.1-41-5.7-58.9,9.1c-1.2,1-3,3.4-4.5,2c-1.3-1.2,0.8-3.1,1.6-4.6
		c7.9-14.9,14-30.9,24.2-44.4c12.1-15.9,27.3-28.8,41.6-42.5c10.2-9.8,19.8-20.6,31.3-28.7c37.3-26.3,71.6-40.5,97.6-48.9
		c11.9-3.8,37.8-11.5,71.8-15.6C294.4,1.3,304.7,0.6,312.5,0.3z"/>
	<path class="st0" d="M118.5,341.2c0,13.4,0.4,26.9-0.2,40.3c-0.3,8.1-6.6,12.2-13.4,15.1c-7.9,3.4-16,6.6-24,9.8
		c-6.3,2.5-8.6-3-11.7-6.2c-9.9-10.5-19.7-21.1-29.2-32C24.5,350.5,14.1,330,9.2,306.9c-0.3-1.4-0.1-3.6,0.8-4.4
		c1-0.9,2.8,0.1,4.1,1.1c14.1,10,30.6,12.5,47,16c12,2.5,17.1,12.6,23.1,21.9c6.1,9.4,7,20.3,10.2,30.5c1.3,4.2,3.5,8,8.6,7.3
		c5.7-0.8,7.2-5.3,7.6-10.3c0.9-11-1.2-22.3,2.7-33.1c0.7-1.9,0.8-5.5,4-4.6c1.8,0.5,0.4,3.4,0.8,5.2c0.3,1.5,0.1,3.2,0.1,4.8
		C118.2,341.2,118.3,341.2,118.5,341.2L118.5,341.2z M61.2,335.8c3-0.6,4.2-2.9,3.4-5.9c-2-7.7-8.6-7.9-14.8-8.3
		c-1.1-0.1-2.1-0.1-3.2-0.2c0.6,1,1,2,1.8,2.9C51.9,328.7,53.4,335.3,61.2,335.8L61.2,335.8z"/>
</g>
<g>
	<path class="st1" d="M220.2,127.7c8.9,2.1,16.8,6.5,16.8,6.5c12.1,6.7,21.4,14.1,29,17.2c1.3,0.5,2.5,0.9,4,1.3
		c9,2.6,18.2,4.5,27.3,6.8l-0.1,0.1l0.1-0.1c1.4,0.5,2.9,1,4.3,1.4c0.6,0.2,1.3,0.5,1.9,0.7l-0.1,0.1l0.1-0.1
		c0.4,0.2,0.8,0.3,1.2,0.5l-0.1,0.1l0.1-0.1c0.4,0.2,0.8,0.3,1.2,0.5l-0.1,0.1l0.1-0.1c3.5,1.7,7.2,3.1,10.6,5.1
		c10.3,6.1,19.9,13,27.6,22.4c16.2,19.8,24.1,41.3,12.6,66.3c-4.7,10.2-8.8,20.8-16.3,29.6c-0.2,0.2-0.5,0.4-0.5,0.4
		c-0.1,0.1-0.2,0.1-0.2,0.2c0-0.1,0-0.1,0-0.2c0,0,0-0.2,0-0.5c0-0.4-0.5-33.8-0.6-35.9l-0.4-1.4c-0.2-0.8-0.6-2.1-0.8-2.9
		c-0.1-0.2-0.2-0.5-0.2-0.7c-0.2-0.5-0.3-1-0.5-1.4c-0.1-0.2-0.2-0.5-0.2-0.7l0.1-0.1c0-0.1,0-0.1-0.1-0.2c-0.5-1.1-1-2.2-1.4-3.4
		c0,0,0,0,0-0.1v0.1c-2.2-4-4.3-8-6.5-12c-0.2-0.2-0.3-0.5-0.5-0.7s-0.3-0.5-0.5-0.7c-1.9-3.1-4.6-5.7-7.6-7.5
		c-14.6-8.6-35.4-3.1-46.6,12c-12.2,16.4-11.9,34.4-7.8,53.2c3.1,14,10.3,26.4,15.1,39.8c0.6,1.8,0.6,3.3-0.5,4.9
		c-4,6.1-9.1,11.3-14.1,16.6c-1.2,1.2-2.8,0.9-4.3,0.6c-1.4-0.3-1.9-1.6-1.8-2.8c0.9-8.1-2.3-13.8-8.8-18.9
		c-6.6-5.1-5.4-12.8-3.4-20.1c0.7-2.7,0.1-5.4-1.8-7.3c-0.3-0.4-3.6,1.2-4.6,2.5c-2.8,3.7-4,8.3-3.1,12.7c1.6,7.4,0.9,13.1-6.7,17.2
		c-6.8,3.8-11.8,9.7-15.2,16.9c-4.4,9.5-2.5,16.9,6.2,22.6c4.9,3.2,11.1,4.1,15.5,8.2s7.3,9.3,6.1,15.6c-0.9,4.7-5.2,5.7-9.3,6.1
		c-16.2,1.7-32.4,1.8-48.7,2c-11.7,0.1-23,2.4-32.6,9.9c-1,0.8-2,1.6-3,2.4c0-1.2,0.1-2.5,0.1-3.8c0.7-22.9,11.2-42.5,21.1-62.3
		l0.1,0.1l-0.1-0.1c0.3-0.7,0.6-1.4,1-2.2l0.1,0.1l-0.1-0.1c0.2-0.6,0.5-1.1,0.7-1.7l0.1,0.1l-0.1-0.1c0.2-0.4,0.3-0.8,0.5-1.2
		l0.1,0.1l-0.1-0.1c0.2-0.6,0.5-1.3,0.7-1.9l0.1,0.1l-0.1-0.1c0.5-1.4,1-2.9,1.4-4.3l0.1,0.1l-0.1-0.1c0.1-0.3,0.2-0.6,0.2-1
		l0.1,0.1l-0.1-0.1c0.1-0.3,0.2-0.6,0.2-1l0.1,0.1L177,333c0.1-0.3,0.2-0.6,0.2-1l0.1,0.1l-0.1-0.1c0.1-0.3,0.2-0.6,0.2-1l0.1,0.1
		l-0.1-0.1c0.1-0.4,0.2-0.8,0.2-1.2l0.1,0.1l-0.1-0.1c0.1-0.4,0.2-0.8,0.2-1.2l0.1,0.1l-0.1-0.1c1.5-7,1.5-14.2,0.8-21.2
		c-1-10.1-0.9-20,1.6-29.9v0.1l0,0h-0.1c0.1-0.3,0.2-0.6,0.2-1v0.1l0,0h-0.1c0.2-0.6,0.3-1.1,0.5-1.7h0.1h-0.1
		c0.4-1.2,0.8-2.4,1.2-3.6h0.1h-0.1c0.1-0.2,0.2-0.5,0.2-0.7h0.1h-0.1c0.2-0.3,0.3-0.6,0.5-1c0,0,0.1,0,0.1-0.1s0-0.1-0.1-0.2
		c1.8-3.6,3.5-7.2,5.3-10.8h0.1h-0.1c4.3-8.1,11.3-14.5,14.6-23.3l0.1,0.1l-0.1-0.1c0.2-0.4,0.3-0.8,0.5-1.2l0.1,0.1l-0.1-0.1
		c0.4-1.1,0.8-2.2,1.2-3.4l0.1,0.1l-0.1-0.1c0.2-0.6,0.3-1.1,0.5-1.7l0.1,0.1l-0.1-0.1c0.2-0.6,0.3-1.1,0.5-1.7l0.1,0.1l-0.1-0.1
		c0.1-0.3,0.2-0.6,0.2-1l0.1,0.1l-0.1-0.1c0.1-0.4,0.2-0.8,0.2-1.2l0.1,0.1l-0.1-0.1c0.1-0.4,0.2-0.8,0.2-1.2l0.1,0.1l-0.1-0.1
		c0.3-5.4,1.1-10.9,0.8-16.3c-0.6-9.3-2.1-18.6-3.2-27.8l0.1-0.1l-0.1,0.1c-0.1-0.3-0.2-0.6-0.2-1l0.1-0.1l-0.1,0.1
		c-0.3-0.8-0.6-1.6-1-2.4l0.1-0.1l-0.1,0.1c-0.2-0.4-0.3-0.8-0.5-1c-0.7-0.6-1.5-0.9-1.9,0.3c-0.4,1.4-1,2.9-0.9,4.3
		c0.4,9.5,1,18.9,1.4,28.4c0.7,16.6-6.6,30.3-15.4,43.7c-9.9,15.1-14.5,31.9-13.1,50.1c0.9,11.6,1,23-3.2,34.2
		c-5.6,15-15.2,28.1-19.4,43.8c-3.5,13.2-6.5,26.5-5.9,40.2c0.5,13.1,8.7,23,15.6,33.4c7.4,11.1,16.8,21.1,21.3,34
		c0.5,1.5,1.1,3.1,0.5,4.5c-0.5,0.9-1.5,1.5-2.5,1.5h-0.6c-0.2,0-0.3,0-0.5-0.1c-6.7-1.6-11.4-5.6-14.6-11.6
		c-6.8-12.9-13.8-25.4-28.3-31.5c-8.8-3.7-13.9-2.1-14.8,5.5c-1.2,10.8,3.1,20.1,7.5,29.4c0.4,0.8,1.8,2,0.4,2.8
		c-0.7,0.3-1.6-1-2-1.7c-6.1-10.2-10.7-21.2-17.7-30.9c-7.7-10.7-15.1-12.3-22.4-4.2c-4.3,4.8-3.4,11.2-5.1,16.8
		c-0.1,0.4-0.4,0.8-0.7,1.2c-0.6,0.7-1.6,0.7-2.1,0c-0.1-0.1-0.2-0.3-0.3-0.4c-0.8-1.9-1.7-3.8-2.1-5.9c-1.4-6.6-5-11.5-11.4-13.7
		c-6.9-2.3-13.6-1-19.2,3.8c-8.3,7-14.4,16.1-21.7,24c-0.6,0.7-1.4,1.1-2.3,1.5c-1.3,0.6-2.8-0.3-2.9-1.8c0-0.6,0-1.2,0.3-1.7
		c5.7-11,11.8-21.7,20.8-30.4c17.1-16.5,37.7-27.3,59.6-35.6c10.3-3.9,20.2-8,25.4-18.7c3.8-7.9,3.3-16.4,2.8-24.9
		c-0.7-11.3-0.9-22.6-1.8-33.9c-0.7-8.6,0.4-16.9,1.8-25.3l0.1,0.1l-0.1-0.1c0.1-0.4,0.2-0.8,0.2-1.2l0.1,0.1l-0.1-0.1
		c0.1-0.4,0.2-0.8,0.2-1.2l0.1,0.1l-0.1-0.1c0.2-0.7,0.3-1.4,0.5-2.2l0.1,0.1l-0.1-0.1c0.1-0.3,0.2-0.6,0.2-1l0.1,0.1l-0.1-0.1
		c0.1-0.3,0.2-0.6,0.2-1l0.1,0.1l-0.1-0.1c0.1-0.3,0.2-0.6,0.2-1l0.1,0.1l-0.1-0.1c0.1-0.3,0.2-0.6,0.2-1l0.1,0.1l-0.1-0.1
		c0.2-0.6,0.3-1.1,0.5-1.7l0.1,0.1l-0.1-0.1c0.2-0.6,0.3-1.1,0.5-1.7l0.1,0.1l-0.1-0.1c0.2-0.5,0.3-1,0.5-1.4l0.1,0.1l-0.1-0.1
		c0.7-2,0.8-2,1.5-4l0,0c0.1-0.3,0.2-0.6,0.2-1l0.1,0.1l-0.1-0.1c0.2-0.6,0.5-1.3,0.7-1.9l0.1,0.1l-0.1-0.1c0.6-1.6,1.3-3.2,1.9-4.8
		l0.1,0.1l-0.1-0.1c0.2-0.6,0.5-1.1,0.7-1.7l0.1,0.1l-0.1-0.1c1.4-3.2,2.9-6.4,4.3-9.6l0.1,0.1l-0.1-0.1c0.2-0.6,0.5-1.1,0.7-1.7
		l0.1,0.1l-0.1-0.1c0.2-0.4,0.3-0.8,0.5-1.2l0.1,0.1l-0.1-0.1c0.6-1.7,1.1-3.4,1.7-5l0.1,0.1l-0.1-0.1c1.1-4.5,2-9,0.8-13.5
		c-1.9-7-4.2-13.9-6.3-20.8l0.1-0.1l-0.1,0.1c-0.1-0.4-0.2-0.8-0.2-1.2l0.1-0.1l-0.1,0.1c-1.9-10.6-2.4-21.1-0.2-31.7l0.1,0.1
		l-0.1-0.1c0.2-0.7,0.3-1.4,0.5-2.2l0.1,0.1l-0.1-0.1c0.1-0.3,0.2-0.6,0.2-1l0.1,0.1l-0.1-0.1c0.2-0.6,0.3-1.1,0.5-1.7l0.1,0.1
		l-0.1-0.1c0.2-0.7,0.5-1.4,0.7-2.2l0.1,0.1l-0.1-0.1c0.2-0.6,0.5-1.3,0.7-1.9l0.1,0.1l-0.1-0.1c0.2-0.4,0.3-0.8,0.5-1.2l0.1,0.1
		l-0.1-0.1c2.9-8.1,8.6-14.3,14.5-20.4c0.6-0.7,0.9-1.7,1.3-2.6c-1,0-2.1-0.3-3,0c-13.4,4.7-19.6,15.2-22.8,28.3
		c-0.3,1.3-0.8,3-2.5,2.2c-2.8-1.2-5.7-1.1-8.6-1.3c-6.5-0.3-12.5-2.2-15.7-8.1c-2-3.6,2.8-4.5,4.4-6.7c5.5-7.4,12.2-13.3,21-16.6
		l0.1,0.1l-0.1-0.1c0.4-0.2,0.8-0.3,1.2-0.5l0.1,0.1l-0.1-0.1c0.4-0.2,0.8-0.3,1.2-0.5l0.1,0.1l-0.1-0.1c0.2-0.1,0.5-0.2,0.7-0.2
		l0.1,0.1l-0.1-0.1c0.2-0.1,0.5-0.2,0.7-0.2l0.1,0.1l-0.1-0.1c0.2-0.1,0.5-0.2,0.7-0.2l0.1,0.1L132,158c0.2-0.1,0.5-0.2,0.7-0.2
		l0.1,0.1l-0.1-0.1c0.6-0.2,1.1-0.3,1.7-0.5l0.1,0.1l-0.1-0.1c5.6-1,11.2-2.1,16.8-3.1l0.1,0.1l-0.1-0.1c1.3-0.3,2.6-0.6,3.8-1
		l0.1,0.1l-0.1-0.1c0.6-0.2,1.1-0.3,1.7-0.5l0.1,0.1l-0.1-0.1c0.2-0.1,0.5-0.2,0.7-0.2l0.1,0.1l-0.1-0.1c0.2-0.1,0.5-0.2,0.7-0.2
		l0.1,0.1l-0.1-0.1c0.2-0.1,0.5-0.2,0.7-0.2l0.1,0.1l-0.1-0.1c0.2-0.1,0.5-0.2,0.7-0.2l0.1,0.1l-0.1-0.1c0.2-0.1,0.5-0.2,0.7-0.2
		l0.1,0.1l-0.1-0.1c0.6-0.2,1.3-0.5,1.9-0.7l0.1,0.1l-0.1-0.1c0.4-0.2,0.8-0.3,1.2-0.5l0.1,0.1l-0.1-0.1c0.6-0.2,1.1-0.5,1.7-0.7
		l0.1,0.1l-0.1-0.1c4.9-2.9,10.1-5.6,14.8-8.8c5.3-3.6,10-8,16.2-10.2l0.1,0.1l-0.1-0.1c0.4-0.2,0.8-0.3,1.2-0.5l0.1,0.1l-0.1-0.1
		c1.5-0.5,3-1,4.6-1.4l0.1,0.1l-0.1-0.1c1.1-0.3,2.1-0.7,3.2-0.9c2.4-0.6,4.6-0.7,6.2-0.8c1.1-0.1,1.6-0.1,2.3-0.1
		C214.1,127,217,126.9,220.2,127.7z"/>
	<path class="st1" d="M97.3,365.2c-0.1-0.3-0.2-0.6-0.2-0.9c-0.1-0.3-0.2-0.6-0.2-0.9c0,0,0,0,0-0.1c0,0,0,0,0,0.1
		c-0.1-0.3-0.2-0.6-0.2-1c0,0,0,0,0-0.1v0.1c-0.2-0.7-0.3-1.4-0.5-2.2c0,0,0,0,0-0.1c0,0,0,0,0,0.1c-0.1-0.3-0.2-0.6-0.2-1
		c0,0,0,0,0-0.1c0,0,0,0,0,0.1c-0.3-1.4-0.6-2.9-1-4.3c0,0,0,0,0-0.1v0.1c-0.2-0.7-0.3-1.4-0.5-2.2c0,0,0,0,0-0.1c0,0,0,0,0,0.1
		c-0.1-0.3-0.2-0.6-0.2-1c0,0,0,0,0-0.1c0,0,0,0,0,0.1c-0.1-0.3-0.2-0.6-0.2-1c0,0,0,0,0-0.1c0,0,0,0,0,0.1
		c-0.2-0.9-0.5-1.8-0.7-2.6c0,0,0,0,0-0.1c0,0,0,0,0,0.1c-0.2-0.6-0.3-1.1-0.5-1.7c0,0,0,0,0-0.1c0,0,0,0,0,0.1
		c-0.2-0.5-0.3-1-0.5-1.4c0,0,0,0,0-0.1c0,0,0,0,0,0.1c-0.2-0.6-0.5-1.3-0.7-1.9c0,0,0,0,0-0.1c0,0,0,0,0,0.1
		c-0.2-0.4-0.3-0.8-0.5-1.2h0.1v0.1c-3.3-7.5-7.6-14.3-13.7-19.9c-0.9-0.8-1.9-1.6-2.8-2.4c0,0-0.1-0.1-0.2-0.1
		c-2.5-1.3-4.9-2.7-7.4-4h0.1v0.1c-0.3-0.2-0.6-0.3-1-0.5c-0.1,0-0.2,0-0.2,0c-1.2-0.4-2.4-0.8-3.6-1.2c0,0,0,0,0-0.1c0,0,0,0,0,0.1
		c-0.3-0.1-0.6-0.2-1-0.2c0,0,0,0,0-0.1c0,0,0,0,0,0.1c-1-0.2-1.9-0.5-2.9-0.7c0,0,0,0,0-0.1c0,0,0,0,0,0.1c-0.3-0.1-0.6-0.2-1-0.2
		c0,0,0,0,0-0.1c0,0,0,0,0,0.1c-0.6-0.2-1.1-0.3-1.7-0.5c0,0,0,0,0-0.1c0,0,0,0,0,0.1c-1-0.3-2.1-0.6-3.1-1c0,0,0,0,0-0.1
		c0,0,0,0,0,0.1c-2.3-0.8-4.6-1.6-7-2.4c-0.3-0.1-0.6-0.2-1-0.2h0.1v0.1c-0.2-0.1-0.5-0.2-0.7-0.2c0,0,0,0,0-0.1c0,0,0,0,0,0.1
		c-0.8-0.3-1.6-0.6-2.4-1c-0.3-0.1-0.6-0.2-1-0.2c0,0,0,0,0-0.1c0,0,0,0,0,0.1c-0.8-0.3-1.6-0.6-2.4-1c0,0,0,0,0-0.1c0,0,0,0,0,0.1
		c-1.7-0.9-3.4-1.8-5-2.6c0,0,0,0,0-0.1c0,0,0,0,0,0.1c-7.3-5-13-11-18-17.8c-4.3-5.8-9.6-10.9-12.6-17.6c-1.2-2.6-1.8-5.4-2.7-8.2
		c0-0.1,0-0.2,0-0.3v-2.5l0.1-0.1c0-0.1,0-0.1-0.1-0.2c0-1.1,0-2.2,0-3.4l0.1-0.1c0-0.1,0-0.1-0.1-0.2v-3c0-0.1,0-0.1,0-0.2
		c1.1-4.8,2-9.7,3.3-14.5c4.6-16.1,13.7-29.3,26.5-40c12.7-10.6,27.9-12.4,43.7-11.4c2.6,0.2,1.7,1.8,0.9,3.1c-1.1,2-2.3,4-3.5,6
		c-0.7,1.2-1.1,2.6-1,4l0.1,3.5c0,0.9,0.1,1.7,0.4,2.6c0.1,0.2,0.2,0.5,0.3,0.6c0.1,0.2,0.2,0.4,0.3,0.6v0.1v-0.1
		c4,9.8,14.1,11.1,22,15.5c1.4,0.8,4-0.4,4.3-2c0.2-1.1-1.2-2.9-2.9-3.9c-4.9-2.9-10.4-5.2-12.7-11.1c-1.4-2.6-0.4-4.9,1.1-7.1
		c2.4-3.5,6.4-5,9.7-3.5c9.7,4.5,19.9,7.5,29.9,10.9c1.1,0.4,1.8,2,2.7,3v0.3l0.1-0.1c0.1,1,0.2,1.9,0.2,2.9h-0.1h0.1
		c-1.4,3.6-5.5,4.2-7.6,7c-1.1,1.5-3.5,3.1-1.4,5c2.1,1.9,4.4,0.1,6.4-1.2c1.1-0.7,2.3-1.2,3.4-1.8c0.1,0.4,0.3,0.9,0.4,1.3v0.1
		v-0.1c0.1,0.2,0.2,0.5,0.2,0.7v0.1v-0.1l0.7,2.4v0.1v-0.1c0.2,0.5,0.3,1,0.5,1.4v0.1v-0.1c0.4,1.3,0.8,2.6,1.2,3.8v0.1v-0.1
		c0.2,0.5,0.3,1,0.5,1.4v0.1v-0.1c0.3,1,0.6,2.1,1,3.1v0.1v-0.1c0.1,0.2,0.2,0.5,0.2,0.7v0.1v-0.1c0.2,0.8,0.5,1.6,0.7,2.4v0.1V236
		l0.2,0.7v0.1v-0.1c0.2,0.6,0.3,1.1,0.5,1.7v0.1v-0.1c0.2,0.6,0.3,1.1,0.5,1.7v0.1v-0.1c0.2,0.6,0.3,1.1,0.5,1.7v0.1v-0.1
		c0.2,0.9,0.5,1.8,0.7,2.6v0.1v-0.1c0.1,0.3,0.2,0.6,0.2,1v0.1v-0.1c0.1,0.3,0.2,0.6,0.2,0.9v0.1v-0.1c0.2,0.7,0.3,1.4,0.5,2.2v0.1
		v-0.1c0.1,0.3,0.2,0.6,0.2,1v0.1v-0.1c0.1,0.4,0.2,0.8,0.2,1.2v0.1v-0.1c0.8,2.4,0.5,4.8,0,7.2h-0.1h0.1c-0.2,0.8-0.3,1.6-0.5,2.4
		h-0.1h0.1l-0.2,1h-0.1h0.1c-0.1,0.3-0.2,0.6-0.2,1h-0.1h0.1c-0.2,0.6-0.3,1.1-0.5,1.7h-0.1h0.1c-0.1,0.2-0.2,0.5-0.2,0.7
		s-0.2,0.5-0.2,0.7l-0.1-0.1l0.1,0.1c-0.2,0.5-0.3,1-0.5,1.5l-0.1-0.1l0.1,0.1c-0.1,0.2-0.2,0.5-0.2,0.7l-0.1-0.1l0.1,0.1
		c-0.1,0.2-0.2,0.5-0.2,0.7l-0.1-0.1l0.1,0.1c-0.1,0.2-0.2,0.5-0.2,0.7l-0.1-0.1l0.1,0.1c-0.3,0.9-0.6,1.8-1,2.6l-0.1-0.1l0.1,0.1
		c-0.5,1.3-1,2.6-1.4,3.9l-0.1-0.1l0.1,0.1c-0.2,0.6-0.5,1.3-0.7,1.9l-0.1-0.1l0.1,0.1c-0.2,0.4-0.3,0.8-0.5,1.2l-0.1-0.1l0.1,0.1
		c-0.2,0.6-0.5,1.3-0.7,1.9h-0.1h0.1c-0.2,0.4-0.3,0.8-0.5,1.2h-0.1h0.1c-0.2,0.4-0.3,0.8-0.5,1.2h-0.1h0.1
		c-0.3,0.8-0.5,1.5-0.8,2.1c-0.2,0.4-0.3,0.8-0.5,1.2h-0.1h0.1c-0.2,0.6-0.5,1.3-0.7,1.9h-0.1h0.1c-0.2,0.4-0.3,0.8-0.5,1.2h-0.1
		h0.1c-0.2,0.6-0.5,1.3-0.7,1.9h-0.1h0.1c-0.1,0.2-0.2,0.5-0.2,0.7h-0.1h0.1l-0.7,1.7c0,0-0.1,0-0.1,0.1s0.1,0.1,0.1,0.2
		c-0.1,0.2-0.2,0.5-0.2,0.7h-0.1h0.1c-0.6,1.7-1.1,3.4-1.7,5h-0.1h0.1c-0.8,5.1-1.6,10.2-2.4,15.3c-0.1,0.4-0.3,0.8-0.6,1.2
		c-0.3,0.5-1,0.6-1.5,0.1c-0.3-0.3-0.5-0.6-0.8-0.9l0.1-0.1l-0.1,0.1c-1-6.1-2.1-12.2-3.1-18.2c0,0,0,0,0-0.1c0,0,0,0,0,0.1
		c-0.2-0.6-0.3-1.3-0.5-1.9c0,0,0,0,0-0.1c0,0,0,0,0,0.1c-0.2-0.6-0.3-1.1-0.5-1.7c0,0,0,0,0-0.1c0,0,0,0,0,0.1
		c-0.1-0.2-0.2-0.5-0.2-0.7c0,0,0,0,0-0.1c0,0,0,0,0,0.1c-0.1-0.2-0.2-0.5-0.2-0.7c0,0,0,0,0-0.1c0,0,0,0,0,0.1
		c-0.1-0.2-0.2-0.5-0.2-0.7c0,0,0,0,0-0.1c0,0,0,0,0,0.1c-0.2-0.4-0.3-0.8-0.5-1.2l0.1-0.1l-0.1,0.1c-4.4-4.5-17.9-5-20.9-0.7h-0.1
		h0.1c-0.7,6,3.4,8.6,8,9.7c6.5,1.5,9.5,5.5,10.5,11.7c0,0,0,0,0,0.1c0,0,0,0,0-0.1c1.9,8.3,1.4,16.6-0.3,24.9
		c-1.7,7.9-1.3,16-1.4,24c0,2.4-0.3,4.7-0.4,7.1l-0.1-0.1l0.1,0.1c-0.1,0.3-0.2,0.6-0.2,1c-0.2,3.1-0.8,4.3-1.6,4.8
		c-0.7,0.5-0.7,0.5-1.9,0.5c-3.9-0.4-4-3.1-4.8-6.9C97.4,365.9,97.4,365.5,97.3,365.2z M97.3,365.2 M97.5,366.2 M105.8,367.9
		 M50.3,265.1c0.2,1.6,0.3,4,0.9,6.2c1.9,7.6,1.5,15.8,6.2,22.5c1.1,1.5,2.7,2.5,4.5,3c0.6,0.2,1.2-0.3,1.2-1
		c-0.1-1-0.1-2.1-0.3-3.1c-0.2-1.5-0.5-3-0.8-4.5c-1.7-9-5.6-18.1-1.1-27.1c2.5-5,5.3-9.2,1.3-14.4c-0.3-0.4-0.3-0.9-1.1-0.5
		C53.9,250.1,50.6,256.3,50.3,265.1L50.3,265.1z M80,277.7c-1.1-7.1-7.4-8.6-12.7-11.2c-0.2-0.1-0.4-0.2-0.6-0.3
		c-0.7-0.2-1.4,0.5-1.1,1.2c0.1,0.2,0.1,0.4,0.2,0.6c0.9,3.1,4.6,6.9-0.9,9c-2.4,1-2.3,1.5-1,3.2c2.9,3.9,6.5,7.1,11.4,5.9
		C78.6,285.3,79.5,281.4,80,277.7L80,277.7z"/>
	<path class="st1" d="M299.1,449.3c-1.6-6-12.5-14-17.5-12.4c-4.1,1.3-7.7,9.5-10.3,14.9c-0.2,0.5-0.9,2-2,2.1c-0.5,0-1,0-1.2-0.4
		c-1.3-3-1.9-6.2-3.2-9.2c-1.1-2.5-3.6-6.9-8.4-9.3c-9.1-4.6-19.7,1.1-21.6,2c-6.4,3.1-11.7,7.9-17.4,12.1c-2.3,1.7-5.2,3-7.8,2.2
		c-1.1-0.3-1.6-0.7-1.9-1.6c-0.5-1.8,0-3.8,0.7-5.4c3-7.1,10-9.8,16.3-12.8c9.7-4.6,20.1-6.4,30.7-7.2c5.6-0.5,11.1-1.4,16.7-2.1
		c0,0,0,0,0.1,0c0,0,0,0-0.1,0l1-0.2c0.1,0,0.2,0,0.2,0c0.5-0.2,1-0.3,1.4-0.5c0.1,0,0.2,0,0.2,0c7.5-1.5,16.8-10.9,18.2-18.5v0.1
		h-0.1c1.4-4.7,0.8-9.2-0.8-13.8c-2-5.6,0.5-10.6,2.5-15.7c7.1-19.5,3.6-38.5-2.6-57.4c-1-3.2-1.9-6.4-2.9-9.6
		c-0.2-0.4-0.3-0.8-0.5-1.2c0,0,0,0,0-0.1v0.1c-0.2-0.6-0.3-1.1-0.5-1.7c0,0,0,0,0-0.1c0,0,0,0,0,0.1c-0.1-0.2-0.2-0.5-0.2-0.7h0.1
		v0.1c-0.2-0.6-0.3-1.1-0.5-1.7h0.1v0.1c-0.2-0.5-0.3-1-0.5-1.4h0.1v0.1c-0.2-0.6-0.3-1.1-0.5-1.7h0.1v0.1c-0.2-0.5-0.3-1-0.5-1.4
		h0.1v0.1c-0.2-0.8-0.5-1.6-0.7-2.4c0,0,0,0,0-0.1c0,0,0,0,0,0.1c-0.1-0.2-0.2-0.5-0.2-0.7c0,0,0,0,0-0.1c0,0,0,0,0,0.1
		c-0.1-0.2-0.2-0.5-0.2-0.7v-0.1c0,0,0,0,0,0.1c-0.2-0.8-0.5-1.6-0.7-2.4l0.1-0.1l-0.1,0.1c-0.1-0.2-0.2-0.5-0.2-0.7l0.1-0.1
		l-0.1,0.1c-0.1-0.2-0.2-0.5-0.2-0.7l0.1-0.1l-0.1,0.1c-0.2-0.8-0.5-1.6-0.7-2.4l0.1-0.1l-0.1,0.1c-0.2-0.5-0.3-1-0.5-1.4
		c0,0,0,0,0-0.1c0,0,0,0,0,0.1l-0.2-0.7c0,0,0,0,0-0.1v0.1c-0.1-0.2-0.2-0.5-0.2-0.7c0,0,0,0,0-0.1c0,0,0,0,0,0.1
		c-0.2-0.8-0.5-1.6-0.7-2.4c0,0,0,0,0-0.1c0,0,0,0,0,0.1c-0.1-0.2-0.2-0.5-0.2-0.7c0,0,0,0,0-0.1c0,0,0,0,0,0.1h-0.1
		c-2.3-7.7-2.4-15.5-0.7-23.3c0,0,0,0,0.1,0c0,0,0,0-0.1,0c0.1-0.3,0.2-0.6,0.2-1c0,0,0,0,0.1,0h-0.1c0.1-0.3,0.2-0.6,0.2-1
		c0,0,0,0,0.1,0c0,0,0,0-0.1,0c0.2-0.6,0.3-1.1,0.5-1.7c0,0,0,0,0.1,0c0,0,0,0-0.1,0c0.1-0.2,0.2-0.5,0.2-0.7c0,0,0,0,0.1,0
		c0,0,0,0-0.1,0c0.1-0.2,0.2-0.5,0.2-0.7c0,0,0,0,0.1,0c0,0,0,0-0.1,0c0.1-0.2,0.2-0.5,0.2-0.7h0.1c0,0,0,0-0.1,0
		c0.2-0.3,0.3-0.6,0.5-1l0.1-0.1c0-0.1,0-0.1-0.1-0.2c0.2-0.4,0.3-0.8,0.5-1.2c0,0,0,0,0.1,0c0,0,0,0-0.1,0c1.4-2.8,2.9-5.6,4.3-8.4
		c0.2-0.4,0.5-0.8,0.7-1.2c1.9-2.3,3.3-5,6-6.5c0.2-0.2,0.5-0.3,0.7-0.5c1.2-0.6,2.4-1.3,3.6-1.9c0,0,0,0,0.1,0c0,0,0,0-0.1,0
		c0.4-0.2,0.8-0.3,1.2-0.5c0,0,0,0,0.1,0c0,0,0,0-0.1,0c0.8-0.2,1.6-0.5,2.4-0.7c0,0,0,0,0.1,0c0,0,0,0-0.1,0c0.3-0.1,0.6-0.2,1-0.2
		c0,0,0,0,0.1,0c0,0,0,0-0.1,0c7.8-1.4,11.4,4.5,15,9.4c5.2,6.9,6.9,15.1,7.4,23.8c0.9,19.8-4.8,38.3-9.6,57.1
		c-3.7,14.1-4.5,28.4-0.2,42.6c0.2,0.8,0.5,1.6,0.7,2.4c1.2,4.8,3.4,9.2,5.8,13.4c1.1,6-2.6,12-0.3,18.1c0.1,0.2,0.2,0.4,0.3,0.6
		c0.4,1,0.8,2.1,1.2,3.1c2.4,4.6,6.1,7.9,10.5,10.5c1.5,0.9,3.1,1.6,4.6,2.5h-0.1v-0.1c0.8,0.3,1.6,0.6,2.4,1h-0.1v-0.1
		c1.2,0.5,2.4,1,3.6,1.4c0.1,0,0.2,0,0.2,0c1.6,0.6,3.2,1.3,4.8,1.9c0.1,0,0.2,0,0.2,0c7,2.4,13.4,5.5,15.3,13.5
		c0.3,1.2,0.7,2.6-0.2,3.6c-1.6,1.1-4.5,0.5-6.7-0.9c-2.1-1.5-4.4-2.7-6.7-4.1c-0.1-0.1-0.2-0.1-0.3-0.2c-5.3-1.8-10.4-1.7-15.1,1.6
		c-3.1,2.2-3.5,5.5-2.8,9c0.1,0.4,0.2,0.8,0.2,1.2c0.8,1.9,1.6,3.8,2.4,5.8c0.1,0.4,0.4,1,0.5,1.9c0,0.6,0,1.5-0.6,1.9
		c-0.7,0.5-1.8,0-2-0.1c-1.1-0.6-1.6-1.7-1.7-2c-0.2-0.4-3.7-8.5-8.9-10.9c-2.2-1-4.4-0.8-5.5-0.7c-0.7,0.1-3.5,0.3-5.7,1.8
		c-5.2,3.6-2.7,11.6-7.6,14.4c0,0-0.1,0-0.1,0c-1.2,0.6-1.9,0.5-2.4,0.4C300.6,453.3,299.3,450.1,299.1,449.3z"/>
	<path class="st1" d="M264.9,444.3"/>
	<path class="st1" d="M328.1,225.7C328.1,225.7,328,225.8,328.1,225.7C328,225.8,328.1,225.7,328.1,225.7L328.1,225.7z"/>
	<path class="st1" d="M328.6,226.4C328.6,226.4,328.5,226.5,328.6,226.4C328.5,226.5,328.5,226.4,328.6,226.4L328.6,226.4z"/>
	<path class="st1" d="M329,227.1C329,227.1,329,227.2,329,227.1C329,227.2,329,227.2,329,227.1L329,227.1z"/>
	<path class="st1" d="M295.2,232.7C295.2,232.7,295.2,232.6,295.2,232.7C295.1,232.6,295.2,232.7,295.2,232.7L295.2,232.7z"/>
	<path class="st1" d="M294.5,233.1C294.5,233.1,294.4,233.1,294.5,233.1C294.4,233.1,294.5,233.1,294.5,233.1L294.5,233.1z"/>
	<path class="st1" d="M288.5,239.6C288.5,239.6,288.4,239.6,288.5,239.6C288.4,239.6,288.5,239.6,288.5,239.6L288.5,239.6z"/>
	<path class="st1" d="M287.8,240.8C287.8,240.8,287.7,240.8,287.8,240.8C287.7,240.8,287.7,240.8,287.8,240.8L287.8,240.8z"/>
	<path class="st1" d="M337,242.5c0,0.1,0,0.2,0,0.2C336.9,242.7,336.9,242.6,337,242.5C336.9,242.6,336.9,242.5,337,242.5L337,242.5
		z"/>
	<path class="st1" d="M283,250.7c0-0.1,0-0.1-0.1-0.2c0,0,0-0.1,0.1-0.1l0,0C283,250.5,283,250.6,283,250.7L283,250.7z"/>
	<path class="st1" d="M183.1,269.4c0,0.1,0,0.2,0,0.2S183.1,269.5,183.1,269.4C183,269.4,183.1,269.4,183.1,269.4L183.1,269.4z"/>
	<path class="st1" d="M289.7,306.6L289.7,306.6C289.6,306.6,289.7,306.6,289.7,306.6L289.7,306.6z"/>
	<path class="st1" d="M292.6,316.2C292.6,316.2,292.5,316.2,292.6,316.2C292.5,316.2,292.5,316.2,292.6,316.2L292.6,316.2z"/>
	<path class="st1" d="M315.8,362.3l0.1-0.1L315.8,362.3z"/>
	<path class="st1" d="M316.6,364.7v-0.1V364.7z"/>
	<path class="st1" d="M295.2,373.5L295.2,373.5C295.1,373.5,295.2,373.5,295.2,373.5L295.2,373.5z"/>
	<path class="st1" d="M322.3,378.1l0.1-0.1L322.3,378.1z"/>
	<path class="st1" d="M322.3,396.8h0.1H322.3z"/>
	<path class="st1" d="M323.5,399.9h0.1H323.5z"/>
	<path class="st1" d="M344.6,415.3c0.1,0,0.2,0,0.2,0l0,0C344.8,415.3,344.7,415.3,344.6,415.3L344.6,415.3z"/>
	<path class="st1" d="M349.7,417.2c0.1,0,0.2,0,0.2,0l0,0C349.8,417.2,349.8,417.2,349.7,417.2L349.7,417.2z"/>
	<path class="st1" d="M275,421.5c0.1,0,0.2,0,0.2,0l0,0C275.2,421.5,275.1,421.5,275,421.5L275,421.5L275,421.5z"/>
	<path class="st1" d="M273.4,422c0.1,0,0.2,0,0.2,0l0,0C273.5,422,273.4,422,273.4,422L273.4,422L273.4,422z"/>
	<polygon class="st1" points="351.6,429.2 351.6,429.3 351.5,429.3 	"/>
	<path class="st1" d="M333.6,439.8l0.1-0.1L333.6,439.8z"/>
	<path class="st1" d="M333.8,441l0.1-0.1L333.8,441z"/>
	<path class="st1" d="M299.8,448.9l-0.1,0.1L299.8,448.9z"/>
	<path class="st1" d="M300,449.6l-0.1,0.1L300,449.6z"/>
	<path class="st1" d="M81.6,203.6C81.6,203.6,81.6,203.7,81.6,203.6C81.6,203.7,81.6,203.6,81.6,203.6L81.6,203.6L81.6,203.6z"/>
	<path class="st1" d="M131.5,289.3L131.5,289.3L131.5,289.3L131.5,289.3L131.5,289.3z"/>
	<path class="st1" d="M122.9,293.6c0,0.1,0.1,0.1,0.1,0.2c0,0-0.1,0-0.1,0.1l0,0C122.9,293.8,122.9,293.7,122.9,293.6L122.9,293.6
		L122.9,293.6z"/>
	<path class="st1" d="M41.5,307.5C41.5,307.5,41.5,307.6,41.5,307.5C41.5,307.6,41.5,307.6,41.5,307.5L41.5,307.5z"/>
	<path class="st1" d="M45.6,309L45.6,309L45.6,309L45.6,309L45.6,309z"/>
	<path class="st1" d="M66,315.2c-0.1,0-0.2,0-0.2,0l0,0C65.8,315.2,65.9,315.2,66,315.2L66,315.2z"/>
</g>
<rect x="379.3" class="st0" width="3.9" height="500.7"/>
<rect x="351.4" class="st0" width="31.8" height="4"/>
</svg>
