<?xml version="1.0" encoding="utf-8"?>
<!-- Generator: Adobe Illustrator 27.0.0, SVG Export Plug-In . SVG Version: 6.00 Build 0)  -->
<svg version="1.1" id="Livello_1" xmlns="http://www.w3.org/2000/svg" xmlns:xlink="http://www.w3.org/1999/xlink" x="0px" y="0px"
	 viewBox="0 0 2291.7 1148.9" style="enable-background:new 0 0 2291.7 1148.9;" xml:space="preserve">
<style type="text/css">
	.st0{display:none;}
	.st1{display:inline;fill:none;stroke:#000000;stroke-width:3;stroke-miterlimit:10;}
	.st2{fill:#F2A10B;}
	.st3{fill:#1A3761;}
	.st4{fill:#EA5A28;}
	.st5{fill:#D5DAF0;}
	.st6{fill:#FFCC1B;}
	.st7{fill:#6474B7;}
	.st8{fill:#057D37;}
	.st9{fill:#CC3617;}
	.st10{fill:none;stroke:#040505;stroke-width:10;stroke-linecap:round;stroke-linejoin:round;stroke-miterlimit:100;}
	.st11{fill:none;stroke:#CC3617;stroke-width:10;stroke-linecap:round;stroke-linejoin:round;stroke-miterlimit:100;}
	.st12{fill:none;stroke:#057D37;stroke-width:10;stroke-linecap:round;stroke-linejoin:round;stroke-miterlimit:100;}
	.st13{fill:none;stroke:#6474B7;stroke-width:10;stroke-linecap:round;stroke-linejoin:round;stroke-miterlimit:100;}
	.st14{fill:none;stroke:#FFCC1B;stroke-width:10;stroke-linecap:round;stroke-linejoin:round;stroke-miterlimit:100;}
	.st15{fill:none;stroke:#D5DAF0;stroke-width:10;stroke-linecap:round;stroke-linejoin:round;stroke-miterlimit:100;}
	.st16{fill:none;stroke:#EA5A28;stroke-width:10;stroke-linecap:round;stroke-linejoin:round;stroke-miterlimit:100;}
	.st17{fill:none;stroke:#1A3761;stroke-width:10;stroke-linecap:round;stroke-linejoin:round;stroke-miterlimit:100;}
</style>
<g id="Livello_2_00000072974074051485062280000002673242263862853510_" class="st0">
	<path class="st1" d="M3262.4,3184.8c-190.8,0-345.5-154.7-345.5-345.5"/>
	<rect x="2916.9" y="2839.3" class="st1" width="345.5" height="345.5"/>
</g>
<g id="Livello_1_00000125582124851771174970000014015076169468030645_">
	<rect x="4020.8" y="2923.7" class="st2" width="50" height="50"/>
	<rect x="3970.8" y="2923.7" class="st3" width="50" height="50"/>
	<rect x="3970.8" y="2823.7" class="st4" width="100" height="100"/>
	<rect x="3820.8" y="2823.7" class="st5" width="150" height="150"/>
	<rect x="3820.8" y="2973.7" class="st6" width="250" height="250"/>
	<rect x="4070.8" y="2823.7" class="st7" width="400" height="400"/>
	<rect x="3820.8" y="2173.7" class="st8" width="650" height="650"/>
	<rect x="2770.8" y="2173.7" class="st9" width="1050" height="1050"/>
	<path class="st10" d="M2770.8,3223.7c0-579.9,470.1-1050,1050-1050"/>
	<path class="st10" d="M4470.8,2823.7c0-359-291-650-650-650"/>
	<path class="st10" d="M4470.8,2823.7c0,220.9-179.1,400-400,400"/>
	<path class="st10" d="M3820.8,2973.7c0,138.1,111.9,250,250,250"/>
	<path class="st10" d="M3820.8,2973.7c0-82.8,67.2-150,150-150"/>
	<path class="st10" d="M4070.8,2923.7c0-55.2-44.8-100-100-100"/>
	<path class="st10" d="M4070.8,2923.7c0,27.6-22.4,50-50,50"/>
</g>
<g>
	<path class="st11" d="M2118.1,80.4c101.5,47,145.7,167.5,98.7,269"/>
	<path class="st12" d="M2050.2,410.5c62.9,29.1,137.4,1.8,166.5-61.1"/>
	<path class="st13" d="M2050.2,410.5c-38.7-17.9-55.5-63.8-37.6-102.5"/>
	<path class="st14" d="M2076.7,284.5c-24.2-11.2-52.9-0.7-64.1,23.5"/>
	<path class="st15" d="M2076.7,284.5c14.5,6.7,20.8,23.9,14.1,38.4"/>
	<path class="st16" d="M2065.2,332.4c9.7,4.5,21.1,0.3,25.6-9.4"/>
	<path class="st17" d="M2065.2,332.4c-4.8-2.2-6.9-8-4.7-12.8"/>
	<path class="st11" d="M1995.6,607c-68.3,88.7-51.7,215.9,36.9,284.2"/>
	<path class="st12" d="M2208.5,868.3c-42.3,54.9-121,65.1-175.9,22.9"/>
	<path class="st13" d="M2208.5,868.3c26-33.8,19.7-82.2-14.1-108.3"/>
	<path class="st14" d="M2126.8,768.8c16.3-21.1,46.5-25.1,67.7-8.8"/>
	<path class="st15" d="M2126.8,768.8c-9.7,12.7-7.4,30.8,5.3,40.6"/>
	<path class="st16" d="M2159.1,805.9c-6.5,8.4-18.6,10-27.1,3.5"/>
	<path class="st17" d="M2159.1,805.9c3.2-4.2,2.5-10.3-1.8-13.5"/>
	<path class="st11" d="M1206.5,201.7c58.7,95.3,183.6,124.9,278.8,66.2"/>
	<path class="st12" d="M1526.3,95.3c36.4,59,18,136.3-41,172.6"/>
	<path class="st13" d="M1526.3,95.3c-22.4-36.3-69.9-47.6-106.2-25.2"/>
	<path class="st14" d="M1404.3,136.4c-14-22.7-6.9-52.4,15.8-66.4"/>
	<path class="st15" d="M1404.3,136.4c8.4,13.6,26.2,17.8,39.8,9.5"/>
	<path class="st16" d="M1450.4,119.3c5.6,9.1,2.8,21-6.3,26.6"/>
	<path class="st17" d="M1450.4,119.3c-2.8-4.5-8.7-5.9-13.3-3.2"/>
	<path class="st11" d="M1460.4,581.1c19,110.3-55,215.1-165.2,234.1"/>
	<path class="st12" d="M1150.3,712.9c11.8,68.3,76.7,114.1,144.9,102.3"/>
	<path class="st13" d="M1150.3,712.9c-7.2-42,20.9-81.9,62.9-89.2"/>
	<path class="st14" d="M1269,663.1c-4.5-26.3-29.5-43.9-55.7-39.3"/>
	<path class="st15" d="M1269,663.1c2.7,15.7-7.9,30.7-23.6,33.4"/>
	<path class="st16" d="M1223.1,680.8c1.8,10.5,11.8,17.5,22.3,15.7"/>
	<path class="st17" d="M1223.1,680.8c-0.9-5.2,2.6-10.2,7.9-11.1"/>
	<path class="st11" d="M815.7,456.7c57.2-96.2,181.6-127.8,277.7-70.6"/>
	<path class="st12" d="M1137.1,558.1c35.4-59.5,15.9-136.5-43.7-171.9"/>
	<path class="st13" d="M1137.1,558.1c-21.8,36.6-69.2,48.7-105.8,26.9"/>
	<path class="st14" d="M1014.5,518.9c-13.6,22.9-6.1,52.5,16.8,66.1"/>
	<path class="st15" d="M1014.5,518.9c8.2-13.7,25.9-18.2,39.7-10.1"/>
	<path class="st16" d="M1060.9,535.2c5.4-9.2,2.4-21-6.7-26.5"/>
	<path class="st17" d="M1060.9,535.2c-2.7,4.6-8.6,6.1-13.2,3.4"/>
	<path class="st11" d="M240.3,102.7c-110.8,15.6-188,118-172.4,228.9"/>
	<path class="st12" d="M209.6,438.3C141,448,77.5,400.2,67.9,331.6"/>
	<path class="st13" d="M209.6,438.3c42.2-5.9,71.6-45,65.7-87.2"/>
	<path class="st14" d="M220.8,310.1c26.4-3.7,50.8,14.7,54.5,41.1"/>
	<path class="st15" d="M220.8,310.1c-15.8,2.2-26.9,16.9-24.6,32.7"/>
	<path class="st16" d="M217.9,359.2c-10.5,1.5-20.3-5.9-21.8-16.4"/>
	<path class="st17" d="M217.9,359.2c5.3-0.7,9-5.6,8.2-10.9"/>
	<path class="st11" d="M396.3,949.9c-54.1,98-177.4,133.5-275.4,79.4"/>
	<path class="st12" d="M71.8,858.8c-33.5,60.6-11.5,137,49.1,170.5"/>
	<path class="st13" d="M71.8,858.8c20.6-37.3,67.6-50.8,104.9-30.2"/>
	<path class="st14" d="M195.6,894.2c12.9-23.3,4.4-52.7-18.9-65.6"/>
	<path class="st15" d="M195.6,894.2c-7.7,14-25.4,19.1-39.3,11.3"/>
	<path class="st16" d="M148.7,879.3c-5.2,9.3-1.8,21.1,7.6,26.2"/>
	<path class="st17" d="M148.7,879.3c2.6-4.7,8.5-6.4,13.1-3.8"/>
	<path class="st11" d="M583,474c69.5,87.7,54.8,215.1-32.9,284.7"/>
	<path class="st12" d="M373.8,738.3c43,54.3,121.9,63.4,176.2,20.4"/>
	<path class="st13" d="M373.8,738.3c-26.5-33.4-20.9-82,12.5-108.4"/>
	<path class="st14" d="M454.1,637.7c-16.6-20.9-46.9-24.4-67.8-7.8"/>
	<path class="st15" d="M454.1,637.7c9.9,12.5,7.8,30.7-4.7,40.7"/>
	<path class="st16" d="M422.3,675.2c6.6,8.3,18.8,9.8,27.1,3.1"/>
	<path class="st17" d="M422.3,675.2c-3.3-4.2-2.6-10.2,1.6-13.6"/>
	<path class="st11" d="M889.3,1099.1C790.8,1046,754,923.1,807.2,824.6"/>
	<path class="st12" d="M977.2,773.8c-61-32.9-137.1-10.2-170,50.8"/>
	<path class="st13" d="M977.2,773.8c37.5,20.3,51.5,67.1,31.3,104.6"/>
	<path class="st14" d="M943.1,897.9c23.5,12.7,52.7,3.9,65.4-19.5"/>
	<path class="st15" d="M943.1,897.9c-14.1-7.6-19.3-25.2-11.7-39.2"/>
	<path class="st16" d="M957.5,850.9c-9.4-5.1-21.1-1.6-26.1,7.8"/>
	<path class="st17" d="M957.5,850.9c4.7,2.5,6.4,8.4,3.9,13.1"/>
	<path class="st11" d="M1653.4,1102.2c98.5-53.2,135.2-176.1,82.1-274.6"/>
	<path class="st12" d="M1565.5,776.9c61-32.9,137.1-10.2,170,50.8"/>
	<path class="st13" d="M1565.5,776.9c-37.5,20.3-51.5,67.1-31.3,104.6"/>
	<path class="st14" d="M1599.6,901c-23.5,12.7-52.7,3.9-65.4-19.5"/>
	<path class="st15" d="M1599.6,901c14.1-7.6,19.3-25.2,11.7-39.2"/>
	<path class="st16" d="M1585.2,854c9.4-5.1,21.1-1.6,26.1,7.8"/>
	<path class="st17" d="M1585.2,854c-4.7,2.5-6.4,8.4-3.9,13.1"/>
	<path class="st11" d="M884.1,251.3c-9.7-111.5-108-194-219.5-184.2"/>
	<path class="st12" d="M550.5,202.9c-6-69,45-129.9,114-135.9"/>
	<path class="st13" d="M550.5,202.9c3.7,42.5,41.2,73.9,83.6,70.2"/>
	<path class="st14" d="M678,220.8c2.3,26.5-17.3,49.9-43.9,52.3"/>
	<path class="st15" d="M678,220.8c-1.4-15.9-15.4-27.7-31.4-26.3"/>
	<path class="st16" d="M629.1,215.4c-0.9-10.6,6.9-20,17.5-20.9"/>
	<path class="st17" d="M629.1,215.4c0.5,5.3,5.1,9.2,10.5,8.8"/>
	<path class="st11" d="M1767,605.6c-108.9-25.6-176.5-134.7-150.8-243.6"/>
	<path class="st12" d="M1767,268.5c-67.4-15.9-135,25.9-150.8,93.4"/>
	<path class="st13" d="M1767,268.5c41.5,9.8,67.2,51.3,57.5,92.8"/>
	<path class="st14" d="M1766.5,397.3c25.9,6.1,51.9-10,58-35.9"/>
	<path class="st15" d="M1766.5,397.3c-15.6-3.7-25.2-19.3-21.5-34.8"/>
	<path class="st16" d="M1768.1,348.1c-10.4-2.4-20.8,4-23.2,14.4"/>
	<path class="st17" d="M1768.1,348.1c5.2,1.2,8.4,6.4,7.2,11.6"/>
	<path class="st11" d="M87.7,560.5c-12.2,46.8,15.9,94.7,62.7,106.9"/>
	<path class="st12" d="M216.6,628.6c-7.5,29-37.2,46.4-66.2,38.8"/>
	<path class="st13" d="M216.6,628.6c4.6-17.8-6.1-36.1-23.9-40.7"/>
	<path class="st14" d="M167.3,602.8c2.9-11.2,14.3-17.8,25.4-14.9"/>
	<path class="st15" d="M167.3,602.8c-1.7,6.7,2.3,13.5,9,15.3"/>
	<path class="st16" d="M186.4,612.1c-1.2,4.5-5.7,7.1-10.2,6"/>
	<path class="st17" d="M186.4,612.1c0.6-2.2-0.8-4.5-3-5.1"/>
	<path class="st11" d="M1419.7,366.8c-42.6,22.9-58.7,76-35.8,118.6"/>
	<path class="st12" d="M1457.3,507.6c-26.4,14.2-59.3,4.2-73.4-22.2"/>
	<path class="st13" d="M1457.3,507.6c16.2-8.7,22.4-28.9,13.6-45.2"/>
	<path class="st14" d="M1442.7,453.9c10.2-5.4,22.8-1.6,28.2,8.5"/>
	<path class="st15" d="M1442.7,453.9c-6.1,3.3-8.4,10.9-5.1,16.9"/>
	<path class="st16" d="M1448.9,474.2c-4.1,2.2-9.1,0.6-11.3-3.4"/>
	<path class="st17" d="M1448.9,474.2c2-1.1,2.8-3.6,1.7-5.6"/>
	<path class="st11" d="M1123.7,97.9c-18.4,44.8-69.6,66.2-114.3,47.8"/>
	<path class="st12" d="M979.8,74.9c-11.4,27.7,1.9,59.4,29.6,70.8"/>
	<path class="st13" d="M979.8,74.9c7-17.1,26.5-25.2,43.6-18.2"/>
	<path class="st14" d="M1034.8,83.9c4.4-10.7-0.7-22.8-11.4-27.2"/>
	<path class="st15" d="M1034.8,83.9c-2.6,6.4-9.9,9.5-16.3,6.8"/>
	<path class="st16" d="M1013.9,79.9c-1.7,4.3,0.3,9.1,4.6,10.9"/>
	<path class="st17" d="M1013.9,79.9c0.9-2.1,3.3-3.2,5.4-2.3"/>
	<path class="st11" d="M526.4,933c44.6-18.7,96,2.4,114.6,47"/>
	<path class="st12" d="M612,1051c27.6-11.6,40.7-43.3,29.1-71"/>
	<path class="st13" d="M612,1051c-17,7.1-36.6-0.9-43.7-17.9"/>
	<path class="st14" d="M579.5,1005.8c-10.6,4.4-15.6,16.7-11.2,27.3"/>
	<path class="st15" d="M579.5,1005.8c6.4-2.7,13.7,0.3,16.4,6.7"/>
	<path class="st16" d="M591.4,1023.4c4.2-1.8,6.3-6.7,4.5-10.9"/>
	<path class="st17" d="M591.4,1023.4c-2.1,0.9-4.6-0.1-5.5-2.2"/>
	<path class="st11" d="M880.7,646.8c-23.6-42.3-77-57.4-119.2-33.8"/>
	<path class="st12" d="M740.6,686.8c-14.6-26.2-5.2-59.2,20.9-73.8"/>
	<path class="st13" d="M740.6,686.8c9,16.1,29.3,21.9,45.4,12.9"/>
	<path class="st14" d="M794.1,671.3c5.6,10.1,2,22.8-8,28.4"/>
	<path class="st15" d="M794.1,671.3c-3.4-6-11-8.2-17-4.8"/>
	<path class="st16" d="M773.8,677.8c-2.2-4-0.8-9.1,3.2-11.4"/>
	<path class="st17" d="M773.8,677.8c1.1,2,3.7,2.7,5.7,1.6"/>
	<path class="st11" d="M1228.6,940.4c-8.3,47.7,23.7,93,71.4,101.3"/>
	<path class="st12" d="M1362.6,997.5c-5.1,29.5-33.2,49.3-62.7,44.2"/>
	<path class="st13" d="M1362.6,997.5c3.1-18.2-9-35.4-27.2-38.6"/>
	<path class="st14" d="M1311.3,975.9c2-11.4,12.8-19,24.1-17"/>
	<path class="st15" d="M1311.3,975.9c-1.2,6.8,3.4,13.3,10.2,14.5"/>
	<path class="st16" d="M1331.2,983.6c-0.8,4.5-5.1,7.6-9.6,6.8"/>
	<path class="st17" d="M1331.2,983.6c0.4-2.3-1.1-4.4-3.4-4.8"/>
	<path class="st11" d="M1880.3,1023.7c28.6-39,83.5-47.5,122.5-18.8"/>
	<path class="st12" d="M2014.4,1080.6c17.7-24.2,12.5-58.1-11.7-75.8"/>
	<path class="st13" d="M2014.4,1080.6c-10.9,14.9-31.8,18.1-46.7,7.2"/>
	<path class="st14" d="M1963.3,1058.7c-6.8,9.3-4.8,22.3,4.5,29.2"/>
	<path class="st15" d="M1963.3,1058.7c4.1-5.6,11.9-6.8,17.5-2.7"/>
	<path class="st16" d="M1982.6,1067.6c2.7-3.7,1.9-8.9-1.8-11.7"/>
	<path class="st17" d="M1982.6,1067.6c-1.4,1.9-4,2.3-5.8,0.9"/>
	<path class="st11" d="M1761.6,125c5.1-48.1,48.3-83,96.4-77.8"/>
	<path class="st12" d="M1906.2,106.9c3.2-29.8-18.4-56.5-48.2-59.7"/>
	<path class="st13" d="M1906.2,106.9c-2,18.3-18.4,31.6-36.7,29.7"/>
	<path class="st14" d="M1850.9,113.6c-1.2,11.5,7.1,21.7,18.5,23"/>
	<path class="st15" d="M1850.9,113.6c0.7-6.9,6.9-11.9,13.8-11.1"/>
	<path class="st16" d="M1872.1,111.6c0.5-4.6-2.8-8.7-7.4-9.2"/>
	<path class="st17" d="M1872.1,111.6c-0.2,2.3-2.3,4-4.6,3.7"/>
	<path class="st11" d="M523.4,342.2c-18.4,44.8-69.6,66.2-114.3,47.8"/>
	<path class="st12" d="M379.5,319.3c-11.4,27.7,1.9,59.4,29.6,70.8"/>
	<path class="st13" d="M379.5,319.3c7-17.1,26.5-25.2,43.6-18.2"/>
	<path class="st14" d="M434.4,328.3c4.4-10.7-0.7-22.8-11.4-27.2"/>
	<path class="st15" d="M434.4,328.3c-2.6,6.4-9.9,9.5-16.3,6.8"/>
	<path class="st16" d="M413.6,324.2c-1.7,4.3,0.3,9.1,4.6,10.9"/>
	<path class="st17" d="M413.6,324.2c0.9-2.1,3.3-3.2,5.4-2.3"/>
	<path class="st11" d="M1861.3,636.1c32.3,36,29.3,91.4-6.7,123.7"/>
	<path class="st12" d="M1778,755.7c20,22.3,54.3,24.2,76.6,4.2"/>
	<path class="st13" d="M1778,755.7c-12.3-13.7-11.2-34.8,2.6-47.1"/>
	<path class="st14" d="M1810,710.2c-7.7-8.6-20.9-9.3-29.5-1.6"/>
	<path class="st15" d="M1810,710.2c4.6,5.1,4.2,13.1-1,17.7"/>
	<path class="st16" d="M1797.2,727.2c3.1,3.4,8.4,3.7,11.8,0.6"/>
	<path class="st17" d="M1797.2,727.2c-1.5-1.7-1.4-4.4,0.3-5.9"/>
</g>
</svg>
