<?xml version="1.0" encoding="utf-8"?>
<!-- Generator: Adobe Illustrator 27.0.0, SVG Export Plug-In . SVG Version: 6.00 Build 0)  -->
<svg version="1.1" id="Livello_1" xmlns="http://www.w3.org/2000/svg" xmlns:xlink="http://www.w3.org/1999/xlink" x="0px" y="0px"
	 viewBox="0 0 1747.9 1703.5" style="enable-background:new 0 0 1747.9 1703.5;" xml:space="preserve">
<style type="text/css">
	.st0{fill:#CC3517;}
	.st1{fill:#1A3761;}
	.st2{fill:#0268D9;}
	.st3{fill:#007C37;}
	.st4{fill:#6474B8;}
	.st5{fill:#FFCC19;}
	.st6{fill:#D4DCFF;}
	.st7{fill:#F35923;}
	.st8{fill:#D52D08;}
</style>
<polygon class="st0" points="1324.2,534.7 1135.1,502.2 1257.7,354.7 "/>
<polygon class="st1" points="650,47 729.7,221.6 538.7,203.3 "/>
<polygon class="st2" points="778.3,437 969.6,421.1 887.8,594.7 "/>
<polygon class="st3" points="1632.2,84.8 1582.5,270.2 1446.8,134.5 "/>
<polygon class="st4" points="323.1,744.9 291.8,934.3 143.5,812.5 "/>
<polygon class="st5" points="1490.4,546 1670,478.4 1638.7,667.8 "/>
<polygon class="st3" points="1624.7,943 1463,1046.4 1454.3,854.7 "/>
<polygon class="st5" points="80.1,412.8 232.2,529.8 54.7,603 "/>
<polygon class="st6" points="995.7,865.2 1083.2,1035.9 891.5,1026.3 "/>
<polygon class="st7" points="1318.1,1248 1165,1363.8 1141.2,1173.4 "/>
<polygon class="st4" points="1560.3,1217.7 1699.7,1349.7 1515.8,1404.4 "/>
<polygon class="st3" points="48.2,1511.3 238.8,1488.9 162.9,1665.1 "/>
<polygon class="st2" points="1032.3,1535.3 869.5,1636.7 863,1445.1 "/>
<polygon class="st6" points="575.8,1404.4 596.3,1595.2 420.8,1517.6 "/>
<polygon class="st5" points="600.8,1173.9 789.1,1136.6 727.1,1318.4 "/>
<polygon class="st5" points="1348,1464.8 1454.3,1624.5 1262.8,1636.7 "/>
<polygon class="st6" points="1050.7,38.4 1219.4,129.9 1055.8,230.2 "/>
<polygon class="st1" points="156.4,1126.8 328.1,1212.7 167.9,1318.4 "/>
<polygon class="st8" points="729.7,759.1 711.8,950.3 555.2,839.3 "/>
<polygon class="st1" points="1333,729.1 1232.6,892.7 1141.2,724 "/>
<polygon class="st7" points="99,88.2 288.7,116.6 169.2,266.8 "/>
<polygon class="st3" points="432.2,450.5 600.8,542.3 437.1,642.4 "/>
</svg>
