<?xml version="1.0" encoding="utf-8"?>
<!-- Generator: Adobe Illustrator 27.0.0, SVG Export Plug-In . SVG Version: 6.00 Build 0)  -->
<svg version="1.1" id="Livello_1" xmlns="http://www.w3.org/2000/svg" xmlns:xlink="http://www.w3.org/1999/xlink" x="0px" y="0px"
	 viewBox="0 0 1424.6 741.7" style="enable-background:new 0 0 1424.6 741.7;" xml:space="preserve">
<style type="text/css">
	.st0{fill:#8D99FF;}
	.st1{fill:#F35923;}
	.st2{fill:#4046E5;}
	.st3{fill:#007C37;}
	.st4{fill:#D52D08;}
	.st5{fill:#FFE200;}
	.st6{fill:#5EA9F9;}
</style>
<polygon class="st0" points="369.6,460.6 180.2,429.8 301.6,281.1 "/>
<polygon class="st1" points="723.7,354.1 580.1,481.4 541.6,293.4 "/>
<polygon class="st2" points="1035.8,126.4 856.2,193.9 887.5,4.6 "/>
<polygon class="st3" points="496,0 575.7,174.6 384.7,156.3 "/>
<polygon class="st4" points="229.4,10.6 158.6,188.9 39.5,38.4 "/>
<polygon class="st3" points="1402.4,457.6 1424.6,648.2 1248.4,572.1 "/>
<polygon class="st5" points="446.6,684.1 492.8,497.8 631,631 "/>
<polygon class="st4" points="1020.1,532.9 1160.2,664.1 976.6,719.9 "/>
<polygon class="st1" points="1406.7,43.6 1357,229 1221.3,93.3 "/>
<polygon class="st6" points="179.6,552.3 148.3,741.7 0,619.9 "/>
<polygon class="st5" points="1050.5,306.8 1230.1,239.2 1198.8,428.6 "/>
<polygon class="st0" points="984.6,459 841,586.3 802.6,398.2 "/>
</svg>
